<?xml version="1.0" encoding="utf-8"?>
<svg width="121px" height="189px" viewBox="0 0 121 189" version="1.1" xmlns:xlink="http://www.w3.org/1999/xlink" xmlns="http://www.w3.org/2000/svg">
  <g id="Senza-titolo-2">
    <path d="M52.7587 0.303415C49.1948 0.318535 45.6369 1.12896 42.4417 2.66514C40.8441 3.43928 39.3365 4.37973 37.9427 5.45929C36.5549 6.54793 35.281 7.77264 34.151 9.10923C33.018 10.4428 32.0289 11.8913 31.1776 13.4033C30.3323 14.9183 29.6399 16.515 29.0974 18.1479C28.5519 19.7839 28.1712 21.4682 27.9464 23.1677L27.8055 24.4468C27.7786 24.8762 27.7456 25.3026 27.7246 25.732L27.7006 27.0233L27.7006 28.378L27.6976 28.2752L27.7456 28.9163L27.7486 28.9677L27.7486 29.0191L27.7486 29.0675L27.7426 28.9556L27.7906 29.5453L27.7966 29.6088L27.7966 29.6572L27.7966 29.7055L27.7756 29.4636L27.8685 30.0079L27.8895 30.138L27.8895 30.2499L27.8865 30.4948L27.8595 30.2287L27.9554 30.7216L27.9824 30.8637L27.9824 30.9877L27.9824 31.0845L27.9554 30.8214L28.0483 31.3173L28.0753 31.4564L28.0753 31.5774L28.0723 31.8223L28.0154 31.4353L28.1562 31.9282L28.2162 32.1308L28.2132 32.3122L28.2132 32.3606L28.1952 32.1398L28.2851 32.7325L28.2911 32.7719L28.3031 32.9503C28.3031 32.9503 28.3031 32.9624 28.3001 32.9079L28.2941 32.8444C28.2911 32.8202 28.2851 32.7598 28.2761 32.7204C28.2701 32.6842 28.2581 32.6418 28.2462 32.6025L28.2282 32.5451C28.2192 32.5178 28.2072 32.4846 28.1922 32.4543C28.1622 32.3878 28.1413 32.3424 28.0933 32.2699C28.0453 32.1973 27.9914 32.1247 27.9284 32.0642C27.8685 32.0007 27.7996 31.9433 27.7246 31.8949C27.6467 31.8435 27.6047 31.8223 27.5388 31.7891C27.5088 31.7739 27.4788 31.7618 27.4459 31.7497L27.3859 31.7286C27.3469 31.7165 27.308 31.7074 27.266 31.6983C27.2241 31.6893 27.1671 31.6802 27.1401 31.6772L27.0742 31.6711C27.0172 31.6681 27.0292 31.6711 27.0292 31.6711L28.3601 31.7679L28.3421 32.9956L28.3421 33.0954L28.3121 32.8081L28.402 33.2557L28.3661 33.1257L28.414 33.2738L28.483 33.4946L28.48 33.6881L28.48 33.7365L28.414 33.3192L28.5549 33.7637L28.6238 33.9845L28.6208 34.178L28.6178 34.3262L28.5399 33.8786L28.7257 34.4229L28.8127 34.6739L28.8037 34.8705C28.8037 34.8796 28.8037 34.8705 28.8007 34.8372C28.7977 34.8009 28.7977 34.7405 28.7647 34.6044C28.7467 34.5348 28.7197 34.4502 28.6568 34.3322C28.6418 34.302 28.6238 34.2748 28.6058 34.2476C28.5849 34.2143 28.5609 34.181 28.5369 34.1508C28.4919 34.0903 28.426 34.0208 28.3571 33.9663C28.2881 33.9089 28.2102 33.8575 28.1323 33.8151C28.0633 33.7788 27.9794 33.7456 27.9075 33.7244C27.8445 33.7063 27.7726 33.6911 27.7156 33.6851C27.6647 33.679 27.6167 33.676 27.5658 33.676L28.8157 34.6891L28.9026 35.1366L28.7977 34.8372L28.8906 35.0368L28.9416 35.1427L28.9595 35.2031L29.0974 35.6477L29.1664 35.8714L29.1634 36.0498L29.1634 36.0982L29.1004 35.6991C29.1304 35.8109 29.1753 35.9319 29.2173 36.0529C29.2563 36.1708 29.3042 36.2978 29.3522 36.4218L29.0794 36.0045L29.1274 36.0559L29.3312 36.2706L29.4091 36.4974L29.547 36.8966L29.6309 37.1415L29.625 37.332L29.625 37.3804L29.2653 36.5065L29.3132 36.5579L29.52 36.7786L29.595 36.9963L29.7299 37.3955L29.6789 37.2776C29.7928 37.5134 29.8917 37.7523 29.9816 37.9912L28.8846 37.2715L28.9326 37.2715L29.7718 37.2957L30.0356 38.0245L30.1255 38.2725L30.2154 38.5204L30.2094 38.714L30.2094 38.7623L30.0836 38.2301L30.3144 38.7291L29.2773 38.082C29.3732 38.085 29.3792 38.088 29.4211 38.091C29.4541 38.094 29.4841 38.1001 29.514 38.1061C29.574 38.1182 29.6369 38.1364 29.6999 38.1606C29.8288 38.209 29.9786 38.2906 30.1135 38.4237C30.2484 38.5507 30.3623 38.7351 30.4133 38.8924C30.4702 39.0587 30.4822 39.1887 30.4852 39.3067L30.3623 38.7835L30.5451 39.1827L30.665 39.6998C30.668 39.5607 30.6261 39.3429 30.5302 39.1736C30.4372 39.0043 30.3413 38.9256 30.3503 38.9317C30.3533 38.9377 30.4582 39.0285 30.5631 39.2159C30.668 39.4034 30.713 39.6393 30.71 39.7966L30.5481 39.2038L30.8269 39.7058L30.9888 40.2925C30.9918 40.1564 30.9498 39.9417 30.8569 39.7754C30.764 39.6091 30.674 39.5335 30.683 39.5395C30.686 39.5456 30.7909 39.6363 30.8928 39.8207C30.9948 40.0052 31.0397 40.238 31.0367 40.3923L30.9168 39.8842L31.0547 40.1836L30.0566 39.5607L30.1045 39.5607L30.8239 39.5818L31.0997 40.1806L31.2375 40.483L31.3544 40.9789C31.3514 40.8912 31.3514 40.8882 31.3454 40.8519L31.3335 40.7733C31.3245 40.7219 31.3095 40.6705 31.2885 40.613C31.2495 40.5042 31.1776 40.3711 31.0637 40.2501C30.9528 40.1292 30.7909 40.0294 30.6531 39.981C30.5062 39.9296 30.3953 39.9205 30.2994 39.9175L31.2855 40.5314L31.4234 40.8307L30.4462 40.2229L30.4942 40.2229L31.1626 40.2441L31.4414 40.7793L31.6242 41.1301L31.7651 41.6654C31.7621 41.5777 31.7621 41.5777 31.7561 41.5414L31.7441 41.4628C31.7351 41.4114 31.7201 41.3599 31.6991 41.3055C31.6602 41.1967 31.5882 41.0696 31.4773 40.9517C31.3664 40.8338 31.2106 40.737 31.0787 40.6916C30.9378 40.6433 30.8329 40.6342 30.737 40.6342L31.6482 41.1422L31.879 41.5444L31.7261 41.3509L31.7741 41.4023L31.9209 41.5595L31.9779 41.6835L32.0229 41.7833L31.0817 41.2057C31.1686 41.2087 31.1716 41.2087 31.2106 41.2148C31.2375 41.2178 31.2675 41.2239 31.2945 41.2269C31.3484 41.239 31.4024 41.2541 31.4593 41.2753C31.5732 41.3176 31.7081 41.3902 31.831 41.5081C31.9539 41.623 32.0588 41.7863 32.1098 41.9345C32.1637 42.0887 32.1757 42.2097 32.1757 42.3155L31.9659 41.6835L32.1038 41.8861L32.3226 42.2036L32.3106 42.5151L32.3076 42.5635L32.0828 41.9133L32.2686 42.1673L32.4904 42.8115C32.4904 42.7207 32.4785 42.6179 32.4305 42.4788C32.3855 42.3488 32.2926 42.2006 32.1817 42.0978C32.0708 41.992 31.9479 41.9254 31.849 41.8891C31.7981 41.871 31.7501 41.8589 31.7021 41.8468L31.6302 41.8347C31.5972 41.8317 31.5942 41.8287 31.5133 41.8287L32.3106 42.2157L32.4964 42.4697L32.7302 42.7873L32.7182 43.1078L32.7152 43.1562L32.4934 42.5211L32.6793 42.7752L32.6043 42.6935L32.6523 42.7449L32.7122 42.8115L32.7242 42.8266L32.9101 43.0806L33.1259 43.7005C33.1259 43.6219 33.1229 43.6219 33.1199 43.5886L33.1079 43.5191C33.0989 43.4737 33.0869 43.4283 33.0689 43.3769C33.033 43.2802 32.97 43.1622 32.8681 43.0564C32.7692 42.9475 32.6253 42.8598 32.5054 42.8175C32.3765 42.7721 32.2776 42.7631 32.1907 42.7631L33.1709 43.7519L33.1679 43.8003L32.9251 43.1501L33.0989 43.3679L33.1858 43.4767L33.2278 43.5312L33.2548 43.5614L33.3147 43.6279L33.5485 43.9333L33.4886 43.8668L33.5365 43.9182L33.5965 43.9817L33.6085 43.9969L33.7943 44.2509L33.7493 44.1964C34.3758 44.9282 35.0202 45.6298 35.7066 46.28L35.7486 46.3193L35.9824 46.5733L35.9164 46.5128C36.1832 46.7638 36.456 47.0118 36.7137 47.2627L37.4002 48.0097C37.8558 48.5086 38.3084 49.0106 38.755 49.5156C39.2016 50.0206 39.6452 50.5317 40.0828 51.0427L41.3987 52.5789L41.7913 53.0355L41.3387 53.3954C40.5204 54.0485 39.9959 55.0918 40.0049 56.1563C40.0109 57.2267 40.5324 58.2912 41.3957 58.9413L41.8842 59.3103L41.3957 59.6792C40.8711 60.0753 40.4515 60.6196 40.2117 61.2365C39.9689 61.8534 39.9149 62.5399 40.0289 63.187C40.1487 63.8372 40.4515 64.451 40.8801 64.953C41.3147 65.452 41.8782 65.833 42.4987 66.0295L42.6426 66.0749L42.7415 66.211C43.1851 66.8158 43.7546 67.3147 44.402 67.7078C45.0495 68.0979 45.7658 68.3973 46.5152 68.609L46.8119 68.6937L46.9018 69.0233C47.2585 70.3448 48.0498 71.515 49.1379 72.2801C50.2229 73.0482 51.5538 73.402 52.8756 73.3597C54.1945 73.3173 55.4683 72.8698 56.4365 72.0593C56.5624 71.9505 56.6883 71.8416 56.8112 71.7328C56.9221 71.6269 57.033 71.515 57.1349 71.4001C57.3387 71.1673 57.5185 70.9193 57.6774 70.6532C57.9891 70.124 58.202 69.5374 58.3069 68.9295L58.4118 68.3278L59.0622 68.101C59.7636 67.856 60.423 67.5627 60.9895 67.1756C61.556 66.7946 62.0266 66.3289 62.3863 65.7816L62.5841 65.4822L63.0037 65.325C63.6092 65.0982 64.1338 64.6688 64.4695 64.1214C64.6373 63.8493 64.7602 63.5469 64.8262 63.2384L64.8651 63.0025C64.8711 62.9239 64.8831 62.8453 64.8861 62.7636L64.8891 62.5157C64.8891 62.4703 64.8861 62.4461 64.8861 62.4703C64.8921 62.4915 64.8831 62.561 64.973 62.7636L64.8381 62.2768C64.7572 61.5238 64.3765 60.8767 63.7531 60.4049L62.3293 59.3314L63.7711 58.1974C64.3795 57.7197 64.7542 56.9758 64.7812 56.2167C64.7962 55.8357 64.7272 55.4728 64.5804 55.113C64.4335 54.7562 64.2027 54.4144 63.9179 54.1151L62.9498 53.1081L63.9509 52.0527L67.6797 48.1216C67.9824 47.795 68.3181 47.4684 68.5968 47.1388L69.4871 46.1197C70.0716 45.4423 70.6351 44.7649 71.1656 44.0755L71.2106 44.015L71.2885 43.9364L71.5283 43.6884L71.4114 43.8184L71.6032 43.5705L72.8471 42.9687C72.7692 42.9687 72.7033 42.9747 72.6163 42.9868C72.5204 43.002 72.4425 43.0201 72.3316 43.0594C72.1308 43.129 71.897 43.2711 71.7351 43.4495C71.5673 43.6279 71.4623 43.8215 71.4024 43.9848C71.3724 44.0664 71.3514 44.145 71.3365 44.2206C71.3275 44.2569 71.3215 44.2992 71.3185 44.3386C71.3125 44.393 71.3095 44.396 71.3065 44.526L71.7711 43.3951L72.0618 43.0957L71.5972 44.2297L71.5972 44.1813L71.5942 43.5765L71.9989 43.1108L72.3885 42.6663L71.9839 43.7338C71.9869 43.6037 71.9899 43.5947 71.9959 43.5372C72.0019 43.4949 72.0079 43.4525 72.0169 43.4102C72.0318 43.3286 72.0558 43.2439 72.0888 43.1562C72.1517 42.9808 72.2596 42.7782 72.4365 42.5877C72.6073 42.4002 72.8531 42.246 73.0689 42.1704C73.1858 42.128 73.2758 42.1069 73.3777 42.0917C73.4706 42.0766 73.5455 42.0736 73.6294 42.0706L72.3825 42.6754L72.5774 42.4274L72.2267 43.4344L72.2267 43.386L72.2237 42.8236L72.5774 42.373L72.7722 42.125L72.4185 43.135C72.4215 43.005 72.4245 42.9959 72.4305 42.9385C72.4365 42.8961 72.4425 42.8538 72.4515 42.8115C72.4665 42.7298 72.4904 42.6451 72.5204 42.5574C72.5834 42.382 72.6913 42.1794 72.8681 41.9889C73.039 41.8014 73.2878 41.6442 73.5036 41.5686C73.6205 41.5263 73.7104 41.5051 73.8123 41.4869C73.9052 41.4718 73.9801 41.4688 74.0671 41.4658L72.8172 42.0706L73.012 41.8226L72.6613 42.8326L72.6613 42.7842L72.6583 42.2278L73.009 41.7803L73.2038 41.5323L72.8561 42.5393L72.8561 42.4909L72.8531 41.8287L73.3237 41.3478L73.5185 41.1513L73.1319 41.7803L73.1798 41.6321L74.7025 40.5253C74.7025 40.5253 74.7145 40.5253 74.6486 40.5253L74.5736 40.5314C74.5466 40.5344 74.4747 40.5435 74.4268 40.5525C74.3938 40.5586 74.3338 40.5737 74.2919 40.5858C74.2469 40.6009 74.2049 40.613 74.121 40.6463C74.0461 40.6796 73.9801 40.7098 73.9022 40.7582C73.8123 40.8156 73.7254 40.8822 73.6474 40.9547C73.4916 41.0969 73.3567 41.3055 73.2997 41.4355C73.2818 41.4718 73.2668 41.5111 73.2518 41.5505L73.2218 41.6321C73.2068 41.6805 73.1918 41.7319 73.1828 41.7803C73.1679 41.8438 73.1619 41.9043 73.1559 41.9466L73.1499 42.0313C73.1469 42.1038 73.1469 42.0917 73.1469 42.0917L73.1948 41.49L73.4676 41.121L73.7583 40.7249L73.4376 41.6986L73.4376 41.6502L73.4346 41.1301L73.7374 40.7068C73.8782 40.5072 74.0161 40.3106 74.145 40.108L73.8752 41.0092L73.8752 40.9608L73.8752 40.4679L74.142 40.0627L74.3368 39.7663L74.2409 39.9357L74.3878 39.6393L75.8265 38.7442C75.7486 38.7442 75.6797 38.7503 75.5897 38.7623C75.4938 38.7775 75.4099 38.7986 75.299 38.8379C75.0952 38.9105 74.8584 39.0587 74.6935 39.2371C74.5257 39.4186 74.4208 39.6121 74.3608 39.7754C74.3308 39.857 74.3099 39.9357 74.2949 40.0112C74.2889 40.0475 74.2799 40.0899 74.2769 40.1292C74.2709 40.1836 74.2679 40.1866 74.2649 40.3167L74.4357 39.5939L74.5826 39.2976L75.0292 38.3995L76.0214 38.3995L76.0693 38.3995L74.5736 39.4216L74.6725 39.1766L74.7984 38.8621L75.0262 38.6353C75.0292 38.6323 75.0382 38.6232 75.0232 38.6384C75.0082 38.6565 74.9783 38.6747 74.8644 38.841C74.8134 38.9196 74.7325 39.0617 74.6845 39.2099C74.6336 39.3671 74.6186 39.479 74.6096 39.5577C74.5976 39.6937 74.6036 39.6907 74.6036 39.6847L74.4987 39.3732L74.8734 38.7835C74.9063 38.7321 74.9393 38.6867 74.9753 38.6263L75.0772 38.4539L74.8464 39.2885L74.8464 39.2401L74.8464 38.8561L75.0172 38.5144L75.263 38.0215L75.0922 38.7472C75.0922 38.6595 75.0982 38.587 75.1132 38.4902C75.1311 38.3874 75.1491 38.2967 75.1911 38.1757C75.266 37.958 75.4189 37.707 75.6077 37.5346C75.7966 37.3562 76.0004 37.2443 76.1742 37.1808C76.2611 37.1475 76.3451 37.1264 76.426 37.1082C76.468 37.0992 76.5099 37.0931 76.5519 37.0871C76.6088 37.081 76.6148 37.078 76.7467 37.075L75.1401 38.6988L75.1401 38.5991L75.1401 38.1061L75.4099 37.6979L75.5088 37.5497L75.3679 37.8098L75.5148 37.4651L75.3859 38.1031L75.3859 38.0547L75.3859 37.6042L75.6137 37.2201L75.7606 36.9752L75.6617 37.1717L75.8085 36.827L75.6797 37.4651C75.6797 37.3743 75.6857 37.2987 75.7006 37.199C75.7186 37.0961 75.7396 36.9994 75.7786 36.8935C75.8175 36.7877 75.8625 36.6939 75.9164 36.6032C75.9614 36.5276 76.0214 36.446 76.0573 36.4006C76.1442 36.2978 76.1922 36.2555 76.1652 36.2797C76.1442 36.3039 76.0723 36.3704 75.9704 36.5276C75.8745 36.6728 75.7876 36.8935 75.7546 37.075C75.7366 37.1748 75.7306 37.2443 75.7276 37.329C75.7276 37.3864 75.7276 37.3622 75.7276 37.3653L75.7276 37.3592L75.7276 37.3199L75.7276 36.6425L76.2042 36.1678L76.2522 36.1194L75.9045 36.6365L76.0513 36.2918L75.9224 36.9268L75.9224 36.8784L75.9224 36.5548L76.0393 36.2736C76.1203 36.0801 76.1952 35.8775 76.2731 35.6718L76.2192 35.8472L76.2701 35.6507L76.2881 35.5781L76.3031 35.5297L76.453 35.0882L76.8277 33.9784L77.9667 33.9875L78.0146 33.9875L76.465 35.2092L76.5159 35.0126L76.5339 34.9431L76.5489 34.8947L76.6988 34.4502L76.6178 34.9552L76.6178 34.8554L76.6208 34.559L76.7168 34.302L76.9176 33.7637L76.8217 34.3141L76.8217 34.2657L76.8247 33.8756L76.9895 33.549L77.0405 33.4522L76.9116 33.8212L77.0135 33.3797L76.9745 33.7274L76.9745 33.679L76.9775 33.292L77.1424 32.9654L77.1933 32.8686L77.0255 33.5823L77.0255 33.5339L77.0255 33.3494L77.0614 33.1892L77.1634 32.7446L77.2083 32.542L77.2922 32.3757L77.3432 32.2789L77.1753 32.9926L77.1753 32.9442L77.1753 32.7386L77.2203 32.5602L77.3702 31.9705L77.3222 32.3545L77.3222 32.3062L77.3222 32.1368L77.3522 31.9947L77.4541 31.5048L77.4241 31.8163L77.4271 31.6197L78.9918 30.0382C78.8659 30.0412 78.8629 30.0442 78.8119 30.0503C78.7729 30.0563 78.734 30.0624 78.698 30.0684C78.6261 30.0835 78.5511 30.1047 78.4702 30.1319C78.3143 30.1894 78.1255 30.2922 77.9517 30.4585C77.7778 30.6188 77.6339 30.8516 77.565 31.0542C77.526 31.1661 77.5081 31.2447 77.4931 31.3415C77.4811 31.4292 77.4751 31.4957 77.4751 31.5713L77.4841 31.4141L77.538 30.9212L77.529 31.0784L77.529 31.03L77.538 30.3617L77.9846 29.9202L78.0326 29.8719L77.577 30.9817L77.577 30.9333L77.577 30.8274L77.586 30.7609L77.6399 30.3194L77.631 30.4918L77.6339 30.2952L77.6369 30.147L77.6549 30.0382L77.7598 29.4485L77.7389 29.7025L77.7389 29.6541L77.7389 29.5695L77.7419 29.5241L77.7988 28.9344L77.7928 29.0645L77.7928 28.9798L77.7988 28.8165C77.8048 28.7046 77.8168 28.6169 77.8258 28.5474C77.8438 28.4082 77.8528 28.3447 77.8498 28.3689L77.8587 27.7339L77.8797 26.1826L79.3784 26.2007L79.4264 26.2007L77.9067 27.7339L77.9157 27.0596L77.9127 26.4155C77.9097 25.9921 77.9187 25.5657 77.8857 25.1454C77.8617 24.722 77.8498 24.2987 77.7958 23.8783C77.7508 23.458 77.7179 23.0346 77.6459 22.6173C77.4031 20.9421 77.0165 19.2789 76.459 17.6671C75.8955 16.0583 75.1881 14.4889 74.3278 13.0011C73.4616 11.5163 72.4575 10.0981 71.3125 8.79474C70.1675 7.48838 68.8846 6.29694 67.4908 5.23854C66.091 4.19225 64.5804 3.27901 62.9858 2.53511C59.8295 1.05034 56.2926 0.285271 52.7587 0.303415ZM52.7557 0.00101717C56.3316 -0.0292226 59.9134 0.614884 63.2765 1.92124C64.961 2.56535 66.5886 3.37577 68.1263 4.34647C69.6729 5.30507 71.1296 6.42394 72.4725 7.68192C75.1551 10.1918 77.3792 13.2793 78.8479 16.7387C79.5852 18.4654 80.1517 20.2768 80.4994 22.1365C80.6013 22.5992 80.6613 23.0679 80.7272 23.5366C80.8022 24.0053 80.8351 24.4771 80.8771 24.9488C80.9281 25.4206 80.9431 25.8923 80.955 26.364L80.973 27.0656L80.982 27.7339L81 29.2489L79.4623 29.2671L79.4144 29.2671L80.9341 27.7339L80.94 28.4324C80.9341 28.6774 80.9101 28.8346 80.9011 28.9163C80.8981 28.9556 80.8981 28.9768 80.8981 28.9768L80.8981 28.9737C80.8981 28.9707 80.8981 28.9616 80.8981 28.9828L80.8981 29.0675L80.8981 29.1128L80.8921 29.1975L80.8501 29.7872L80.8561 29.6572L80.8561 29.7055L80.8561 29.8144L80.8381 29.9596L80.7482 30.5523L80.7692 30.2952L80.7722 30.4918L80.7722 30.5583L80.7632 30.6641L80.7182 31.1087L80.7272 30.9363L80.7272 30.9847L80.7362 31.6167L80.2746 32.0975L80.2267 32.1459L80.6823 31.0361L80.6823 31.0845L80.6823 31.145L80.6733 31.2417L80.6313 31.7376L80.6403 31.5804C80.6403 31.6651 80.6343 31.7376 80.6223 31.8314C80.6073 31.9342 80.5864 32.0189 80.5444 32.1368C80.4725 32.3485 80.3196 32.5934 80.1368 32.7628C79.9539 32.9382 79.7531 33.047 79.5852 33.1075C79.5013 33.1378 79.4174 33.1619 79.3394 33.1771C79.3005 33.1861 79.2585 33.1922 79.2166 33.1982C79.1626 33.2043 79.1536 33.2073 79.0277 33.2103L80.5924 31.6288L80.5954 31.8253L80.5984 31.9675L80.5654 32.1338L80.4725 32.6267L80.5024 32.3152L80.5024 32.3636L80.5024 32.5481L80.4545 32.7477L80.3106 33.3404L80.3586 32.9533L80.3586 33.0017L80.3616 33.3676L80.1937 33.7153L80.1458 33.8151L80.2746 33.4462L80.1817 33.8907L80.2177 33.546L80.2177 33.5944L80.2207 33.9603L80.0498 34.308L80.0019 34.4078L80.1697 33.6942L80.1697 33.7425L80.1697 33.9058L80.1308 34.0873L80.0378 34.5318L79.9989 34.7132L79.909 34.9007L79.861 35.0005L80.0289 34.2838L80.0289 34.3322L80.0318 34.6044L79.9329 34.8826L79.7411 35.4239L79.837 34.8735L79.837 34.9733L79.84 35.2213L79.7561 35.4783L79.6122 35.9228L79.6452 35.8049L79.5972 36.0015L79.3065 37.2141L78.0476 37.2231L77.9996 37.2231L79.5163 36.1224L79.3724 36.5669L79.4054 36.449L79.3574 36.6456L79.3394 36.7242L79.3035 36.821C79.2226 37.0447 79.1416 37.2685 79.0487 37.4983L79.1656 36.8935L79.1656 36.9419L79.1656 37.2715L79.0367 37.5769L78.8898 37.9247L78.767 38.215L78.5421 38.4388L78.4942 38.4872L78.9708 37.335L78.9708 37.3743L78.9708 37.4258C78.9678 37.5165 78.9618 37.5921 78.9408 37.6979C78.9078 37.8914 78.8149 38.1243 78.71 38.2815C78.6021 38.4509 78.5182 38.5295 78.4882 38.5628C78.4522 38.5991 78.4912 38.5658 78.5691 38.472C78.6021 38.4327 78.659 38.3571 78.698 38.2846C78.749 38.1999 78.7909 38.1122 78.8269 38.0124C78.8629 37.9126 78.8868 37.8219 78.9018 37.7251C78.9168 37.6314 78.9198 37.5618 78.9228 37.4772L78.7939 38.1152L78.6471 38.4599L78.6051 38.5597L78.5481 38.6565L78.4013 38.9015L78.6291 38.0668L78.6291 38.1152L78.6291 38.4448L78.5002 38.7533L78.3533 39.098L78.2964 39.2341L78.2124 39.3611L78.1165 39.5093L78.3863 38.6081L78.3863 38.7079L76.7797 40.3318C76.9086 40.3288 76.9116 40.3257 76.9655 40.3197C77.0045 40.3136 77.0435 40.3076 77.0824 40.3016C77.1574 40.2864 77.2353 40.2653 77.3162 40.235C77.4781 40.1745 77.6699 40.0717 77.8498 39.8994C78.0266 39.733 78.1735 39.4942 78.2454 39.2885C78.2844 39.1736 78.3054 39.092 78.3203 38.9952C78.3323 38.9075 78.3383 38.8379 78.3383 38.7593L78.1675 39.4851L77.9247 39.978L78.0955 39.2522L78.0955 39.3006L78.0955 39.7482L77.8647 40.1352L77.7299 40.362C77.6879 40.4346 77.631 40.5193 77.58 40.5949L77.8498 39.6937C77.8498 39.7089 77.8528 39.724 77.8408 39.8782C77.8318 39.9689 77.8168 40.0899 77.7598 40.2562C77.7089 40.4104 77.625 40.5646 77.568 40.6493C77.4421 40.8307 77.4001 40.861 77.3732 40.8942L77.3312 40.9396L77.6849 40.3983L77.589 40.6433L77.1843 41.6623L76.0933 41.6623L76.0453 41.6623L77.4871 40.7642L77.3402 41.0606L77.511 40.3378C77.5081 40.4709 77.5051 40.4769 77.4991 40.5344C77.4931 40.5767 77.4871 40.6191 77.4781 40.6614C77.4631 40.7431 77.4391 40.8277 77.4061 40.9154C77.3432 41.0908 77.2323 41.2964 77.0555 41.4869C76.8816 41.6775 76.6328 41.8317 76.417 41.9073C76.2971 41.9496 76.2102 41.9708 76.1053 41.9859C76.0124 42.001 75.9374 42.0041 75.8505 42.0071L77.2892 41.112L77.1424 41.4083L77.1004 41.493L77.0465 41.5746L76.8516 41.871L77.1214 40.9729L77.1214 41.0213L77.1214 41.5051L76.8486 41.9224C76.6958 42.1553 76.5369 42.382 76.378 42.6028L76.6778 41.6593L76.6778 41.7077L76.6748 42.255L76.3541 42.6814L76.0603 43.0745L76.381 42.1038L76.378 42.2097L76.3721 42.3034C76.3661 42.3518 76.3571 42.4153 76.3421 42.4818C76.3301 42.5332 76.3181 42.5847 76.3001 42.6361L76.2701 42.7207C76.2551 42.76 76.2372 42.7994 76.2192 42.8387C76.1592 42.9717 76.0244 43.1834 75.8655 43.3286C75.7876 43.4042 75.6976 43.4707 75.6077 43.5281C75.5268 43.5765 75.4638 43.6098 75.3859 43.643C75.299 43.6793 75.257 43.6914 75.2091 43.7066C75.1641 43.7217 75.1042 43.7338 75.0682 43.7398C75.0172 43.7489 74.9393 43.761 74.9123 43.764L74.8254 43.7701L74.7265 43.7731L76.2492 42.6663L76.2012 42.8145L76.0783 43.1804L75.8145 43.4435L75.6197 43.64L76.0873 42.497L76.0873 42.5453L76.0843 43.1169L75.7396 43.5523L75.5448 43.8003L75.8925 42.7933L75.8925 42.8417L75.8895 43.4162L75.5418 43.8517L75.3469 44.0966L74.097 44.7014C74.175 44.7014 74.2439 44.6954 74.3308 44.6833C74.4268 44.6682 74.5107 44.647 74.6216 44.6077C74.8254 44.5351 75.0622 44.3869 75.2241 44.2085C75.3919 44.0301 75.4938 43.8366 75.5538 43.6733C75.5837 43.5916 75.6047 43.513 75.6197 43.4404C75.6257 43.4042 75.6347 43.3648 75.6377 43.3255C75.6437 43.2711 75.6467 43.2681 75.6497 43.1411L75.296 44.1511L75.0982 44.396L75.4519 43.386L75.4519 43.4344L75.4489 44.0089L75.1012 44.4444L74.9063 44.6893L73.6594 45.2941C73.7374 45.2941 73.8063 45.2881 73.8932 45.276C73.9891 45.2609 74.0701 45.2397 74.184 45.2004C74.3878 45.1308 74.6216 44.9827 74.7834 44.8043C74.9513 44.6258 75.0532 44.4323 75.1132 44.269C75.1431 44.1874 75.1641 44.1087 75.1791 44.0362C75.1851 43.9999 75.1941 43.9606 75.1971 43.9213C75.2031 43.8668 75.2061 43.8638 75.2091 43.7368L74.8044 44.8043L74.4118 45.2458L74.8134 44.1753L74.8134 44.2236L74.8104 44.895L74.3488 45.3576L74.0551 45.654L74.5197 44.523C74.5167 44.6561 74.5137 44.6621 74.5077 44.7196C74.5017 44.7619 74.4957 44.8043 74.4867 44.8466C74.4687 44.9282 74.4477 45.0129 74.4148 45.1006C74.3488 45.276 74.2379 45.4816 74.0611 45.6691C73.8872 45.8566 73.6414 46.0078 73.4316 46.0804C73.3147 46.1227 73.2278 46.1408 73.1289 46.159C73.036 46.1741 72.964 46.1771 72.8801 46.1771L74.124 45.5754L73.9262 45.8203L73.8632 45.8989L73.8123 45.9503L73.5635 46.1953L73.6864 46.0562C73.0899 46.8031 72.4695 47.5137 71.849 48.2032L70.9168 49.2253C70.5961 49.5852 70.2694 49.8876 69.9487 50.2232L66.0611 54.1393L66.094 52.0799C66.6006 52.6394 67.0232 53.2956 67.302 54.0334C67.5837 54.7652 67.7126 55.5878 67.6557 56.38C67.6017 57.1723 67.3739 57.9525 66.9933 58.645C66.6156 59.3375 66.088 59.9423 65.4586 60.411L65.4766 58.2035C66.0431 58.6571 66.5406 59.2316 66.8973 59.8939C67.257 60.5561 67.4668 61.3061 67.5178 62.0439L67.3829 61.5571C67.5268 61.8655 67.5358 62.053 67.5538 62.1891C67.5658 62.3282 67.5658 62.4189 67.5658 62.4915C67.5628 62.6245 67.5538 62.7939 67.5448 62.9421C67.5328 63.0963 67.5088 63.2475 67.4878 63.3987C67.4608 63.5499 67.4249 63.7011 67.3919 63.8493C67.239 64.445 66.9843 65.0135 66.6456 65.5185C65.9712 66.5345 64.949 67.3117 63.7921 67.6625L64.4125 67.2059C63.828 68.0012 63.0727 68.6634 62.2604 69.1503C61.4451 69.6402 60.5849 69.9758 59.7306 70.2087L60.486 69.3801C60.2821 70.2299 59.9254 71.0463 59.4339 71.7691C59.1881 72.1289 58.9093 72.4676 58.6006 72.773C58.4477 72.9272 58.2859 73.0724 58.118 73.2085C57.9562 73.3385 57.7943 73.4625 57.6294 73.5834C56.2447 74.5965 54.5362 75.0501 52.9026 74.9956C51.269 74.9503 49.6294 74.4029 48.3466 73.3657C47.0517 72.3497 46.1585 70.8619 45.8168 69.2833L46.2034 69.6976C45.4002 69.4194 44.6028 69.0807 43.8715 68.5999C43.1401 68.1252 42.4747 67.5083 41.9711 66.7734L42.2169 66.9549C41.4316 66.6706 40.7362 66.1838 40.1967 65.5578C39.6662 64.9258 39.2915 64.1547 39.1506 63.3322C39.0157 62.5127 39.0937 61.6539 39.4054 60.8827C39.7051 60.1086 40.2207 59.4252 40.8771 58.9202L40.8771 59.658C40.3376 59.2498 39.888 58.7236 39.5732 58.1218C39.2555 57.5201 39.0787 56.8427 39.0547 56.1593C39.0217 55.4728 39.1566 54.7773 39.4324 54.1483C39.7081 53.5194 40.1218 52.9508 40.6433 52.4942L40.5834 53.3137C40.1278 52.8238 39.6782 52.3309 39.2106 51.8531C38.746 51.3723 38.2754 50.8976 37.8048 50.4258C37.3312 49.9541 36.8546 49.4884 36.375 49.0257L35.6497 48.3363L34.9333 47.7587L34.9153 47.7436L34.8674 47.6982L34.6156 47.4623L34.6576 47.5016C33.8632 46.8575 33.1229 46.159 32.4155 45.4453L32.4155 45.4453L32.3706 45.3939L32.1667 45.155L32.2387 45.2337L32.1877 45.1853L32.1817 45.1792L32.1278 45.1187L31.873 44.8315L31.9329 44.898L31.858 44.8254L31.804 44.768L31.6961 44.6531L31.4833 44.4232L31.2555 44.1783L31.2405 43.7731L31.2375 43.7247L32.2177 44.7135C32.1188 44.7135 32.0079 44.7014 31.867 44.6531C31.7321 44.6077 31.5792 44.5109 31.4713 44.393C31.3604 44.2751 31.2915 44.1481 31.2525 44.0392C31.2315 43.9848 31.2166 43.9303 31.2076 43.8789L31.1956 43.8003C31.1926 43.764 31.1896 43.761 31.1866 43.6793L31.4024 44.2992L31.1986 44.0604L31.2705 44.142L31.2196 44.0936L31.2046 44.0815L31.1446 44.012L30.9408 43.7731L30.734 43.5312L30.719 43.138L30.716 43.0897L30.9378 43.7277L30.734 43.4888L31.5313 43.8759C31.4474 43.8759 31.4414 43.8729 31.4054 43.8668C31.3784 43.8638 31.3514 43.8577 31.3245 43.8547C31.2705 43.8456 31.2166 43.8305 31.1596 43.8094C31.0457 43.767 30.9138 43.6975 30.7939 43.5795C30.674 43.4677 30.5721 43.3074 30.5242 43.1653C30.4732 43.0171 30.4612 42.8991 30.4582 42.7963L30.68 43.4404L30.4762 43.1985L30.2664 42.9506L30.2514 42.5484L30.2484 42.5L30.4552 43.129L30.3024 42.9385L30.0925 42.3064C30.0925 42.4002 30.1045 42.5091 30.1525 42.6512C30.1975 42.7842 30.2964 42.9385 30.4103 43.0443C30.5242 43.1532 30.6471 43.2197 30.752 43.256C30.8029 43.2741 30.8509 43.2892 30.8988 43.2983L30.9708 43.3104C31.0037 43.3134 31.0067 43.3165 31.0877 43.3165L30.1495 42.7298L30.0985 42.633L30.2994 42.9143L30.2484 42.8659L30.1855 42.8084L30.0955 42.6723L29.8378 42.2883L30.746 42.7963C30.6381 42.7963 30.5212 42.7842 30.3683 42.7298C30.2244 42.6814 30.0566 42.5786 29.9367 42.4516C29.8138 42.3246 29.7389 42.1825 29.6939 42.0645C29.6699 42.0041 29.6549 41.9466 29.6429 41.8891C29.6369 41.8619 29.6309 41.8317 29.628 41.8014C29.625 41.7621 29.622 41.7561 29.619 41.6654L29.7598 42.2006L29.553 41.8619L30.5002 42.4153L30.4522 42.4153L29.8108 42.4335L29.4751 41.8045L29.3192 41.5142L30.3054 42.128C30.1945 42.128 30.0716 42.1159 29.9127 42.0585C29.7628 42.0071 29.592 41.8982 29.4721 41.7682C29.3492 41.6381 29.2713 41.493 29.2263 41.372C29.2023 41.3116 29.1873 41.2511 29.1753 41.1936C29.1694 41.1664 29.1634 41.1362 29.1604 41.1059C29.1574 41.0666 29.1544 41.0606 29.1514 40.9698L29.2683 41.4658L29.1124 41.1725L30.1075 41.7924L30.0596 41.7924L29.4031 41.8105L29.0614 41.1694L28.9026 40.9003L28.7827 40.3923C28.7797 40.5283 28.8187 40.7431 28.9146 40.9094C29.0075 41.0757 29.0974 41.1513 29.0884 41.1452C29.0854 41.1392 28.9805 41.0485 28.8786 40.864C28.7737 40.6796 28.7287 40.4467 28.7317 40.2925L28.8936 40.8761L28.5879 40.3923L28.426 39.7996C28.423 39.9387 28.465 40.1564 28.5579 40.3257C28.6508 40.4951 28.7437 40.5737 28.7347 40.5677C28.7317 40.5616 28.6238 40.4709 28.5219 40.2834C28.417 40.0959 28.3691 39.8601 28.375 39.6998L28.4949 40.2169L28.2881 39.8298L28.1652 39.3067C28.1652 39.4095 28.1772 39.5274 28.2282 39.6816C28.2791 39.8268 28.381 39.9992 28.5099 40.1171C28.6358 40.2411 28.7767 40.3167 28.8906 40.359C28.9475 40.3802 29.0045 40.3953 29.0584 40.4074C29.0854 40.4134 29.1124 40.4165 29.1424 40.4225C29.1813 40.4255 29.1843 40.4286 29.2773 40.4316L28.2402 39.7845L27.9794 39.2976L27.8655 39.0829L27.8565 38.7654L27.8565 38.717L27.9404 39.1585L27.8355 38.9166L28.9386 39.6695L28.8906 39.6695L28.1293 39.6937L27.7966 38.9438C27.7096 38.7503 27.6167 38.5597 27.5148 38.3783L27.5028 38.3602L27.4638 38.2634L27.305 37.8733L27.5867 38.3118L27.5358 38.2634L27.1941 37.9368L27.1791 37.3895L27.1791 37.3411L27.257 37.7765L27.1012 37.3864L27.3829 37.8279L27.332 37.7796L27.1671 37.6193L27.0592 37.3622C27.0022 37.2262 26.9453 37.0931 26.8883 36.948C26.8314 36.8058 26.7744 36.6667 26.7235 36.5095L26.6635 36.3311L26.6575 36.1103L26.6575 36.0619L26.7235 36.4641L26.5676 36.0257L26.6366 36.195L26.5347 36.0015L26.4747 35.8835L26.4297 35.7021L26.3218 35.2606L27.5718 36.2736C27.5178 36.2736 27.4608 36.2706 27.4069 36.2645C27.3469 36.2585 27.269 36.2404 27.2001 36.2222C27.1251 36.201 27.0382 36.1648 26.9633 36.1254C26.8794 36.0801 26.7984 36.0257 26.7235 35.9652C26.6516 35.9047 26.5826 35.8321 26.5317 35.7686C26.5047 35.7353 26.4807 35.6991 26.4567 35.6658C26.4357 35.6356 26.4208 35.6053 26.4028 35.5751C26.3338 35.4481 26.3069 35.3543 26.2859 35.2727C26.2469 35.1154 26.2439 35.0368 26.2409 34.9794L26.2379 34.8826L26.3158 35.3271L26.112 34.7888L26.0371 34.5923L26.0341 34.3413L26.0311 34.1931L26.097 34.6074L25.9442 34.1659L25.8812 33.9814L25.8782 33.7486L25.8782 33.7002L25.9442 34.1145L25.8932 33.9693L25.8782 33.924L25.8573 33.8393L25.7523 33.3948L25.7224 33.2738L25.7194 33.1105L25.7194 33.0107L27.0322 34.3352L26.9453 34.3322L26.8704 34.3262C26.8374 34.3232 26.7774 34.3141 26.7325 34.305C26.6905 34.2959 26.6486 34.2838 26.6066 34.2717L26.5407 34.2476C26.5077 34.2355 26.4777 34.2234 26.4447 34.2082C26.3758 34.175 26.3338 34.1538 26.2529 34.1024C26.178 34.051 26.109 33.9935 26.0461 33.93C25.9831 33.8665 25.9262 33.794 25.8782 33.7184C25.8303 33.6428 25.8063 33.5944 25.7763 33.5278C25.7643 33.4976 25.7493 33.4613 25.7404 33.4341L25.7194 33.3736C25.7074 33.3343 25.6954 33.2889 25.6894 33.2527C25.6804 33.2103 25.6714 33.1468 25.6684 33.1166L25.6624 33.041L25.6594 32.9533L25.6774 33.171L25.5725 32.5813L25.5575 32.4906L25.5545 32.3606L25.5545 32.3122L25.6115 32.6963L25.4616 32.2064L25.4076 32.028L25.4046 31.8193L25.4016 31.5744L25.4286 31.8374L25.3267 31.3445L25.3027 31.2236L25.3027 31.0814L25.3027 30.9847L25.3297 31.2508L25.2278 30.7579L25.2038 30.6369L25.2038 30.4918L25.2008 30.2468L25.2218 30.4887L25.1199 29.9475L25.0989 29.8386L25.0989 29.7055L25.0989 29.6572L25.1049 29.769L25.054 29.1794L25.048 29.1249L25.048 29.0645L25.048 29.0161L25.051 29.1189L25.003 28.4778L25 28.4264L25 28.375L25 27.0202C25.006 26.5546 25.024 26.0737 25.039 25.602C25.0689 25.1272 25.1139 24.6555 25.1529 24.1838C25.2068 23.712 25.2728 23.2433 25.3387 22.7746C25.6414 20.9027 26.142 19.0642 26.8374 17.3103C28.2312 13.7994 30.3863 10.6333 33.039 8.05387C34.3638 6.76263 35.8115 5.60747 37.3522 4.61561C38.8839 3.61467 40.5114 2.77098 42.196 2.09663C45.556 0.729795 49.1559 0.028233 52.7557 0.00101717Z" id="Shape" fill="#02316B" stroke="none" />
    <path d="M41 32.2591C42.2793 32.0614 43.6783 31.882 45.1417 31.7118C46.6082 31.5445 48.1391 31.3864 49.7161 31.2678C51.293 31.1492 52.9098 31.0611 54.5328 31.0185C56.1557 30.9698 57.7971 31.0185 59.4016 31.1492L61 31.28L60.5889 32.6057C60.0551 34.3267 59.4261 36.0264 58.8862 37.7444C58.3432 39.4623 57.9106 41.2046 57.567 42.9652C57.2172 44.7257 56.9595 46.5045 56.7509 48.2954C56.5392 50.0863 56.3336 51.8742 56.0637 53.653L55.9225 54.5895L54.8027 54.6594C53.5418 54.7385 52.2809 54.775 51.0169 54.8297C49.7559 54.8784 48.495 54.9301 47.231 54.9666L46.0775 55L45.697 53.8202C45.1019 51.9837 44.5558 50.1046 44.0894 48.2224C43.617 46.3403 43.1967 44.4612 42.8224 42.6185C42.4481 40.7759 42.1167 38.9698 41.813 37.2305C41.5216 35.4973 41.2332 33.8189 41 32.2591ZM41.2454 32.4415L43.4881 37.9846C44.2029 39.7512 44.8902 41.4509 45.5344 43.1141C46.1818 44.7774 46.777 46.4011 47.3231 48.0248C47.8722 49.6485 48.3447 51.2752 48.7681 52.9445L47.231 51.7982C48.4919 51.8347 49.7529 51.8864 51.0169 51.935C52.2778 51.9867 53.5387 52.0263 54.8027 52.1053L53.5418 53.1118C54.0388 51.3847 54.5972 49.6698 55.1555 47.9548C55.7139 46.2399 56.2232 44.5128 56.6404 42.7675C57.0638 41.0222 57.3982 39.2617 57.6191 37.4738C57.8492 35.6889 57.9842 33.8828 58.2174 32.0979L59.4016 33.5544C57.9597 33.6851 56.5545 33.7338 55.131 33.6851C53.7075 33.6426 52.2778 33.5544 50.8083 33.4358C49.3387 33.3172 47.8231 33.1591 46.2431 32.9919L41.2454 32.4415Z" id="Shape" fill="#02316B" stroke="none" />
    <path d="M41 52.3605C41.5 52.0871 42 51.9057 42.5 51.7523C43 51.6016 43.5 51.4928 44 51.4147C44.5 51.3337 45 51.2835 45.5 51.2584C46 51.2305 46.5 51.2417 47 51.3393C48 51.5207 49 51.9699 50 52.0536C51 52.1457 52 52.0089 53 51.7383C53.5 51.61 54 51.4733 54.5 51.3784C55 51.2807 55.5 51.2361 56 51.1831C57 51.0771 58 50.9655 59 51.0101C60 51.0547 61 51.1915 62 51.3979C63 51.6128 64 51.8862 65 52.3605L65 52.6395C64 53.1138 63 53.3872 62 53.6021C61 53.8085 60 53.9453 59 53.9899C58 54.0345 57 53.9229 56 53.8169C55.5 53.7639 55 53.7193 54.5 53.6216C54 53.5267 53.5 53.39 53 53.2617C52 52.9911 51 52.8543 50 52.9464C49 53.0301 48 53.4821 47 53.6607C46.5 53.7555 46 53.7695 45.5 53.7416C45 53.7137 44.5 53.6663 44 53.5853C43.5 53.5044 43 53.3984 42.5 53.2477C42 53.0943 41.5 52.9129 41 52.6395L41 52.3605Z" id="Path" fill="#02316B" stroke="none" />
    <path d="M41 58.3605C41.4785 58.0871 41.957 57.9057 42.4384 57.7523C42.9169 57.6016 43.3954 57.4928 43.8768 57.4147C44.3553 57.3337 44.8338 57.2835 45.3153 57.2584C45.7937 57.2305 46.2722 57.2417 46.7537 57.3393C47.7107 57.5207 48.6706 57.9699 49.6276 58.0536C50.5846 58.1457 51.5445 58.0089 52.5015 57.7383C52.98 57.61 53.4585 57.4733 53.9399 57.3784C54.4184 57.2807 54.8969 57.2361 55.3783 57.1831C56.3353 57.0771 57.2952 56.9655 58.2522 57.0101C59.2092 57.0547 60.1691 57.1915 61.1261 57.3979C62.0831 57.6128 63.043 57.8862 64 58.3605L64 58.6395C63.043 59.1138 62.0831 59.3872 61.1261 59.6021C60.1691 59.8085 59.2092 59.9453 58.2522 59.9899C57.2952 60.0345 56.3353 59.9229 55.3783 59.8169C54.8998 59.7639 54.4213 59.7193 53.9399 59.6216C53.4614 59.5267 52.9829 59.39 52.5015 59.2617C51.5445 58.9911 50.5846 58.8543 49.6276 58.9464C48.6706 59.0301 47.7107 59.4821 46.7537 59.6607C46.2752 59.7555 45.7967 59.7695 45.3153 59.7416C44.8368 59.7137 44.3583 59.6663 43.8768 59.5853C43.3983 59.5044 42.9198 59.3984 42.4384 59.2477C41.9599 59.0943 41.4814 58.9129 41 58.6395L41 58.3605Z" id="Path" fill="#02316B" stroke="none" />
    <path d="M42 66.3605C42.4366 66.0871 42.8731 65.9057 43.3127 65.7523C43.7493 65.6016 44.1858 65.4928 44.6254 65.4147C45.0619 65.3337 45.5015 65.2807 45.9381 65.2584C46.3746 65.2305 46.8142 65.2417 47.2507 65.3393C48.1269 65.5207 49 65.9699 49.8761 66.0536C50.7522 66.1457 51.6254 66.0089 52.5015 65.7383C52.9381 65.61 53.3746 65.4733 53.8142 65.3784C54.2507 65.2807 54.6873 65.2361 55.1269 65.1831C56 65.0771 56.8761 64.9655 57.7493 65.0101C58.6254 65.0547 59.4985 65.1915 60.3746 65.3979C61.2507 65.6128 62.1239 65.8862 63 66.3605L63 66.6395C62.1239 67.1138 61.2507 67.3872 60.3746 67.6021C59.4985 67.8085 58.6254 67.9453 57.7493 67.9899C56.8761 68.0345 56 67.9229 55.1269 67.8169C54.6903 67.7639 54.2507 67.7193 53.8142 67.6216C53.3776 67.5267 52.9381 67.39 52.5015 67.2617C51.6254 66.9911 50.7522 66.8543 49.8761 66.9464C49 67.0301 48.1269 67.4821 47.2507 67.6607C46.8142 67.7555 46.3776 67.7695 45.9381 67.7416C45.5015 67.7165 45.0649 67.6635 44.6254 67.5853C44.1888 67.5044 43.7522 67.3984 43.3127 67.2477C42.8761 67.0943 42.4366 66.9129 42 66.6395L42 66.3605Z" id="Path" fill="#02316B" stroke="none" />
    <path d="M53.6368 52.6975C53.2893 52.9586 52.7819 53.2102 52.1917 53.4236C51.8966 53.5287 51.5794 53.6274 51.2512 53.7006C50.923 53.7803 50.5838 53.8376 50.2418 53.879L49.282 54L49.1193 52.5828C49.0724 52.172 49.0366 51.7611 49.02 51.3471C48.998 50.9363 48.9869 50.5255 49.0256 50.1115C49.0862 49.2898 49.3262 48.465 49.533 47.6433C49.7426 46.8217 49.8585 45.9968 49.8254 45.1752C49.8116 44.3535 49.6792 43.5287 49.4889 42.707L49.3482 42.1019L50.2418 41.8344C50.7906 41.672 51.3422 41.5 51.8911 41.3885C52.4399 41.2771 52.9915 41.2325 53.5403 41.1592L54.74 41L54.8779 42.7038C54.9524 43.6178 55.0158 44.5573 54.9965 45.4936C54.9772 46.4299 54.8862 47.3503 54.7566 48.2261C54.6297 49.1019 54.4697 49.9363 54.2794 50.6943C54.0919 51.4522 53.885 52.1433 53.6368 52.6975ZM53.4438 52.4713C53.1983 51.379 52.9887 50.4236 52.8012 49.5318C52.6109 48.6433 52.4509 47.8312 52.3241 47.0605C52.1972 46.2898 52.1034 45.5637 52.0841 44.8535C52.0648 44.1433 52.1282 43.4395 52.2027 42.7038L53.5403 44.2484C52.9915 44.1752 52.4399 44.1306 51.8911 44.0191C51.3422 43.9076 50.7906 43.7389 50.2418 43.5732L50.9975 42.7006C50.8072 43.5223 50.6748 44.3471 50.661 45.1688C50.6307 45.9904 50.7465 46.8153 50.9534 47.6369C51.1602 48.4586 51.4001 49.2834 51.4608 50.1051C51.4967 50.5159 51.4856 50.9268 51.4663 51.3408C51.447 51.7516 51.4139 52.1624 51.3671 52.5764L50.2446 51.2803C50.4542 51.3217 50.6638 51.379 50.8844 51.4586C51.105 51.5318 51.3367 51.6306 51.5932 51.7357C52.0979 51.9586 52.6909 52.2102 53.4438 52.4713Z" id="Shape" fill="#02316B" stroke="none" />
    <path d="M48 43.3605C48.334 42.8307 48.6679 42.5798 48.9989 42.4153C49.1658 42.3317 49.3328 42.2843 49.4998 42.2592C49.6668 42.2313 49.8338 42.2424 50.0008 42.34C50.3347 42.5213 50.6687 42.9702 50.9996 43.0538C51.3336 43.1514 51.6676 43.0064 51.9985 42.7387C52.1655 42.6105 52.3324 42.4739 52.4994 42.3791C52.6664 42.2815 52.8334 42.2369 53.0004 42.1839C53.3343 42.0779 53.6683 41.9636 53.9992 42.011C54.3332 42.0556 54.6672 42.1923 54.9981 42.3986C55.1651 42.5045 55.3321 42.6244 55.4991 42.7861C55.666 42.9395 55.833 43.1151 56 43.3605L56 43.6393C55.833 43.8819 55.666 44.0603 55.4991 44.2137C55.3321 44.3754 55.1651 44.4953 54.9981 44.6012C54.6641 44.8076 54.3302 44.9442 53.9992 44.9888C53.6653 45.0362 53.3313 44.9247 53.0004 44.8159C52.8334 44.7629 52.6664 44.7183 52.4994 44.6208C52.3324 44.526 52.1655 44.3893 51.9985 44.2611C51.6645 43.9934 51.3306 43.8484 50.9996 43.946C50.6657 44.0297 50.3317 44.4813 50.0008 44.6598C49.8338 44.7546 49.6668 44.7685 49.4998 44.7406C49.3328 44.7128 49.1658 44.6682 48.9989 44.5845C48.6649 44.4172 48.3309 44.1663 48 43.6393L48 43.3605Z" id="Path" fill="#02316B" stroke="none" />
    <path d="M51.3708 73.7971C50.3758 84.7997 50.4002 95.8634 49.5878 106.878C49.1952 112.207 48.7236 117.633 47.5552 122.855C47.2783 124.087 46.8645 125.286 46.0795 126.287C45.4284 127.122 44.546 127.77 43.621 128.269C41.5915 129.367 39.3155 129.881 37.067 130.312C31.1489 131.444 25.1426 132.138 19.1241 132.364C14.5022 132.539 8.6328 132.86 5.00284 129.404C1.75626 126.314 1.55848 121.383 1.95099 117.199C2.4926 111.46 3.81314 105.74 5.68136 100.296C6.99582 96.463 8.9249 92.4834 12.2993 90.0761C14.0701 88.8129 16.2396 88.1858 18.406 88.2806C21.184 88.3999 23.8099 89.4919 26.2684 90.7246C35.9442 95.579 44.5003 102.529 52.2501 110.041C53.6437 111.39 55.0373 112.736 56.2817 114.226C57.441 115.614 58.5364 117.061 59.6348 118.499C62.1024 121.729 64.5579 125.002 67.3968 127.92C69.618 130.205 72.3746 132.793 75.7034 133.095C79.1234 133.408 81.9501 131.159 84.1317 128.773C86.6511 126.017 88.6927 122.842 91.3003 120.166C91.9059 119.545 92.5418 118.951 93.2264 118.419C94.0266 117.798 94.9151 117.324 95.7792 116.801C98.0765 115.412 100.371 113.898 102.166 111.87C103.709 110.127 104.889 107.82 104.77 105.435C104.64 102.868 102.841 101.128 100.681 100.02C96.0074 97.6284 90.421 96.8882 85.2423 97.3653C82.6134 97.607 80.024 98.2096 77.5564 99.1456C75.0309 100.103 72.6941 101.467 70.4364 102.939C68.1848 104.407 66.0215 106.003 63.7546 107.447C61.5304 108.863 59.1997 110.105 56.7807 111.158C47.1171 115.373 36.3641 116.657 25.9063 116.403C24.6131 116.373 23.323 116.315 22.0329 116.238C20.6546 116.159 19.2519 116.079 17.8796 116.281C15.4363 116.639 13.4951 118.061 12.3419 120.239C11.2374 122.331 10.8114 124.757 10.5619 127.091C10.2911 129.651 10.3398 132.254 10.6836 134.805C11.3804 139.981 13.3399 144.942 16.2883 149.237C17.7488 151.363 19.5531 153.241 21.613 154.786C22.3098 155.306 23.1192 156.003 23.9498 156.288C24.248 156.388 24.5736 156.379 24.8809 156.336C26.4236 156.116 27.951 155.156 29.2837 154.406C31.5931 153.106 33.8295 151.675 36.0507 150.234C41.3024 146.824 46.4477 143.26 51.6751 139.81C53.5707 138.559 55.4967 137.289 57.5353 136.121C58.1652 135.76 58.8041 135.399 59.4735 135.117C59.58 135.072 59.6926 135.038 59.7961 134.992C59.9786 134.909 59.5648 135.029 59.7504 135.007C59.793 135.001 59.8478 134.986 59.8873 134.974C60.1186 134.891 59.9786 135.023 59.8873 134.958C60.0638 135.081 60.4837 135.062 60.7028 135.117C62.0507 135.448 63.2252 135.986 64.2567 136.91C65.0478 137.62 65.6624 138.58 66.1219 139.663C66.5813 140.746 66.843 141.868 67.0499 143.138C67.2538 144.404 67.3663 145.686 67.4728 146.964C67.6584 149.222 67.7406 151.65 68.6778 153.752C69.6088 155.838 71.5227 156.899 73.7652 156.847C75.749 156.801 77.669 156.159 79.5615 155.612C82.2878 154.822 84.9898 153.948 87.6856 153.054C92.9708 151.302 98.2317 149.463 103.62 148.044C108.793 146.683 114.099 145.71 119.458 145.624C119.214 145.453 118.968 145.279 118.724 145.108C120.605 150.204 116.865 155.529 112.663 158.071C107.326 161.301 100.806 161.989 94.7173 162.439C87.9351 162.94 81.1072 162.794 74.3494 162.035C70.8989 161.647 67.4698 161.099 64.0711 160.386C61.0497 159.753 58.0222 159.034 55.1133 157.988C52.4875 157.043 49.8707 155.783 47.8199 153.844C45.9517 152.076 44.6768 149.806 44.193 147.267C43.2254 142.192 45.2032 136.818 48.5806 133.044C52.4175 128.749 57.7666 126.091 63.1096 124.21C69.2285 122.056 75.6882 120.732 82.0961 119.808C88.8783 118.829 95.7366 118.422 102.583 118.6C104.287 118.643 105.991 118.722 107.691 118.838C109.277 118.945 110.88 119.037 112.444 119.331C114.866 119.787 117.163 121.077 117.599 123.702C117.985 126.027 117.008 128.474 115.736 130.373C114.172 132.71 111.933 134.6 109.733 136.31C105.129 139.886 100.103 142.844 95.9618 147.004C92.2771 150.705 89.1157 154.899 85.3336 158.505C83.4562 160.295 81.4206 161.943 79.1477 163.194C78.0311 163.809 76.8718 164.283 75.6851 164.745C74.751 165.106 73.9417 165.709 73.2875 166.467C72.1495 167.789 71.6353 169.499 71.0937 171.126C70.972 171.493 70.8472 171.86 70.7042 172.221C70.5551 172.6 70.4273 172.885 70.263 173.148C70.0683 173.466 69.9527 173.616 69.7518 173.79C69.6971 173.836 69.6423 173.882 69.5845 173.925C69.4567 174.023 69.767 173.824 69.5328 173.961C69.4567 174.004 69.3776 174.041 69.2985 174.081C69.2437 174.105 69.1889 174.127 69.1342 174.148C69.2224 174.124 69.2133 174.124 69.1037 174.154C68.197 174.387 67.1747 174.075 66.2101 173.873C64.8226 173.582 63.4473 173.236 62.0903 172.836C59.6439 172.111 57.2584 171.19 54.9886 170.019C52.7461 168.862 50.6344 167.44 48.6597 165.868C47.6587 165.069 46.685 164.231 45.7478 163.36C45.2336 162.879 44.6494 162.047 43.8857 161.946C41.8319 161.674 42.054 165.547 42.0388 166.73C41.9901 169.985 42.1514 173.24 42.197 176.494C42.2396 179.541 42.3157 182.676 41.7345 185.683C41.6858 185.931 41.7528 185.64 41.6919 185.872C41.6584 186.001 41.625 186.129 41.5854 186.258C41.5215 186.469 41.4394 186.668 41.3602 186.87C41.2659 187.108 41.3572 186.894 41.3268 186.943C41.2781 187.023 41.2203 187.099 41.1746 187.182C41.056 187.387 41.1959 187.145 41.1655 187.203C41.132 187.267 40.8399 187.445 41.1503 187.246C40.7395 187.512 40.487 187.977 40.7182 188.463C40.9099 188.864 41.5124 189.167 41.9292 188.898C42.8116 188.329 43.192 187.365 43.4293 186.371C43.761 184.982 43.8796 183.551 43.9496 182.125C44.12 178.574 43.977 175.011 43.8948 171.459C43.8583 169.912 43.8249 168.364 43.8492 166.816C43.8583 166.195 43.8796 165.571 43.9313 164.953C43.9496 164.727 43.9739 164.5 44.0044 164.274C44.0196 164.167 44.0378 164.063 44.0561 163.956C44.1017 163.653 44.0105 164.063 44.0744 163.864C44.0987 163.788 44.12 163.711 44.1443 163.635C44.1717 163.549 44.1748 163.408 44.1717 163.552C44.1687 163.659 44.1504 163.607 44.2082 163.512C44.1443 163.616 44.0318 163.681 44.0105 163.69C43.7549 163.815 43.5753 163.785 43.4202 163.665C43.4719 163.705 43.5845 163.834 43.4841 163.702C43.3076 163.479 43.7001 163.913 43.694 163.907C43.8735 164.078 44.0531 164.247 44.2326 164.418C46.2286 166.287 48.3342 168.036 50.6132 169.548C55.1681 172.564 60.2616 174.436 65.5681 175.595C67.482 176.014 69.6484 176.564 71.1758 174.946C72.3412 173.714 72.7124 171.946 73.2601 170.392C73.826 168.78 74.5837 167.217 76.2267 166.498C77.4195 165.978 78.6274 165.556 79.7806 164.932C80.9977 164.271 82.1661 163.509 83.2737 162.674C87.5852 159.429 90.9596 155.137 94.55 151.149C96.3939 149.099 98.326 147.123 100.456 145.374C102.838 143.416 105.403 141.7 107.914 139.917C110.393 138.155 112.846 136.32 114.967 134.126C116.838 132.19 118.429 129.966 119.123 127.317C119.75 124.913 119.628 122.255 117.985 120.27C116.019 117.896 112.782 117.422 109.904 117.177C102.805 116.572 95.6453 116.605 88.5467 117.229C81.6215 117.838 74.7328 119.022 68.0144 120.82C62.145 122.393 56.2848 124.519 51.3373 128.146C46.7459 131.511 43.2741 136.271 42.3522 141.991C41.9353 144.584 42.124 147.264 42.9942 149.745C43.9222 152.397 45.7144 154.63 47.9325 156.312C50.3119 158.117 53.1234 159.304 55.9501 160.2C59.1267 161.209 62.4037 161.937 65.6716 162.564C72.5724 163.892 79.6011 164.552 86.6267 164.552C90.1867 164.552 93.7467 164.387 97.2915 164.051C100.495 163.748 103.706 163.323 106.815 162.463C112.475 160.9 118.046 157.688 120.246 151.913C121.18 149.457 121.277 146.802 120.364 144.328C120.267 144.061 119.917 143.804 119.631 143.811C108.391 143.988 97.7661 147.802 87.214 151.305C84.5729 152.183 81.9227 153.042 79.2482 153.816C77.526 154.315 75.4052 155.043 73.75 155.033C73.4852 155.033 73.2205 155.021 72.9558 154.991C72.8219 154.975 72.6881 154.954 72.5542 154.926C72.5177 154.92 72.3838 154.887 72.5572 154.929C72.4842 154.911 72.4112 154.893 72.3381 154.868C72.1221 154.798 71.9091 154.718 71.7053 154.617C71.7722 154.651 71.7083 154.624 71.5835 154.541C71.474 154.464 71.3645 154.388 71.258 154.305C71.0815 154.174 71.2732 154.333 71.1819 154.241C71.1028 154.162 71.0267 154.082 70.9537 154C70.8807 153.914 70.8137 153.825 70.7438 153.736C70.7164 153.7 70.692 153.663 70.6646 153.626C70.5308 153.437 70.762 153.795 70.6433 153.596C70.403 153.189 70.2174 152.758 70.0652 152.311C70.0896 152.381 70.0531 152.284 70.0135 152.14C69.977 152.011 69.9435 151.886 69.9131 151.754C69.8462 151.488 69.7914 151.219 69.7397 150.947C69.6362 150.384 69.5601 149.815 69.4962 149.246C69.3593 148.023 69.2802 146.796 69.1676 145.572C68.9364 143.043 68.5986 140.403 67.4059 138.124C66.0458 135.524 63.6847 133.931 60.8641 133.297C60.0699 133.12 59.5587 133.126 58.8072 133.426C58.1591 133.683 57.5414 134.028 56.9329 134.374C52.2745 137.014 47.8808 140.158 43.4445 143.147C38.6461 146.38 33.8965 149.68 28.8729 152.553C28.024 153.039 27.166 153.51 26.2806 153.926C25.9489 154.082 25.6112 154.232 25.2673 154.357C25.2004 154.382 25.1304 154.406 25.0635 154.431C24.8322 154.52 25.2704 154.385 25.0422 154.437C24.9174 154.468 24.7957 154.504 24.6679 154.529C24.5066 154.556 24.3058 154.529 24.5979 154.553C24.4002 154.535 24.3667 154.501 24.5614 154.578C24.464 154.538 24.4002 154.483 24.6557 154.639C24.3697 154.464 24.0837 154.29 23.8038 154.104C23.247 153.736 22.7084 153.348 22.1851 152.935C20.1829 151.351 18.5095 149.405 17.1372 147.252C14.3835 142.93 12.7131 137.947 12.2962 132.829C12.0924 130.324 12.2202 127.791 12.6461 125.317C12.9991 123.264 13.5711 120.952 15.1442 119.475C17.0733 117.664 19.8422 117.951 22.2733 118.089C24.9265 118.239 27.5859 118.294 30.2452 118.239C35.5608 118.129 40.8795 117.606 46.0795 116.474C51.17 115.367 56.1631 113.687 60.791 111.271C65.5164 108.805 69.6088 105.343 74.2459 102.74C78.8465 100.155 83.9948 98.8611 89.2709 99.0813C91.8876 99.1884 94.4861 99.6411 96.972 100.473C99.0623 101.174 101.843 102.119 102.729 104.37C103.547 106.45 102.327 108.821 101.037 110.411C99.3879 112.448 97.0389 113.932 94.8208 115.266C93.1442 116.275 91.6046 117.275 90.2232 118.679C88.8966 120.028 87.7069 121.509 86.5355 122.995C84.4725 125.617 82.3852 128.749 79.4185 130.425C78.1315 131.153 76.7988 131.465 75.3352 131.211C74.0786 130.991 72.7519 130.177 71.6505 129.339C68.6047 127.018 66.1462 123.91 63.7912 120.915C61.5152 118.022 59.3944 114.981 56.9572 112.222C55.4876 110.558 53.8323 109.038 52.2227 107.511C50.2663 105.655 48.2642 103.844 46.2103 102.097C42.0935 98.595 37.7516 95.3435 33.148 92.514C30.8477 91.0978 28.4804 89.758 26.0402 88.5987C23.5543 87.4211 20.8371 86.4545 18.0561 86.4576C13.5133 86.4637 9.79512 89.0606 7.30617 92.7465C4.62858 96.7107 3.27458 101.464 2.10922 106.055C1.38201 108.928 0.788677 111.837 0.402252 114.776C0.0827664 117.199 -0.118053 119.643 0.076681 122.087C0.253159 124.28 0.782591 126.525 1.92361 128.422C3.15287 130.465 4.96633 131.982 7.15404 132.9C9.43303 133.857 11.9585 134.163 14.4109 134.24C17.2011 134.325 20.0065 134.178 22.7906 133.992C25.7998 133.79 28.7999 133.475 31.7879 133.05C34.4928 132.664 37.2222 132.245 39.8754 131.578C42.0905 131.019 44.333 130.236 46.1404 128.789C48.182 127.155 49.0157 124.852 49.5026 122.353C51.6081 111.567 51.8242 100.473 52.2684 89.5256C52.4814 84.3378 52.7096 79.147 53.1782 73.9745C53.2847 72.7968 51.4773 72.6255 51.3708 73.7971L51.3708 73.7971Z" id="Path" fill="#02316B" stroke="none" />
  </g>
</svg>