<?xml version="1.0" encoding="utf-8"?>
<svg width="226px" height="180px" viewBox="0 0 226 180" version="1.1" xmlns:xlink="http://www.w3.org/1999/xlink" xmlns="http://www.w3.org/2000/svg">
  <g id="Group-17">
    <path d="M0 155.906C4.7083 155.722 9.4166 155.599 14.1251 155.501L17.6563 155.427L21.1875 155.37C23.5417 155.334 25.8958 155.292 28.25 155.273L35.3124 155.204L42.3751 155.17C44.7292 155.152 47.0834 155.159 49.4375 155.165C51.7917 155.161 54.1458 155.199 56.5 155.22C65.9167 155.337 75.3333 155.643 84.7499 155.696C94.1667 155.76 103.583 155.663 113 155.487L120.063 155.36L123.594 155.297L127.125 155.248C131.833 155.183 136.542 155.149 141.25 155.114L155.375 155.02C157.729 155.002 160.083 155.001 162.437 155L169.5 155C178.917 155.046 188.333 155.111 197.75 155.262L204.812 155.379C207.167 155.418 209.521 155.467 211.875 155.521C216.583 155.623 221.292 155.743 226 155.906L226 156.094C221.292 156.257 216.583 156.377 211.875 156.479C209.521 156.533 207.167 156.582 204.812 156.621L197.75 156.738C188.333 156.889 178.917 156.954 169.5 157L162.437 157C160.083 156.999 157.729 156.998 155.375 156.98L141.25 156.886C136.542 156.851 131.833 156.817 127.125 156.752L123.594 156.703L120.063 156.64L113 156.513C103.583 156.337 94.1667 156.24 84.7499 156.304C75.3333 156.357 65.9167 156.663 56.5 156.78C54.1458 156.801 51.7917 156.839 49.4375 156.835C47.0834 156.841 44.7292 156.848 42.3751 156.83L35.3124 156.796L28.25 156.727C25.8958 156.708 23.5417 156.666 21.1875 156.63L17.6563 156.573L14.1251 156.499C9.4166 156.4 4.7083 156.278 0 156.094L0 155.906Z" id="Fill-1" fill="#02316B" fill-rule="evenodd" stroke="none" />
    <path d="M6.09376 0C6.27789 3.74998 6.40053 7.49997 6.49897 11.25L6.57285 14.0624L6.62966 16.8749C6.66585 18.7499 6.70786 20.6249 6.72661 22.4999L6.79655 28.1249L6.8303 33.75C6.84812 35.625 6.84099 37.5 6.83499 39.375C6.83874 41.25 6.80086 43.125 6.78042 45C6.66267 52.5 6.35665 59.9999 6.30396 67.4999C6.24039 75.0001 6.33733 82.5 6.51341 90L6.63979 95.625L6.70261 98.4375L6.75248 101.25C6.81736 105 6.85093 108.75 6.88618 112.5L6.97956 123.75C6.99813 125.625 6.9985 127.5 6.99963 129.375L7 135C6.95425 142.5 6.88899 150 6.73842 157.5L6.62104 163.125C6.58185 165 6.53253 166.875 6.47947 168.75C6.37709 172.5 6.25727 176.25 6.09376 180L5.90624 180C5.74273 176.25 5.6231 172.5 5.52053 168.75C5.46747 166.875 5.41815 165 5.37896 163.125L5.26177 157.5C5.11101 150 5.04575 142.5 5 135L5.00037 129.375C5.0015 127.5 5.00187 125.625 5.02044 123.75L5.11382 112.5C5.14926 108.75 5.18264 105 5.24752 101.25L5.29739 98.4375L5.36021 95.625L5.48678 90C5.66267 82.5 5.75961 75.0001 5.69604 67.4999C5.64335 59.9999 5.33733 52.5 5.21958 45C5.19914 43.125 5.16126 41.25 5.1652 39.375C5.15901 37.5 5.15207 35.625 5.1697 33.75L5.20364 28.1249L5.27339 22.4999C5.29214 20.6249 5.33415 18.7499 5.37034 16.8749L5.42734 14.0624L5.50103 11.25C5.59966 7.49997 5.7223 3.74998 5.90624 0L6.09376 0Z" id="Fill-3" fill="#02316B" fill-rule="evenodd" stroke="none" />
    <path d="M132.955 156.1C132.806 153.025 132.684 150.025 132.561 147.052L132.396 142.627L132.254 138.249L132.139 133.906C132.111 132.464 132.078 131.024 132.065 129.588C132.03 126.715 132.028 123.852 132.073 120.976L133.02 121.939L128.221 121.873L123.423 121.792C121.823 121.765 120.224 121.717 118.624 121.666L113.826 121.487L114.328 120.976C114.217 123.908 114.137 126.841 114.114 129.773C114.081 132.706 114.114 135.639 114.22 138.571C114.314 141.504 114.478 144.436 114.562 147.369C114.66 150.301 114.666 153.234 114.635 156.166L113.826 155.343L116.154 155.377L118.487 155.436L120.83 155.506L123.193 155.602C123.982 155.631 124.778 155.671 125.58 155.711L127.997 155.831L132.955 156.1ZM133.084 156.232C131.573 156.331 130.019 156.416 128.445 156.501C127.66 156.548 126.861 156.581 126.064 156.621C125.266 156.662 124.463 156.701 123.652 156.731L121.217 156.827L118.761 156.897L116.296 156.956L113.826 156.989L113.026 157L113.017 156.166C112.986 153.234 112.991 150.301 113.09 147.369C113.174 144.436 113.337 141.504 113.432 138.571C113.537 135.639 113.57 132.706 113.538 129.773C113.515 126.841 113.435 123.908 113.324 120.976L113.305 120.484L113.826 120.465L118.624 120.285C120.224 120.235 121.823 120.186 123.423 120.16L128.221 120.079L133.02 120.013L133.952 120L133.966 120.976C134.011 123.965 134.009 126.966 133.974 129.959C133.961 131.456 133.927 132.948 133.9 134.439L133.785 138.894L133.643 143.313L133.478 147.686C133.355 150.577 133.233 153.443 133.084 156.232L133.084 156.232Z" id="Fill-5" fill="#02316B" fill-rule="evenodd" stroke="none" />
    <path d="M53.986 155.402C53.7893 144.568 53.6355 133.844 53.4997 123.162C53.37 112.485 53.2502 101.852 53.1833 91.255C53.1546 85.9578 53.1057 80.6576 53.1103 75.375L53.1019 67.445L53.1236 59.5197L53.1926 43.659L53.2998 27.7784L54.051 28.5487L49.2446 28.495L44.4383 28.4304L34.826 28.2943L35.329 27.7784C35.1783 38.4194 35.0883 49.0602 35.109 59.701C35.1173 65.0214 35.1574 70.3418 35.227 75.6622L35.4668 91.6236L35.5725 99.6043L35.6374 107.585L35.6519 115.566L35.6265 123.546C35.5956 134.187 35.4946 144.828 35.3353 155.469L34.826 154.946L39.5514 155.035L44.3104 155.152L53.986 155.402ZM54.1159 155.535L44.5664 155.785L39.713 155.903L34.826 155.991L34.3245 156L34.3166 155.469C34.1573 144.828 34.056 134.187 34.0254 123.546L34 115.566L34.0143 107.585L34.0794 99.6043L34.1851 91.6236L34.4249 75.6622C34.4945 70.3418 34.5346 65.0214 34.5428 59.701C34.5636 49.0602 34.4736 38.4194 34.3229 27.7784L34.3157 27.2698L34.826 27.2627L44.4383 27.1266L49.2446 27.062L54.051 27.0083L54.7969 27L54.8021 27.7784L54.9092 43.8205L54.9783 59.8825L55 67.9184L54.9915 75.9496C54.9961 81.3079 54.9473 86.6486 54.9186 91.9922C54.8517 102.677 54.7319 113.326 54.6021 123.93C54.4663 134.53 54.3127 145.087 54.1159 155.535L54.1159 155.535Z" id="Fill-7" fill="#02316B" fill-rule="evenodd" stroke="none" />
    <path d="M92.986 157.402C92.7893 146.568 92.6355 135.844 92.4997 125.162C92.37 114.485 92.2502 103.852 92.1833 93.255C92.1546 87.9578 92.1057 82.6576 92.1103 77.375L92.1019 69.445L92.1236 61.5197L92.1926 45.659L92.2998 29.7784L93.051 30.5487L88.2446 30.495L83.4383 30.4304L73.826 30.2943L74.329 29.7784C74.1783 40.4194 74.0883 51.0602 74.109 61.701C74.1173 67.0214 74.1574 72.3418 74.227 77.6622L74.4668 93.6236L74.5725 101.604L74.6374 109.585L74.6519 117.566L74.6265 125.546C74.5956 136.187 74.4946 146.828 74.3353 157.469L73.826 156.946L78.5514 157.035L83.3104 157.152L92.986 157.402ZM93.1159 157.535L83.5664 157.785L78.713 157.903L73.826 157.991L73.3245 158L73.3166 157.469C73.1573 146.828 73.056 136.187 73.0254 125.546L73 117.566L73.0143 109.585L73.0794 101.604L73.1851 93.6236L73.4249 77.6622C73.4945 72.3418 73.5346 67.0214 73.5428 61.701C73.5636 51.0602 73.4736 40.4194 73.3229 29.7784L73.3157 29.2698L73.826 29.2627L83.4383 29.1266L88.2446 29.062L93.051 29.0083L93.7969 29L93.8021 29.7784L93.9092 45.8205L93.9783 61.8825L94 69.9184L93.9915 77.9496C93.9961 83.3079 93.9473 88.6486 93.9186 93.9922C93.8517 104.677 93.7319 115.326 93.6021 125.93C93.4663 136.53 93.3127 147.087 93.1159 157.535L93.1159 157.535Z" id="Fill-9" fill="#02316B" fill-rule="evenodd" stroke="none" />
    <path d="M167.986 156.402C167.789 145.568 167.636 134.844 167.5 124.162C167.37 113.485 167.25 102.852 167.183 92.255C167.155 86.9578 167.106 81.6576 167.11 76.375L167.102 68.445L167.124 60.5197L167.193 44.659L167.3 28.7784L168.051 29.5487L163.245 29.495L158.438 29.4304L148.826 29.2943L149.329 28.7784C149.178 39.4194 149.088 50.0602 149.109 60.701C149.117 66.0214 149.157 71.3418 149.227 76.6622L149.467 92.6236L149.572 100.604L149.637 108.585L149.652 116.566L149.627 124.546C149.596 135.187 149.495 145.828 149.335 156.469L148.826 155.946L153.551 156.035L158.31 156.152L167.986 156.402ZM168.116 156.535L158.566 156.785L153.713 156.903L148.826 156.991L148.325 157L148.317 156.469C148.157 145.828 148.056 135.187 148.025 124.546L148 116.566L148.014 108.585L148.079 100.604L148.185 92.6236L148.425 76.6622C148.495 71.3418 148.535 66.0214 148.543 60.701C148.564 50.0602 148.474 39.4194 148.323 28.7784L148.316 28.2698L148.826 28.2627L158.438 28.1266L163.245 28.062L168.051 28.0083L168.797 28L168.802 28.7784L168.909 44.8205L168.978 60.8825L169 68.9184L168.992 76.9496C168.996 82.3079 168.947 87.6486 168.919 92.9922C168.852 103.677 168.732 114.326 168.602 124.93C168.466 135.53 168.313 146.087 168.116 156.535L168.116 156.535Z" id="Fill-11" fill="#02316B" fill-rule="evenodd" stroke="none" />
    <path d="M207.986 155.402C207.789 144.568 207.636 133.844 207.5 123.162C207.37 112.485 207.25 101.852 207.183 91.255C207.155 85.9578 207.106 80.6576 207.11 75.375L207.102 67.445L207.124 59.5197L207.193 43.659L207.3 27.7784L208.051 28.5487L203.245 28.495L198.438 28.4304L188.826 28.2943L189.329 27.7784C189.178 38.4194 189.088 49.0602 189.109 59.701C189.117 65.0214 189.157 70.3418 189.227 75.6622L189.467 91.6236L189.572 99.6043L189.637 107.585L189.652 115.566L189.627 123.546C189.596 134.187 189.495 144.828 189.335 155.469L188.826 154.946L193.551 155.035L198.31 155.152L207.986 155.402ZM208.116 155.535L198.566 155.785L193.713 155.903L188.826 155.991L188.325 156L188.317 155.469C188.157 144.828 188.056 134.187 188.025 123.546L188 115.566L188.014 107.585L188.079 99.6043L188.185 91.6236L188.425 75.6622C188.495 70.3418 188.535 65.0214 188.543 59.701C188.564 49.0602 188.474 38.4194 188.323 27.7784L188.316 27.2698L188.826 27.2627L198.438 27.1266L203.245 27.062L208.051 27.0083L208.797 27L208.802 27.7784L208.909 43.8205L208.978 59.8825L209 67.9184L208.992 75.9496C208.996 81.3079 208.947 86.6486 208.919 91.9922C208.852 102.677 208.732 113.326 208.602 123.93C208.466 134.53 208.313 145.087 208.116 155.535L208.116 155.535Z" id="Fill-13" fill="#02316B" fill-rule="evenodd" stroke="none" />
    <path d="M156.185 93.9721C154.781 92.4608 153.029 91.2758 151.09 90.5917C150.133 90.2183 149.125 90.0027 148.121 89.8069L147.359 89.705C147.105 89.6721 146.852 89.6308 146.596 89.6226C146.084 89.5931 145.574 89.5478 145.061 89.5592L144.294 89.5564L143.527 89.5952C143.271 89.612 143.016 89.6126 142.761 89.6429L141.998 89.7225C140.981 89.8366 139.972 90.0169 138.973 90.231C136.974 90.6671 135.016 91.2807 133.11 92.0211C129.3 93.515 125.682 95.4621 122.251 97.6912C121.818 97.9618 121.4 98.259 120.977 98.5464L120.344 98.98L119.719 99.426C119.305 99.7273 118.882 100.015 118.476 100.327L117.253 101.257C115.643 102.523 114.084 103.855 112.577 105.244C111.079 106.644 109.62 108.086 108.23 109.594C106.845 111.106 105.532 112.682 104.273 114.3C103.016 115.919 101.848 117.607 100.771 119.349C99.6923 121.091 98.703 122.888 97.8383 124.742C96.9726 126.595 96.2349 128.506 95.6601 130.461C95.0852 132.416 94.6933 134.42 94.5312 136.436C94.4398 137.445 94.4541 138.454 94.501 139.459C94.5937 140.458 94.7014 141.462 94.9663 142.427C95.4286 144.377 96.3623 146.189 97.6456 147.717C98.9694 149.205 100.636 150.41 102.522 151.138C103.451 151.536 104.439 151.783 105.428 152.008C106.429 152.181 107.44 152.32 108.461 152.351C110.502 152.447 112.555 152.249 114.574 151.885C116.595 151.52 118.576 150.941 120.513 150.251C124.38 148.836 128.054 146.906 131.474 144.613C133.184 143.466 134.845 142.248 136.447 140.955C138.046 139.659 139.59 138.299 141.092 136.894C142.586 135.48 144.015 134.001 145.411 132.493L146.436 131.342C146.779 130.959 147.1 130.558 147.433 130.167L147.927 129.576L148.41 128.975C148.731 128.574 149.06 128.179 149.365 127.766C151.877 124.515 154.125 121.05 155.945 117.354C156.852 115.506 157.647 113.598 158.264 111.628C158.569 110.643 158.842 109.646 159.051 108.634L159.201 107.874C159.255 107.621 159.279 107.364 159.32 107.109L159.431 106.341L159.5 105.569C159.56 105.054 159.563 104.538 159.582 104.02C159.598 103.761 159.582 103.503 159.574 103.245L159.547 102.469C159.453 101.44 159.33 100.406 159.049 99.4084C158.94 98.9006 158.746 98.4194 158.582 97.9285C158.495 97.6849 158.379 97.4535 158.278 97.215C158.174 96.9781 158.075 96.7389 157.942 96.5164L157.567 95.8376C157.431 95.6183 157.279 95.4085 157.137 95.1933L156.919 94.8725C156.841 94.7697 156.757 94.6719 156.676 94.5716L156.185 93.9721ZM156.324 93.8447C157.707 95.4179 158.74 97.3084 159.293 99.3402C159.606 100.348 159.754 101.394 159.892 102.439C159.976 103.488 160.031 104.544 159.981 105.599C159.805 109.823 158.669 113.969 157.031 117.857C156.201 119.801 155.255 121.696 154.183 123.515C153.655 124.43 153.087 125.319 152.514 126.206L151.617 127.51C151.313 127.941 150.998 128.363 150.684 128.787C149.418 130.473 148.063 132.089 146.638 133.638C145.213 135.188 143.697 136.648 142.142 138.06C140.568 139.451 138.936 140.772 137.253 142.022C135.561 143.261 133.815 144.419 132.023 145.498C130.232 146.578 128.39 147.57 126.501 148.458C124.616 149.356 122.686 150.153 120.714 150.831C118.746 151.52 116.727 152.061 114.677 152.452C112.627 152.842 110.536 153.036 108.439 152.994C107.39 152.983 106.344 152.862 105.302 152.703C104.269 152.499 103.23 152.276 102.238 151.888C100.235 151.178 98.3835 149.98 96.8858 148.414C95.4241 146.818 94.3201 144.867 93.7323 142.772C93.4036 141.732 93.2399 140.656 93.1005 139.581C93.0138 138.503 92.9661 137.42 93.0282 136.344C93.1222 134.189 93.5087 132.066 94.0622 130.003C94.6183 127.938 95.3631 125.936 96.2269 123.994C97.9649 120.114 100.177 116.471 102.718 113.095C103.986 111.404 105.339 109.78 106.762 108.223C108.193 106.672 109.679 105.175 111.23 103.75C112.797 102.342 114.416 100.993 116.087 99.7135C117.763 98.4402 119.498 97.244 121.292 96.1456C121.744 95.8757 122.19 95.5975 122.646 95.3346L124.02 94.56C124.952 94.0721 125.886 93.5886 126.841 93.1483C128.742 92.2506 130.704 91.486 132.703 90.8444C134.702 90.2054 136.745 89.6995 138.817 89.3795C139.854 89.2234 140.895 89.1028 141.941 89.0497L142.725 89.0098C142.986 88.9924 143.249 89.0045 143.51 89.0003L144.295 89.0005L145.079 89.0427C146.124 89.0922 147.161 89.2482 148.189 89.4295C149.208 89.663 150.226 89.917 151.19 90.3296C153.141 91.0832 154.907 92.3021 156.324 93.8447L156.324 93.8447Z" id="Fill-15" fill="#02316B" fill-rule="evenodd" stroke="none" />
  </g>
</svg>