<?xml version="1.0" encoding="utf-8"?>
<svg width="280px" height="126px" viewBox="0 0 280 126" version="1.1" xmlns:xlink="http://www.w3.org/1999/xlink" xmlns="http://www.w3.org/2000/svg">
  <defs>
    <path d="M0 0L15 0L15 12L0 12L0 0Z" id="path_1" />
    <clipPath id="mask_1">
      <use xlink:href="#path_1" />
    </clipPath>
  </defs>
  <g id="Group-52">
    <path d="M21 17.8727C22.3123 16.271 23.8934 14.8539 25.6021 13.6009C26.0295 13.2875 26.4707 12.9917 26.9061 12.6857C27.3558 12.4017 27.8049 12.1144 28.2612 11.8386C28.7236 11.573 29.1796 11.2942 29.6493 11.0391C30.12 10.7865 30.5887 10.5268 31.0701 10.2926C32.9849 9.33154 34.9701 8.49856 36.9966 7.7774C39.0206 7.04831 41.0936 6.44558 43.1972 5.9747C43.7202 5.84625 44.2532 5.75521 44.7799 5.64396C45.3074 5.53441 45.8375 5.43845 46.3691 5.34911L47.1654 5.21274L47.9645 5.09185C48.4975 5.01384 49.028 4.92639 49.5628 4.86198C51.6947 4.56713 53.8324 4.3484 55.9653 4.12552C57.031 4.00747 58.1 3.92001 59.1663 3.80857L60.7684 3.66767L62.3722 3.53828C64.5115 3.38094 66.6539 3.21453 68.8033 3.12519C73.1014 2.90495 77.4225 2.97616 81.7212 3.33202C82.7952 3.42816 83.8727 3.49975 84.9428 3.63556C86.0136 3.76437 87.0882 3.87072 88.154 4.03844C89.2219 4.1922 90.2911 4.34104 91.3499 4.54692C92.4108 4.74204 93.4723 4.93413 94.5219 5.181L96.0987 5.53743C96.6236 5.65926 97.142 5.80564 97.6633 5.94089L99.2238 6.35605L100.768 6.82524C102.829 7.44138 104.851 8.17217 106.839 8.96624C107.09 9.05993 107.336 9.16495 107.582 9.27186L108.318 9.59239C108.806 9.81074 109.299 10.0161 109.781 10.2446L111.22 10.9442L111.935 11.3001L112.636 11.6826C113.102 11.9383 113.57 12.1895 114.032 12.4495L115.387 13.2787L116.059 13.6976C116.28 13.8421 116.494 13.9962 116.711 14.1449L118 15.0528L117.887 15.2092C114.137 13.2749 110.26 11.6529 106.257 10.3506L104.753 9.87364L104.001 9.63602L103.241 9.4207L101.726 8.9806C101.474 8.90448 101.22 8.83591 100.964 8.77301L100.199 8.57695L98.6694 8.18256L97.1293 7.82425C96.6151 7.7079 96.1042 7.58172 95.5892 7.46896L94.0398 7.14729C93.5218 7.04661 93.0113 6.91628 92.4904 6.8277L90.9338 6.53663C89.8998 6.3247 88.8535 6.17038 87.8128 5.98603C86.7734 5.79431 85.7228 5.66323 84.6757 5.50928C83.6299 5.3442 82.5757 5.23673 81.5237 5.10772C80.473 4.96851 79.4147 4.89258 78.3591 4.78661C77.8306 4.73977 77.3035 4.67517 76.7733 4.64571C76.2438 4.61114 75.7145 4.56883 75.1848 4.52652C73.0668 4.35464 70.9417 4.22865 68.8118 4.15933C68.2795 4.14554 67.7467 4.12552 67.2137 4.11683C66.681 4.10947 66.148 4.10701 65.6146 4.10607C64.5487 4.11098 63.4816 4.12344 62.4166 4.17841C60.2856 4.26605 58.1584 4.44662 56.0471 4.73014C51.8184 5.28017 47.6891 6.33868 43.6428 7.49408C41.6177 8.07282 39.6091 8.68462 37.6234 9.35232C35.6407 10.0272 33.6863 10.7699 31.7783 11.6063C31.2967 11.8072 30.8341 12.0415 30.3561 12.2504C29.8819 12.4657 29.4217 12.7041 28.9528 12.9302C28.4896 13.1649 28.0373 13.4163 27.5753 13.6555C27.1258 13.911 26.6678 14.1577 26.2225 14.4222C24.4419 15.481 22.7414 16.6629 21.1494 18L21 17.8727Z" id="Fill-1" fill="#02316B" fill-rule="evenodd" stroke="none" />
    <path d="M26.7472 0.0554997C26.749 0.883215 26.6853 1.69139 26.5926 2.49063C26.5 3.28987 26.377 4.07996 26.2319 4.8634C26.0881 5.64704 25.9167 6.42259 25.7272 7.19251C25.5351 7.96182 25.2808 8.71221 24.9877 9.45096C24.6931 10.1891 24.3753 10.9204 24.1006 11.6645C23.8277 12.4093 23.606 13.1696 23.4274 13.9429C23.2495 14.7164 23.108 15.5008 23.0031 16.2965C22.8928 17.0904 22.8047 17.8911 22.6845 18.682L22.088 17.677C22.6818 17.7019 23.2718 17.7535 23.8601 17.8185L25.6251 18.0081C26.8017 18.1364 27.972 18.3097 29.1307 18.5656C30.2903 18.8161 31.4432 19.1125 32.5899 19.4548C33.1633 19.6249 33.7337 19.8174 34.3031 20.0175C34.8714 20.2237 35.4393 20.4347 36 20.6958L35.9712 20.9014C35.3647 20.9683 34.7652 20.9851 34.1662 20.9972C33.5682 21.003 32.9712 21.0013 32.3774 20.9772C31.1894 20.9313 30.0077 20.8392 28.8324 20.7014C27.6566 20.569 26.492 20.3538 25.334 20.0938L23.5971 19.7009C23.018 19.5717 22.4407 19.4291 21.8671 19.2599L21 19.0038L21.2706 18.2548C21.5403 17.509 21.842 16.7728 22.1215 16.0301C22.4064 15.289 22.6548 14.5368 22.8667 13.7735C23.0779 13.01 23.2461 12.2336 23.363 11.4417C23.4781 10.6493 23.5501 9.84361 23.6453 9.04521C23.742 8.24722 23.8776 7.46087 24.0753 6.69343C24.2757 5.92662 24.4941 5.16542 24.7401 4.41254C24.9849 3.65924 25.2515 2.91259 25.5488 2.17509C25.8461 1.43759 26.1721 0.709025 26.5637 0L26.7472 0.0554997Z" id="Fill-3" fill="#02316B" fill-rule="evenodd" stroke="none" />
    <path d="M233.809 89C232.854 87.1041 232.12 85.1476 231.453 83.173C231.121 82.1852 230.818 81.1898 230.533 80.1889C230.251 79.1874 230.034 78.1682 229.858 77.138C229.685 76.1068 229.529 75.0709 229.336 74.045C229.139 73.0203 228.888 72.0106 228.592 71.0129C228.013 69.0143 227.199 67.0796 226.474 65.1209L227.431 65.6451C226.319 66.0494 225.199 66.4293 224.075 66.7968L220.705 67.902C219.58 68.2645 218.456 68.6322 217.325 68.9741C216.194 69.3156 215.057 69.6429 213.917 69.9553C211.637 70.5836 209.341 71.1558 207.036 71.7018C204.727 72.2326 202.41 72.7401 200.057 73.1264L200 72.9381C202.177 71.9724 204.391 71.1274 206.612 70.3064C208.838 69.5 211.072 68.7202 213.322 67.9962C214.447 67.6327 215.576 67.2839 216.71 66.9491C217.844 66.6151 218.985 66.3067 220.126 65.9933L223.551 65.0702C224.692 64.7615 225.838 64.4653 226.991 64.1935L227.812 64L227.948 64.7178C228.338 66.7682 228.64 68.8426 229.177 70.853C229.439 71.86 229.745 72.8546 230.106 73.8346C230.471 74.8133 230.873 75.7819 231.258 76.7552C231.639 77.7295 231.98 78.7148 232.255 79.7179C232.529 80.7217 232.783 81.7307 233.009 82.7475C233.458 84.7817 233.839 86.8345 234 88.9476L233.809 89Z" id="Fill-5" fill="#02316B" fill-rule="evenodd" stroke="none" />
    <path d="M42 37.8473C42.6918 36.8092 43.5664 35.9121 44.5065 35.1208C45.4536 34.3372 46.4765 33.6649 47.5358 33.0819C48.596 32.4986 49.6936 32.0024 50.8127 31.5841C51.9293 31.1575 53.0735 30.8243 54.2333 30.5908C55.3931 30.3558 56.5687 30.2303 57.7377 30.1251L61.2339 29.8466L64.7113 29.5247C65.8708 29.4202 67.0318 29.2834 68.1986 29.1914C68.7819 29.1402 69.3662 29.0998 69.9515 29.0646L70.83 29.0188L71.709 29.006C72.2955 28.9959 72.8824 28.9957 73.4681 29.0285C74.0543 29.0536 74.641 29.0769 75.2262 29.1276C76.3985 29.2059 77.5691 29.3296 78.7361 29.4932C79.3197 29.574 79.9033 29.6586 80.4823 29.7764C81.0618 29.8896 81.6417 30.0024 82.2154 30.1499C84.5136 30.7157 86.7756 31.4852 88.9423 32.5018C90.0244 33.0121 91.0866 33.574 92.1019 34.2253C92.355 34.3891 92.6102 34.5476 92.8595 34.7166C93.1072 34.89 93.3502 35.0717 93.5943 35.2484C94.0851 35.5969 94.5428 36.005 95 36.3977L94.8947 36.5815C92.7456 35.6077 90.6041 34.7688 88.4078 34.1022C86.2153 33.4338 84.0028 32.8779 81.7726 32.407C81.2175 32.2776 80.6572 32.173 80.099 32.0579C79.5425 31.9328 78.9798 31.841 78.4207 31.7245C77.8618 31.6057 77.2973 31.521 76.7344 31.424C76.1723 31.3195 75.6062 31.2443 75.0408 31.1596C74.4757 31.0687 73.9072 31.011 73.3393 30.9399C73.0551 30.9082 72.7714 30.865 72.4866 30.8358C72.2019 30.8075 71.9174 30.7727 71.6326 30.7379C70.4934 30.6001 69.3496 30.467 68.2012 30.3739C67.6272 30.3301 67.0517 30.2836 66.476 30.2689C65.9001 30.2458 65.3236 30.2365 64.7477 30.2508C63.5957 30.2715 62.4453 30.3694 61.3045 30.5394C59.0181 30.8717 56.8038 31.634 54.6273 32.3417L51.3728 33.4085C50.2949 33.7768 49.2271 34.1728 48.1764 34.6157C47.1258 35.0592 46.0921 35.5472 45.0816 36.0983C44.0711 36.6511 43.0984 37.2819 42.1417 38L42 37.8473Z" id="Fill-7" fill="#02316B" fill-rule="evenodd" stroke="none" />
    <path d="M44.6978 28.0595C44.8604 28.9511 44.8069 29.7748 44.7 30.5815C44.5692 31.381 44.4234 32.1757 44.0148 32.8876C43.8152 33.2452 43.5838 33.5925 43.3782 33.9482C43.1753 34.3047 43.011 34.6732 42.8997 35.0585C42.7873 35.4434 42.7138 35.8406 42.6724 36.2477C42.634 36.6558 42.6265 37.0737 42.6041 37.487L42.0482 36.5764C42.3948 36.5372 42.7385 36.5212 43.0793 36.5278L44.0985 36.5664C44.7782 36.5911 45.4536 36.6469 46.116 36.7987C46.7789 36.9465 47.4347 37.1485 48.0837 37.3984C48.7317 37.657 49.3753 37.9468 50 38.3765L49.9721 38.5818C49.2577 38.8118 48.5626 38.902 47.8714 38.9611C47.1816 39.0115 46.4982 39.014 45.8222 38.9625C45.1457 38.9148 44.4822 38.7709 43.8229 38.5961L42.8338 38.3356C42.5049 38.2425 42.179 38.1268 41.8565 37.9878L41 37.6191L41.3004 37.0772C41.4989 36.7193 41.7124 36.3661 41.8947 36.0034C42.0743 35.6394 42.2218 35.2657 42.3303 34.8796C42.4398 34.4936 42.4964 34.0913 42.5144 33.6767C42.5299 33.2613 42.5192 32.8376 42.5406 32.4241C42.5736 31.5942 42.8696 30.8468 43.1807 30.1039C43.5155 29.3687 43.9039 28.6504 44.5082 28L44.6978 28.0595Z" id="Fill-9" fill="#02316B" fill-rule="evenodd" stroke="none" />
    <g id="Group-13" transform="translate(0 44)">
      <path d="M0 0L15 0L15 12L0 12L0 0Z" id="Clip-12" fill="none" fill-rule="evenodd" stroke="none" />
      <g clip-path="url(#mask_1)">
        <path d="M15 0.639853L14.4647 1.73861L13.9724 1.80882L13.3089 1.80882L12.9448 1.85303L12.6664 1.80882L11.3175 1.94125L10.9323 1.80882L10.8464 1.83093C10.7041 1.88988 10.4613 1.94903 10.1187 2.00757L9.34777 2.00757L9.17677 1.94125L9.11254 1.94125C8.96998 1.94125 8.76298 1.97196 8.49177 2.03275C8.27742 2.08147 8.01355 2.10562 7.69959 2.10562L7.34525 2.03009L7.28222 2.31624L7.0285 2.31624L6.96428 3.35401L7.0802 3.53045L7.03864 3.86163L7.0285 4.43537C7.0285 5.03797 6.97123 5.44243 6.8571 5.64814L7.0285 5.8907L6.90005 6.53034L7.0285 6.70699L6.79288 7.05946L6.79288 7.23611L6.66423 7.47866L6.75012 7.96397L6.70717 8.89059L6.55725 9.30918C6.57117 9.32412 6.57853 9.36076 6.57853 9.41951C6.57853 9.39024 6.55725 9.48583 6.5143 9.70627C6.5143 9.72101 6.52126 9.75049 6.53577 9.79449L6.53577 9.90482C6.53577 10.0669 6.47851 10.2213 6.36418 10.368L6.45007 10.6769C6.45007 10.7799 6.44272 10.846 6.4286 10.8754L6.40713 10.9416C6.37849 11.0298 6.36418 11.1176 6.36418 11.2058C6.36418 11.485 6.39281 11.7206 6.45007 11.9118C6.13571 11.9703 5.95715 12 5.9144 12C5.78575 12 5.67858 11.9853 5.59288 11.956L5.55012 11.9339C5.17829 11.8457 4.99297 11.4926 4.99297 10.875L4.99297 10.5662C4.99297 10.4487 4.98204 10.2833 4.96076 10.0698C4.93929 9.85692 4.92875 9.6987 4.92875 9.59574C4.92875 9.44878 4.95003 9.32371 4.99297 9.22075L5.07867 8.31624C4.96394 8.15454 4.90708 8.02211 4.90708 7.91915C4.90708 7.88988 4.93571 7.83093 4.99297 7.74271C4.90708 7.62522 4.86433 7.53679 4.86433 7.47805C4.86433 7.36056 4.89972 7.26497 4.9713 7.19128C4.9713 7.05885 5.02837 6.87524 5.1429 6.63965C5.11407 6.52216 5.09995 6.39709 5.09995 6.26466C5.19977 6.26466 5.25007 6.21328 5.25007 6.11053C5.25007 6.08106 5.23576 6.03316 5.20713 5.96684C5.17829 5.90073 5.16418 5.83113 5.16418 5.75745L5.25007 5.84567L5.1429 5.64712C5.1429 5.36793 5.17829 5.12537 5.25007 4.91905L5.25007 4.2794L5.1429 3.8164L5.25007 2.95589L5.1429 2.31624L5.18585 2.09559L4.86433 2.1177L4.6287 2.25013L4.4573 2.22802L4.4573 2.31624C4.15725 2.31624 3.86416 2.29414 3.57862 2.25013L3.5142 2.42657L2.67848 2.1398L1.56437 2.1177L0.8571 2.31624C0.285634 1.8164 -9.94201e-05 1.45594 -9.94201e-05 1.23529C-9.94201e-05 1.10306 0.0213753 0.970627 0.0643248 0.838399L0.0643248 0.904513L0.535775 0.507625L0.942999 0.527684L2.37843 0.772081L2.7427 0.639853L3.83592 0.665643L4.69292 0.794187L5.25007 0.573739L5.44295 0L6.29995 0.220653L6.3429 0.220653L6.38585 0.280626L6.6859 0.619793L6.7714 0.639853L7.07145 0.507625L7.69282 0.639853C8.30704 0.551428 8.67132 0.507625 8.78565 0.507625C8.95705 0.507625 9.13561 0.544264 9.32133 0.617746C9.36427 0.617746 9.44998 0.62532 9.57843 0.639853L9.96437 0.639853L10.1143 0.639853L10.8428 0.507625L11.4644 0.601781L11.5499 0.639853L11.8714 0.507625L12.3214 0.639853L13.393 0.639853L13.8642 0.639853L15 0.639853Z" id="Fill-11" fill="#02316B" fill-rule="evenodd" stroke="none" />
      </g>
    </g>
    <path d="M19.8936 46.9324C19.8936 46.8899 19.8725 46.8052 19.8298 46.6777L19.7234 46.6564L19.6809 46.6777L19.5957 46.6777C19.5672 46.6919 19.5388 46.6987 19.5108 46.6987C19.4963 46.6987 19.475 46.6919 19.4468 46.6777L19.383 46.6777L19.1702 46.8262L18.9787 46.8473L18.8723 46.8899L18.5106 47.3571L18.2766 47.5271L17.9362 48.1216L17.7445 48.2491C17.7021 48.4899 17.6026 48.6948 17.4466 48.8649L17.3617 49.0137C17.5177 48.9147 17.6948 48.8649 17.8936 48.8649L18.0424 48.8011L18.1062 48.6101L18.4041 48.6312L18.5743 48.3764L18.7021 48.3764L18.936 48.4613L19.0424 48.1429L19.1913 48.1429L19.1913 47.9092L19.4681 47.8456L19.5319 47.7819L19.5745 47.5908L19.8509 47.1872C19.8794 47.1167 19.8936 47.0316 19.8936 46.9324M22 53.0482C22 53.2181 21.8723 53.4305 21.617 53.6855C21.5459 53.9119 21.4395 54.0959 21.2979 54.2374L21.1702 54.2587L20.9362 54.6622L20.5532 54.7259L20.1489 54.9807L19.9362 55.3629L19.7021 55.3629C19.5459 55.424 19.4182 55.4607 19.3193 55.4735L19.1913 55.639L19 55.639C18.8154 55.639 18.6383 55.759 18.4679 56L18.1702 55.7452L17.9149 55.7452C17.7303 55.7452 17.5745 55.7095 17.4466 55.639L17.0849 55.639L16.9149 55.5338C16.3757 55.4496 16.0351 55.2457 15.8936 54.9233L15.8936 54.8599L15.6381 54.7336L15.5106 54.3757L15.2553 54.2073L15.2553 53.8912L15 52.9649L15 52.2072L15.1275 51.8701L15.1275 51.4279L15.234 51.0911L15.2126 50.9436L15.3617 50.6911L15.3191 50.7335C15.3191 50.6062 15.3544 50.4718 15.4255 50.3301L15.4255 50.2239L15.3617 49.7142C15.3617 49.4736 15.4679 49.2614 15.6807 49.0773C15.6946 49.0489 15.7021 49.0064 15.7021 48.9498C15.7021 48.8933 15.6772 48.7764 15.6276 48.5995C15.5777 48.4225 15.5532 48.2988 15.5532 48.2276C15.5532 48.058 15.5957 47.881 15.6807 47.697C15.7941 47.8667 15.9574 47.9518 16.1702 47.9518L16.234 47.9518C16.2622 47.8954 16.3262 47.8316 16.4255 47.7606C16.5388 47.4069 16.6948 47.1096 16.8936 46.8688L16.9787 46.7837C16.9787 46.7273 17.0211 46.5646 17.1064 46.2954L17.2766 46.2954L17.3191 46.1892L17.4892 46.1468C17.5601 46.0335 17.6063 45.9663 17.6274 45.9448C17.649 45.9238 17.801 45.8355 18.0851 45.6796C18.1416 45.5807 18.2269 45.4885 18.3404 45.4034C18.3968 45.3754 18.4679 45.347 18.5532 45.3186L18.6383 45.1911C19.0213 45.0638 19.2624 45 19.3617 45C19.475 45 19.5814 45.0286 19.6809 45.0849L19.7872 45.0638L19.9362 45.1486C20.1064 45.2761 20.2766 45.3823 20.4468 45.467L20.8085 45.7433L20.8085 45.8282C21.1346 46.083 21.2979 46.444 21.2979 46.9114L21.234 47.1236L21.2979 47.8243L21.1064 47.9518L20.8936 48.5039L20.4894 48.9498L20.4681 49.2895C20.0138 49.6153 19.5957 49.8771 19.2128 50.0752C19.0851 50.2736 18.8863 50.3725 18.617 50.3725L18.5532 50.3725L18.1489 50.6275L17.8083 50.6275L17.2979 50.8397L16.9149 50.6486L16.8723 50.6486C16.8438 50.7627 16.8154 50.9337 16.7872 51.1613L16.617 51.2896L16.5957 51.5457L16.4679 51.9091C16.4963 52.2512 16.5106 52.4719 16.5106 52.5714L16.4399 52.6358C16.4399 52.821 16.4338 52.9562 16.4217 53.0415C16.4217 53.0559 16.4158 53.0772 16.4041 53.1056L16.4041 53.1696C16.4041 53.2837 16.4606 53.3763 16.5743 53.4474C16.617 53.6187 16.6879 53.7255 16.7872 53.7678L16.9362 53.8963L17.4043 54.0244L17.4043 54.0884L17.5745 54.1312L18.2979 54.1312L18.7234 54.0681L18.936 53.9213L19.0638 53.8794L19.2766 53.5645L19.383 53.5434L19.9147 53.3753C19.9716 53.2774 20.0638 53.1934 20.1915 53.1235L20.2553 53.0187C20.539 52.9627 20.7023 52.8155 20.7447 52.5777C20.9431 52.382 21.1984 52.2837 21.5106 52.2837L21.5957 52.2837C21.865 52.5952 22 52.8502 22 53.0482" id="Fill-14" fill="#02316B" fill-rule="evenodd" stroke="none" />
    <path d="M31 53.8636L30.7417 54.172L30.5047 54.7447L30.3327 54.8767L30.1819 55.1851L29.7513 55.2293L29.4714 55.5156L29.0406 55.5156L28.7823 55.7357L28.5456 55.6697L28.2655 55.7357L28.2655 55.9119L27.4689 55.8459L27.1246 55.8459L26.8661 56L26.6507 55.868C26.794 55.853 26.9091 55.8459 26.9954 55.8459C26.8803 55.8569 26.5357 55.8788 25.9619 55.9119L25.8973 55.8788L25.7251 55.8459L25.445 56C25.3591 55.9626 25.2009 55.9205 24.9713 55.8739C24.6554 55.8551 24.4472 55.8459 24.3469 55.8459L24.1747 55.8459C24.0742 55.8017 23.9665 55.7799 23.8519 55.7799C23.7368 55.7799 23.6219 55.8017 23.5072 55.8459L23.2057 55.6493L23.0335 55.6059C22.9906 55.6059 22.9114 55.5843 22.7966 55.5403C22.2655 55.4825 22 55.0312 22 54.1873L22 53.9909L22.4092 53.6855L22.926 53.4891L23.3134 53.6874L23.6149 53.6874L23.6149 53.7534C23.7582 53.8123 23.8732 53.9296 23.9596 54.106L24.1316 54.1278L24.1316 54.4142L24.4115 54.4804L24.4762 54.5243L27.2321 54.3482L27.8994 54.238L27.9644 54.238L28.0073 54.1278L28.3086 54.0837L28.3518 54.0177C28.6533 53.9737 28.933 53.8854 29.1915 53.7534L29.2131 53.6432C29.1985 53.6289 29.1699 53.5772 29.127 53.4891L29.0193 53.511L28.7394 53.2909L28.5456 53.2909L28.4379 53.1366L28.5024 53.0487L28.2655 53.0928L28.0934 52.9164L27.8781 52.9164C27.6913 52.9164 27.5047 52.88 27.3182 52.8063L27.1246 52.8063L26.9738 52.7402L26.6723 52.8504L26.5001 52.652L26.4354 52.652L26.1341 52.41L25.4666 52.1455L25.2514 51.9691L24.4331 51.8152L24.3469 51.6609L23.7442 51.2644L23.4211 50.5376L23.1626 50.1631L23.0767 49.0178L23.1626 48.8857C23.1914 48.5479 23.306 48.2544 23.5072 48.0046C23.7226 47.8873 23.8301 47.7183 23.8301 47.4979L24.1532 47.4317C24.2105 47.3144 24.3256 47.2044 24.4976 47.1014L24.8207 46.8372L26.177 46.3084L26.414 46.2424L26.8445 46.1985L27.5552 46L28.9116 46.0883L28.9547 46.1985C29.0838 46.2424 29.2273 46.3601 29.3853 46.5508L29.3853 46.661L29.7299 46.8813L29.5791 47.4099L29.5359 47.6081C29.4498 47.9752 29.2486 48.1587 28.933 48.1587C28.6746 48.1587 28.481 48.0343 28.3518 47.7843L28.3518 47.7183L28.0996 47.7199L27.7973 47.8045L27.5158 47.586L27.3644 47.7007C27.1766 47.7007 27.0034 47.7618 26.8449 47.8836C26.6282 47.8836 26.419 47.9756 26.2172 48.1587L25.9355 48.153L25.7411 48.284L25.441 48.3504L25.3981 48.3944L25.2694 48.4604L25.0764 48.6595L25.0121 48.6815L24.8193 48.9908L24.5835 49.1234C24.5264 49.3147 24.4904 49.4768 24.4762 49.6095C24.4904 49.8155 24.5156 49.9518 24.5515 50.018C24.5871 50.0845 24.6842 50.1544 24.8422 50.2279L24.8422 50.3379L25.1223 50.4928C25.3521 50.5811 25.5249 50.677 25.6398 50.7798L26.0707 50.7781L26.3437 51.0297L26.8395 51.0951L27.0335 51.2259L27.8743 51.4655L27.9822 51.7048L28.0681 51.5509C28.2549 51.5509 28.5066 51.6388 28.8229 51.8152L29.2111 51.8812L29.254 52.0355L29.5989 52.0355L30.2024 52.3877C30.2744 52.5788 30.4326 52.755 30.6767 52.9164L30.9139 53.0705L30.8494 53.3348C30.9497 53.482 31 53.6361 31 53.7975L31 53.8636Z" id="Fill-16" fill="#02316B" fill-rule="evenodd" stroke="none" />
    <path d="M40 46.5938C40 46.7315 39.8584 46.8619 39.575 46.9842C39.5116 47.061 39.3935 47.13 39.2206 47.191C39 47.2826 38.8427 47.3595 38.7482 47.4207L38.2519 47.2598C38.0001 47.4435 37.677 47.5354 37.2836 47.5354L36.9999 47.4665L36.7875 47.6274L36.1499 47.6274L35.7483 47.903C35.5747 47.8419 35.4095 47.8112 35.2521 47.8112C35.205 47.8419 35.0945 47.8723 34.9213 47.903C34.8424 47.903 34.7561 47.88 34.6616 47.834L34.5906 48.7065L34.5906 49.3493L34.5906 50.1524L34.6011 51.0249L34.673 51.4382L34.6616 51.7602L34.9921 52.4497C34.945 52.4957 34.9213 52.5497 34.9213 52.6106C34.9213 52.718 35.0945 52.8024 35.441 52.8634L35.4884 53.1394L35.6537 53.2082L35.9373 53.3924L36.126 53.5303C36.2834 53.4996 36.3936 53.4842 36.4568 53.4842C36.5984 53.4842 36.7404 53.5072 36.882 53.5531C36.9449 53.5228 37.0788 53.4154 37.2836 53.2317C37.4254 53.1091 37.5589 53.0477 37.6851 53.0477L37.7561 53.0477L37.8269 53.0477C37.9685 52.7688 38.2204 52.5848 38.5827 52.4966C38.9135 52.4966 39.1888 52.5963 39.4097 52.7952L39.4097 52.9561C39.4097 53.4768 39.2206 53.8058 38.8427 53.9435C38.7009 54.2651 38.4017 54.4719 37.9451 54.5639L37.6614 54.8165L37.3546 54.8165L36.8112 54.9544C36.6849 54.9847 36.5041 55 36.2678 55C36.1416 55 36.0081 54.9693 35.8663 54.9084L35.5592 54.9084L34.7324 54.4719L34.5198 54.403L34.0237 53.7598L33.7403 53.4614L33.2206 52.3129L33.0317 51.2334L33.1025 50.9578L32.8899 50.705L33.0082 50.3834L32.8899 49.8781L33.0551 49.7174L33.1025 49.4188L33.0317 49.1432L33.1025 48.7298L32.9843 48.3623L33.1025 48.2474L33.1025 47.88L32.937 47.8112L32.4883 47.903L32.0631 47.6274L31.9923 47.6274C31.5199 47.6274 31.2836 47.3792 31.2836 46.8824L31.2836 46.8122L31 46.3698L31.4489 45.9506L32.0396 46.0424L32.3467 45.9966L32.7954 46.1113L33.2916 46.1113L33.2916 45.652L32.9843 45.0087L33.2916 44.8483L33.1733 44.5036L33.197 43.7918L33.0082 43.493C32.8978 43.3246 32.8427 43.1714 32.8427 43.0337C32.8427 42.8653 32.8818 42.7274 32.9609 42.62L33.0317 42.2986L33.2206 42.1149C33.6459 42.0384 33.9293 42 34.0711 42C34.5748 42 34.8505 42.2231 34.8979 42.6697L34.8269 42.7854C34.9213 42.9237 34.9687 43.055 34.9687 43.178C34.9687 43.1933 34.9606 43.2319 34.945 43.2931L34.8979 43.432L34.8742 43.5936L34.9687 43.8939L34.945 44.009L34.9921 44.3325L34.7797 44.6093L34.8979 45.0712L34.8032 45.6257L34.9921 45.8338L34.8032 46.2491L35.5355 46.1345L36.8349 46.2491L37.8743 46.0884L38.2285 46.1113L38.3466 46.0884L39.2677 46.0884C39.7558 46.0884 40 46.257 40 46.5938" id="Fill-18" fill="#02316B" fill-rule="evenodd" stroke="none" />
    <path d="M102.78 49.0457L102.759 49.0457L102.526 48.7956L102.78 48.5682C102.665 48.4622 102.607 48.3033 102.607 48.0909L102.456 48.0001L102.348 47.0679L102.101 46.6765L102.037 46.2872L101.995 46.1956L101.847 46.1956L101.784 45.3746L101.594 45.0782L101.488 45.0327L101.425 44.9415L101.34 45.1011L100.833 45.7851L100.664 46.1727L100.242 46.5832L100.157 46.9936L99.6717 47.2217C99.6011 47.6777 99.3902 48.0047 99.038 48.2021L98.8901 48.6581L98.6157 48.9545L98.8058 48.9545C99.0594 49.0457 99.2708 49.0914 99.4401 49.0914L99.5244 49.0914C99.6091 49.0457 99.6936 49.0231 99.7782 49.0231C99.8764 49.0231 99.9894 49.0535 100.116 49.114L100.201 49.1369C100.285 49.1219 100.419 49.114 100.602 49.114C100.828 49.114 100.997 49.1219 101.11 49.1369L101.849 49.0457L102.335 49.3193C102.575 49.2131 102.716 49.1066 102.759 49C102.759 49.0152 102.765 49.0231 102.78 49.0231L102.78 49.0457ZM108 55.2021C107.986 55.5819 107.753 55.8479 107.303 56L106.499 55.5898L106.267 55.5898L105.992 55.3617L105.654 55.3617L105.4 54.9055L105.189 54.7915L104.914 54.2672L104.534 53.8339L104.534 53.6517L104.365 53.492L104.322 53.127L104.048 52.8534L103.604 51.782L103.413 51.5311L103.329 50.8925L103.054 50.5049L102.61 50.4366L102.124 50.733L102.019 50.619L101.68 50.8471L101.575 50.5961C101.504 50.6114 101.398 50.619 101.258 50.619C101.102 50.619 100.99 50.6114 100.92 50.5961L100.75 50.5961L100.307 50.8471L99.8204 50.7785L99.7358 50.7785L99.3977 50.9837L99.1229 50.8697C98.855 50.8697 98.6579 50.8397 98.5312 50.7785L98.4255 50.7785L97.8759 51.0521L97.6645 50.8014L97.284 50.6873L97.1995 50.7559C96.8894 51.1968 96.6639 51.5082 96.5233 51.6906L96.1849 51.782C95.6493 52.618 95.3112 53.0665 95.1704 53.127L95.0859 53.1499L94.4096 54.0393L94.3251 54.0393L93.9022 54.746L93.0993 55.2248C92.9581 55.2553 92.8455 55.2705 92.761 55.2705C92.4935 55.2705 92.2399 55.1638 92 54.9512L92.2536 54.3812L92.2536 54.0393L92.3383 53.9251L92.3805 53.4691L93.0355 53.3779L93.2048 53.2639C93.3739 53.1579 93.4723 52.9982 93.5006 52.7851C93.7543 52.7091 93.9091 52.5572 93.9658 52.3292C94.3461 52.1165 94.5926 51.782 94.7054 51.3256L95.0649 51.189L95.593 50.3454C95.4803 50.1783 95.3957 49.9656 95.3394 49.7069L95.7835 49.3193L95.7835 48.8862L96.6076 48.9545L96.819 48.8405C96.8894 48.5823 97.0304 48.3998 97.2419 48.2931L97.284 47.86L97.7279 47.6093C97.7702 47.5788 97.8475 47.541 97.9605 47.4953L97.9605 47.3584C97.9605 47.2217 97.9885 47.1003 98.0448 46.9936C98.3408 46.7658 98.4957 46.4543 98.5098 46.0589L98.8058 45.9903L98.9115 45.7851L99.0594 45.7622L99.461 44.9415L99.5668 44.9415L99.7358 44.8563L99.7358 44.2804L99.8837 44.2804C100.236 43.8699 100.412 43.604 100.412 43.4823L100.518 43.3909L100.412 43.049C100.75 42.6083 101.025 42.3802 101.237 42.365L101.638 42L102.103 42.5016L102.695 42.844L102.759 43.4366C102.829 43.5278 102.885 43.6192 102.927 43.7102C103.125 43.9689 103.237 44.2347 103.266 44.5082L103.392 45.0782L103.709 45.5799L103.9 46.3324L103.942 46.697L104.322 47.1989L104.238 47.3584L104.407 47.5179L104.407 47.9741L104.449 48.3162C104.407 48.5441 104.386 48.6276 104.386 48.5669L104.491 48.6807L104.618 48.8633C104.801 48.8483 104.935 48.8255 105.02 48.7948L105.654 48.7948C105.767 48.8255 105.851 48.8405 105.908 48.8405C105.992 48.8405 106.08 48.8062 106.172 48.7379C106.263 48.6695 106.408 48.6355 106.605 48.6355C106.746 48.6355 106.957 48.7116 107.239 48.8633L107.873 48.909C107.901 49.0309 107.915 49.1219 107.915 49.1824C107.915 49.4107 107.81 49.5854 107.599 49.7069L107.281 49.5928L106.69 50.049L106.203 49.9807L105.992 50.0945L105.527 50.1402L105.527 50.049L104.978 50.1859L104.957 50.3226L104.999 50.8471L105.274 51.2573L105.316 51.668L105.802 52.3975L105.76 52.6482L105.95 52.8534L106.457 53.697L106.817 54.0846L106.901 54.2672L107.281 54.4722L107.429 54.8372L108 55.2021Z" id="Fill-20" fill="#02316B" fill-rule="evenodd" stroke="none" />
    <path d="M115.85 48.4879L115.765 48.4438C115.666 48.3853 115.578 48.2899 115.5 48.1579C115.422 48.0256 115.348 47.894 115.278 47.7618C115.136 47.7176 115.016 47.6224 114.917 47.4758L114.79 47.4758L114.409 47.2334L113.921 47.1232L113.455 47.169L112.955 47.3168L112.825 47.1921L112.658 47.2577L112.658 47.346L112.467 47.3898C112.34 47.624 112.143 47.8292 111.875 48.0048L111.706 48.3782L111.537 48.5098L111.389 48.8614L111.326 49.5861L111.135 49.7615L111.135 50.1572L110.966 50.3107L110.952 50.8378L110.598 51.5681L110.54 51.9202L110.501 52.4923L110.628 52.7345L110.501 52.9765L110.607 53.1304L110.395 53.5263L110.504 53.7248L110.59 53.9886L110.715 54.0802L110.862 54.0837L111.053 53.9075L111.222 53.9296L111.58 53.7748L111.623 53.6424L112.023 53.4879L112.066 53.3556L112.319 53.2013L112.319 53.1572L112.848 52.583L113.102 52.4729L113.228 52.1859L113.503 52.142L113.841 51.7444L113.778 51.7003L113.925 51.5458L114.134 51.0824L114.323 50.8838L114.427 50.3984L114.762 50.288L115.001 49.9399L115.089 49.8739L115.089 49.4778L115.406 49.3239L115.85 48.4879ZM119 53.8633L118.746 54.7884L118.577 55.0529C118.352 55.4052 118.133 55.5814 117.922 55.5814C117.753 55.5814 117.527 55.4565 117.245 55.207L116.822 54.5683L116.632 54.1718L116.548 53.7752L116.357 53.1145L116.357 52.1455L116.294 51.3083L116.357 50.8458L116.315 50.7137L115.787 51.4845L115.723 51.4845L115.702 51.5505L115.342 52.1455L114.751 52.806L114.307 53.445L113.841 53.9075C113.715 54.1425 113.566 54.3479 113.398 54.5241L112.975 54.8325L112.721 55.1851L112.256 55.3392L112.065 55.5814L111.6 55.6697L111.22 55.9117L111.156 55.9117L111.114 56L110.459 55.9117L109.676 55.3392C109.465 55.0897 109.331 54.8182 109.275 54.5241C109.303 54.5098 109.331 54.4839 109.359 54.4471C109.387 54.4107 109.409 54.3849 109.423 54.37C109.409 54.3555 109.331 54.3187 109.19 54.2598L109 53.8194L109.106 53.6651L109 53.4008L109.106 53.0924L109.063 52.6961L109.211 52.0572L109.211 51.3743L109.359 51.176L109.359 50.7137L109.507 50.4272L109.55 50.0969L109.592 50.0527L109.592 49.7666L109.803 49.414L109.846 49.1056L109.972 48.8853L110.036 48.7532L110.121 48.2247L110.268 47.762L110.374 47.652L110.417 47.3657L110.691 47.0572C110.72 46.9841 110.783 46.8297 110.882 46.5947L111.41 46.3525L111.748 45.9781L112.721 45.6915C112.876 45.6915 112.996 45.6844 113.08 45.6696L113.228 45.7577L113.271 45.5813L113.757 45.5374L113.926 45.6036L114.074 45.5813L114.201 45.6915L114.603 45.7136L114.687 45.6476L114.793 45.7357L115.004 45.7577L115.004 45.9118L115.089 45.9781L115.512 46.0659L115.829 46.4404L116.252 46.7709L116.357 46.9912L116.378 47.0131L116.463 46.7047L116.59 46.4185L116.548 45.9118L116.632 44.9868L116.505 44.6344L116.674 44.3701L116.59 44.1277L116.653 43.5109L116.579 42.9824L116.357 42.8282L116.696 42.4757L116.696 42.2333C116.696 41.9839 116.604 41.7125 116.421 41.4184L116.548 41.4184L116.78 41.066C116.992 41.0221 117.182 41 117.351 41C117.548 41 117.71 41.0439 117.837 41.1322C118.062 41.2058 118.175 41.5582 118.175 42.1895L118.07 42.1895L118.049 42.2774L118.239 42.4538L118.112 42.8062L118.302 43.2246L118.197 43.3568C118.239 43.4596 118.26 43.5626 118.26 43.665C118.26 43.768 118.239 43.8782 118.197 43.9957L118.302 44.1277C118.33 44.1866 118.345 44.2818 118.345 44.4139C118.345 44.5758 118.309 44.7223 118.239 44.8547C118.168 45.7796 118.105 46.3525 118.049 46.5726C118.062 46.6168 118.07 46.6828 118.07 46.7709C118.07 46.8886 118.049 47.0131 118.006 47.1453L118.006 47.2776C118.006 47.4535 117.976 47.652 117.915 47.8721L117.846 48.5331L117.732 48.7093L117.816 48.9075L117.732 49.2378L117.816 49.5242L117.647 50.207L117.732 50.7137L117.732 50.9999L117.757 51.4403C117.782 51.5433 117.795 51.6388 117.795 51.7269C117.795 51.8004 117.774 51.8589 117.732 51.9031L117.901 52.0351L117.732 52.4757L117.901 52.9383L117.837 53.0705L117.901 53.2025L117.837 53.3348L117.901 53.4008L118.091 53.577L118.45 53.6211L119 53.8633Z" id="Fill-22" fill="#02316B" fill-rule="evenodd" stroke="none" />
    <path d="M125 40.3152L124.568 40.5782L124.46 40.7755L124.287 40.8412C124.215 41.0023 124.064 41.1481 123.834 41.2795L123.359 41.8933L123.099 42.0246L122.991 42.3535L122.927 42.3535C122.768 42.646 122.43 42.96 121.911 43.2959C121.768 42.9891 121.696 42.6604 121.696 42.3098C121.696 42.12 121.717 41.9152 121.76 41.696L121.972 41.3451L122.121 40.9726L122.463 40.6659L122.633 40.2496L122.761 39.9644L122.761 39.5261L123.211 39.3726L123.318 39L123.49 39L123.683 39L124.177 39L124.391 39L124.391 39.1535L124.496 39.2412C124.692 39.2558 124.839 39.3655 124.937 39.5701L125 40.3152ZM124.522 55.5041L124.348 55.5041L124.304 56.0302L124.304 56.7972L124.304 56.9507L124.304 57.6302L124.413 58.2218L124.304 58.4628L124.369 58.748C124.34 58.8208 124.304 59.0876 124.261 59.5479C124.217 60.0081 124.094 60.4136 123.891 60.7643C123.819 61.0712 123.666 61.3268 123.435 61.5314L123.283 61.5314L123.13 61.7944L123.044 61.904L122.565 62.1452L122.5 62.2329L122.5 62.2985C122.5 62.3567 122.464 62.4373 122.392 62.5396L122.024 62.6054C122.009 62.6199 121.98 62.6309 121.937 62.6384C121.894 62.6455 121.858 62.6492 121.829 62.6492L121.482 62.8465L121.244 62.8025L121.201 62.8465L120.941 62.8465L120.681 63L120.4 62.7808L119.967 62.5615L119.729 62.5178L119.577 62.3862L119.122 62.3205L118.928 62.1232L118.798 62.0573L118.148 61.6848L117.954 61.5314L117.824 61.3343L117.65 61.2684L117.586 61.1808C117.485 61.1659 117.398 61.1003 117.326 60.9835L117.283 60.9178C117.225 60.8153 117.145 60.6766 117.044 60.5013L116.696 60.2601L116.522 59.9754L116.348 59.9314L116.087 59.3396C116.029 59.2082 116 59.0838 116 58.967C116 58.8208 116.044 58.6894 116.131 58.5727L116.83 58.616L117.135 59.0526L117.55 59.3146L117.638 59.5121L117.978 59.6605L117.978 59.8946L118.114 59.9158L118.183 60.0799L118.529 60.2558L118.658 60.3441L118.81 60.4322L119.004 60.63L119.523 60.8946L119.826 60.9164L119.826 61.0706C119.913 61.1145 120 61.1513 120.087 61.1808L120.174 61.1808C120.261 61.1808 120.355 61.2099 120.456 61.2684C120.558 61.2684 120.645 61.2975 120.717 61.3561L120.869 61.3561C120.927 61.3561 121.014 61.3415 121.13 61.3122C121.304 61.1808 121.449 61.0931 121.565 61.0492L121.935 60.8082L121.978 60.6766L122.239 60.4793L122.217 60.3697L122.239 60.2823L122.239 60.2383L122.37 60.0411L122.587 59.5149L122.478 59.2959L122.761 58.4191L122.761 58.0246L122.587 57.8493C122.703 57.5716 122.833 57.3744 122.978 57.2576C122.869 56.9796 122.797 56.6949 122.761 56.4028L122.826 56.3369L122.761 56.2932L122.761 56.1834C122.761 55.9934 122.811 55.7673 122.913 55.5041L122.761 55.0439L122.848 54.7589L122.609 54.233L122.826 54.0794L122.761 53.9918L122.761 52.874C122.703 52.7424 122.674 52.6037 122.674 52.4575C122.674 52.2968 122.703 52.1288 122.761 51.9535L122.761 51.8876L122.848 51.2084L122.587 50.441L122.696 50.0904L122.587 49.5207L122.674 49.3672L122.5 48.3151L122.5 47.2413L122.391 47.0001L122.413 46.8465L122.282 46.5179L122.5 46.2986C122.543 46.2405 122.594 46.1819 122.652 46.1235C122.768 45.6999 122.978 45.4878 123.283 45.4878C123.543 45.4878 123.732 45.634 123.848 45.926C124.181 45.926 124.362 46.1013 124.391 46.4522L124.435 46.9781L124.304 47.2191L124.304 47.5042L124.304 47.5699L124.369 47.8109L124.174 48.3369L124.304 48.6877L124.174 49.3452L124.304 50.222L124.174 50.5069C124.261 50.6822 124.304 50.8136 124.304 50.9015C124.304 51.0328 124.261 51.1573 124.174 51.2741C124.192 51.5226 124.264 51.9316 124.391 52.5014L124.391 52.8083L124.304 53.5313C124.406 53.7801 124.457 54.0504 124.457 54.3426C124.457 54.474 124.442 54.642 124.413 54.8466L124.522 55.5041Z" id="Fill-24" fill="#02316B" fill-rule="evenodd" stroke="none" />
    <path d="M140 53.6136C140 53.7896 139.868 54.0025 139.605 54.2519L139.43 54.3178L139.276 54.5159L138.881 54.6259C138.808 54.7286 138.735 54.7799 138.662 54.7799C138.647 54.7799 138.632 54.7727 138.618 54.7578L138.552 54.7578C138.23 54.9193 137.843 55 137.389 55L137.214 55L136.665 54.8899L136.292 54.7139L135.459 54.0097L135.283 53.4155L134.932 53.1296C134.976 53.0712 134.998 52.9755 134.998 52.8436C134.998 52.7556 134.94 52.609 134.823 52.4033L134.889 51.8751L134.889 51.7873C134.889 51.6111 134.837 51.3838 134.735 51.1051L134.866 50.4448L134.581 51.0171L134.252 51.061L134.209 51.5233C134.091 51.5821 133.952 51.6111 133.792 51.6111L133.55 52.1393L133.265 52.4693C133.148 52.6014 133.046 52.6749 132.958 52.6896L132.892 52.7333L132.102 53.5476L132.015 53.5476L131.598 54.0468L131.203 54.251L130.984 54.5461L130.479 54.7049L129.755 55L129.316 54.7774C129.024 54.7774 128.819 54.6441 128.702 54.3768L128.505 54.2657C128.505 54.2216 128.512 54.1622 128.527 54.0877L128.527 53.9321L128.175 53.6205L128.263 53.4872L128 52.864L128.088 52.7752L128.088 52.7307L128.088 52.5971C128.044 52.553 128.022 52.5158 128.022 52.486C128.022 52.3229 128.038 52.1671 128.071 52.0184L128.088 51.4402L128.022 50.973C128.066 50.8558 128.088 50.7529 128.088 50.6651C128.088 50.5626 128.058 50.467 128 50.3788L128.241 50.203L128.241 49.9388L128.154 49.2127L128.395 47.8044C128.395 47.5698 128.329 47.2249 128.197 46.77C128.241 46.301 128.548 46.0441 129.119 46L129.294 46.066L129.601 46.1101L129.996 46.5507L129.821 47.1236L129.821 48.0711L129.887 48.798L129.755 49.0624L129.821 49.2388L129.645 49.5913L129.645 49.8116L129.645 49.8775L129.645 50.076C129.645 50.2671 129.631 50.4652 129.601 50.6708L129.645 50.8252L129.599 51.1558L129.636 51.4145L129.645 51.7222C129.762 51.8104 129.821 51.9202 129.821 52.0523C129.821 52.1695 129.762 52.2867 129.645 52.404L129.645 52.4922C129.722 52.7415 129.76 52.9028 129.76 52.9755L129.967 53.1735C130.059 53.1151 130.166 53.0414 130.289 52.9532C130.335 52.8068 130.442 52.7111 130.611 52.6669L130.611 52.4466C130.698 52.4466 130.837 52.4248 131.027 52.3807L131.071 52.1822L131.444 52.0282L131.51 51.9619C131.612 51.8594 131.781 51.7638 132.015 51.6758L132.015 51.5874L132.431 51.2791C132.534 51.0002 132.717 50.8166 132.98 50.7286C133.141 50.5671 133.25 50.4717 133.309 50.4423L133.594 50.0678L133.594 50.0019L133.682 49.9578L133.879 49.8694L133.989 49.5612L134.45 49.363L134.538 49.3409L134.691 49.1866L134.691 48.9885L134.819 48.9446C134.862 48.7096 134.976 48.5332 135.161 48.4157L135.481 47.6668L135.604 47.2741L135.649 47.1882L135.74 47.1882L135.898 47.0781L135.766 47.034C135.927 46.77 136.051 46.4917 136.139 46.1981L136.775 46.176L137.28 46.594L137.499 46.9462L137.258 47.8922L136.929 48.3324L136.665 49.1906L136.446 49.3225L136.446 49.6529L136.315 49.8949L136.38 50.291L136.205 50.4448L136.292 51.1492L136.336 52.1393L136.446 52.1393L136.446 52.7115L136.753 53.0855L137.039 53.2395L137.061 53.3495C137.163 53.3643 137.287 53.4012 137.433 53.4596L137.982 53.5037L138.311 53.4155L138.903 53.1296C139.02 53.0712 139.166 53.0414 139.342 53.0414C139.781 53.0414 140 53.2323 140 53.6136" id="Fill-26" fill="#02316B" fill-rule="evenodd" stroke="none" />
    <path d="M149 53.8636L148.742 54.172L148.505 54.7447L148.333 54.8767L148.182 55.1851L147.751 55.2293L147.471 55.5156L147.041 55.5156L146.782 55.7357L146.546 55.6697L146.265 55.7357L146.265 55.9119L145.469 55.8459L145.125 55.8459L144.866 56L144.651 55.868C144.794 55.853 144.909 55.8459 144.995 55.8459C144.88 55.8569 144.536 55.8788 143.962 55.9119L143.897 55.8788L143.725 55.8459L143.445 56C143.359 55.9626 143.201 55.9205 142.971 55.8739C142.655 55.8551 142.447 55.8459 142.347 55.8459L142.175 55.8459C142.074 55.8017 141.967 55.7799 141.852 55.7799C141.737 55.7799 141.622 55.8017 141.507 55.8459L141.206 55.6493L141.034 55.6059C140.991 55.6059 140.911 55.5843 140.797 55.5403C140.266 55.4825 140 55.0312 140 54.1873L140 53.9909L140.409 53.6855L140.926 53.4891L141.313 53.6874L141.615 53.6874L141.615 53.7534C141.758 53.8123 141.873 53.9296 141.96 54.106L142.132 54.1278L142.132 54.4142L142.411 54.4804L142.476 54.5243L145.232 54.3482L145.899 54.238L145.964 54.238L146.007 54.1278L146.309 54.0837L146.352 54.0177C146.653 53.9737 146.933 53.8854 147.191 53.7534L147.213 53.6432C147.198 53.6289 147.17 53.5772 147.127 53.4891L147.019 53.511L146.739 53.2909L146.546 53.2909L146.438 53.1366L146.502 53.0487L146.265 53.0928L146.093 52.9164L145.878 52.9164C145.691 52.9164 145.505 52.88 145.318 52.8063L145.125 52.8063L144.974 52.7402L144.672 52.8504L144.5 52.652L144.435 52.652L144.134 52.41L143.467 52.1455L143.251 51.9691L142.433 51.8152L142.347 51.6609L141.744 51.2644L141.421 50.5376L141.163 50.1631L141.077 49.0178L141.163 48.8857C141.191 48.5479 141.306 48.2544 141.507 48.0046C141.723 47.8873 141.83 47.7183 141.83 47.4979L142.153 47.4317C142.21 47.3144 142.326 47.2044 142.498 47.1014L142.821 46.8372L144.177 46.3084L144.414 46.2424L144.845 46.1985L145.555 46L146.912 46.0883L146.955 46.1985C147.084 46.2424 147.227 46.3601 147.385 46.5508L147.385 46.661L147.73 46.8813L147.579 47.4099L147.536 47.6081C147.45 47.9752 147.249 48.1587 146.933 48.1587C146.675 48.1587 146.481 48.0343 146.352 47.7843L146.352 47.7183L146.1 47.7199L145.797 47.8045L145.516 47.586L145.364 47.7007C145.177 47.7007 145.003 47.7618 144.845 47.8836C144.628 47.8836 144.419 47.9756 144.217 48.1587L143.935 48.153L143.741 48.284L143.441 48.3504L143.398 48.3944L143.269 48.4604L143.076 48.6595L143.012 48.6815L142.819 48.9908L142.583 49.1234C142.526 49.3147 142.49 49.4768 142.476 49.6095C142.49 49.8155 142.516 49.9518 142.552 50.018C142.587 50.0845 142.684 50.1544 142.842 50.2279L142.842 50.3379L143.122 50.4928C143.352 50.5811 143.525 50.677 143.64 50.7798L144.071 50.7781L144.344 51.0297L144.84 51.0951L145.034 51.2259L145.874 51.4655L145.982 51.7048L146.068 51.5509C146.255 51.5509 146.507 51.6388 146.823 51.8152L147.211 51.8812L147.254 52.0355L147.599 52.0355L148.202 52.3877C148.274 52.5788 148.433 52.755 148.677 52.9164L148.914 53.0705L148.849 53.3348C148.95 53.482 149 53.6361 149 53.7975L149 53.8636Z" id="Fill-28" fill="#02316B" fill-rule="evenodd" stroke="none" />
    <path d="M158 46.5938C158 46.7315 157.858 46.8619 157.575 46.9842C157.512 47.061 157.393 47.13 157.221 47.191C157 47.2826 156.843 47.3595 156.748 47.4207L156.252 47.2598C156 47.4435 155.677 47.5354 155.284 47.5354L155 47.4665L154.788 47.6274L154.15 47.6274L153.748 47.903C153.575 47.8419 153.409 47.8112 153.252 47.8112C153.205 47.8419 153.094 47.8723 152.921 47.903C152.842 47.903 152.756 47.88 152.662 47.834L152.591 48.7065L152.591 49.3493L152.591 50.1524L152.601 51.0249L152.673 51.4382L152.662 51.7602L152.992 52.4497C152.945 52.4957 152.921 52.5497 152.921 52.6106C152.921 52.718 153.094 52.8024 153.441 52.8634L153.488 53.1394L153.654 53.2082L153.937 53.3924L154.126 53.5303C154.283 53.4996 154.394 53.4842 154.457 53.4842C154.598 53.4842 154.74 53.5072 154.882 53.5531C154.945 53.5228 155.079 53.4154 155.284 53.2317C155.425 53.1091 155.559 53.0477 155.685 53.0477L155.756 53.0477L155.827 53.0477C155.969 52.7688 156.22 52.5848 156.583 52.4966C156.913 52.4966 157.189 52.5963 157.41 52.7952L157.41 52.9561C157.41 53.4768 157.221 53.8058 156.843 53.9435C156.701 54.2651 156.402 54.4719 155.945 54.5639L155.661 54.8165L155.355 54.8165L154.811 54.9544C154.685 54.9847 154.504 55 154.268 55C154.142 55 154.008 54.9693 153.866 54.9084L153.559 54.9084L152.732 54.4719L152.52 54.403L152.024 53.7598L151.74 53.4614L151.221 52.3129L151.032 51.2334L151.102 50.9578L150.89 50.705L151.008 50.3834L150.89 49.8781L151.055 49.7174L151.102 49.4188L151.032 49.1432L151.102 48.7298L150.984 48.3623L151.102 48.2474L151.102 47.88L150.937 47.8112L150.488 47.903L150.063 47.6274L149.992 47.6274C149.52 47.6274 149.284 47.3792 149.284 46.8824L149.284 46.8122L149 46.3698L149.449 45.9506L150.04 46.0424L150.347 45.9966L150.795 46.1113L151.292 46.1113L151.292 45.652L150.984 45.0087L151.292 44.8483L151.173 44.5036L151.197 43.7918L151.008 43.493C150.898 43.3246 150.843 43.1714 150.843 43.0337C150.843 42.8653 150.882 42.7274 150.961 42.62L151.032 42.2986L151.221 42.1149C151.646 42.0384 151.929 42 152.071 42C152.575 42 152.851 42.2231 152.898 42.6697L152.827 42.7854C152.921 42.9237 152.969 43.055 152.969 43.178C152.969 43.1933 152.961 43.2319 152.945 43.2931L152.898 43.432L152.874 43.5936L152.969 43.8939L152.945 44.009L152.992 44.3325L152.78 44.6093L152.898 45.0712L152.803 45.6257L152.992 45.8338L152.803 46.2491L153.536 46.1345L154.835 46.2491L155.874 46.0884L156.229 46.1113L156.347 46.0884L157.268 46.0884C157.756 46.0884 158 46.257 158 46.5938" id="Fill-30" fill="#02316B" fill-rule="evenodd" stroke="none" />
    <path d="M220 54.1237C220 54.3032 219.909 54.5207 219.727 54.7753C219.502 55.0899 219.229 55.337 218.906 55.517C218.794 55.6219 218.675 55.6819 218.548 55.6965C218.296 55.8763 218.05 55.9741 217.812 55.9887C217.714 56.0938 217.546 56.1909 217.307 56.281L216.929 56.281L216.55 56.5955L216.15 56.5056L216.024 56.5279L215.708 56.5729C215.498 56.6032 215.322 56.618 215.182 56.618C215.154 56.618 215.105 56.6107 215.035 56.5955L214.867 56.5955L214.572 56.7079L214.152 56.7527L213.668 56.7527L213.436 56.8932L213.499 56.9777C213.177 56.9777 212.924 56.985 212.742 57L212.637 56.9777L211.774 56.8932L210.554 56.8371L210.154 56.7527C210.028 56.8426 209.881 56.8876 209.713 56.8876C209.516 56.8876 209.313 56.8203 209.103 56.6853L208.703 56.8426L208.492 56.6403C207.903 56.6257 207.559 56.5657 207.462 56.4606L207.377 56.4157C207.419 56.4157 207.3 56.4307 207.02 56.4606L206.199 55.8763L205.82 55.7866C205.582 55.6667 205.379 55.4571 205.21 55.1573C205.07 54.9027 205 54.6556 205 54.4156C205 54.2509 205.07 53.9589 205.21 53.5392L205.631 53.045L206.136 53.0675C206.248 52.9028 206.41 52.8202 206.62 52.8202C207.069 52.8202 207.293 53.2074 207.293 53.9817C206.999 54.0576 206.823 54.1184 206.767 54.1635C206.697 54.2548 206.592 54.3537 206.452 54.4596L206.452 54.528L206.641 54.6341L206.893 54.91L207.714 54.8652L208.408 55.0899L209.502 55.0672L209.902 55.3596L210.091 55.2246C210.175 55.2246 210.281 55.2534 210.407 55.3103L210.954 55.3965L210.996 55.5393L211.333 55.5393C211.655 55.4196 211.838 55.3596 211.879 55.3596L212.132 55.3596L212.616 55.3596L212.994 55.3596L213.331 55.3596L213.731 55.3596L214.194 55.2319L214.425 54.9776L215.224 55.0672C215.631 54.9325 215.953 54.8652 216.192 54.8652L216.297 54.8652C216.395 54.7903 216.48 54.7528 216.55 54.7528C216.592 54.7528 216.641 54.768 216.697 54.7976L216.907 54.7079L216.907 54.528L217.349 54.528C217.447 54.3933 217.623 54.3186 217.875 54.3032C218.071 54.1088 218.233 54.004 218.359 53.9887L218.527 53.7191C218.527 53.5842 218.078 53.2921 217.181 52.8425L217.013 52.7078C216.718 52.678 216.487 52.6256 216.318 52.5506C216.22 52.5506 216.129 52.5433 216.045 52.528L216.003 52.528C215.933 52.528 215.659 52.4382 215.182 52.2584C215.028 52.1385 214.867 52.0785 214.699 52.0785C214.642 52.0785 214.558 52.0937 214.446 52.1235L214.025 52.1235L213.962 52.0562C213.738 52.0111 213.562 51.9438 213.436 51.8539L213.184 51.9438L212.532 51.6068L212.111 51.6068L211.838 51.4268L211.416 51.4268L211.353 51.3144L211.017 51.3144L210.722 50.9552L210.575 50.9552C210.14 50.9552 209.804 50.8661 209.565 50.6876L209.523 50.6436C209.214 50.5398 208.99 50.3763 208.85 50.1538L208.492 49.7977L208.261 49.219L208.008 48.8629L208.114 47.9506L208.618 47.3271C208.703 47.3125 208.766 47.216 208.808 47.0379C208.85 47.0231 208.92 46.986 209.018 46.9265L210.091 46.3033L210.386 46.3033C210.582 46.3033 210.786 46.2286 210.996 46.0787L211.122 46.0787L211.122 46.1235L211.333 45.9212L211.438 45.9212C211.886 45.7415 212.258 45.6516 212.553 45.6516L212.658 45.6516L212.847 45.6741L213.163 45.4719C213.247 45.4571 213.359 45.4494 213.499 45.4494L213.626 45.4494C213.724 45.4494 213.895 45.4346 214.141 45.4045C214.386 45.3745 214.579 45.3522 214.719 45.337L215.098 45.3147L215.666 45C215.708 45.0302 215.799 45.1426 215.94 45.337L216.402 45.337C216.487 45.337 216.641 45.3745 216.865 45.4494L217.013 45.4494C217.349 45.4494 217.63 45.5253 217.854 45.6762C218.597 45.8729 218.969 46.2737 218.969 46.8788C218.969 47.3932 218.583 47.7033 217.812 47.809L217.644 47.5394C217.602 47.5246 217.528 47.4943 217.423 47.4493C217.318 47.4045 217.237 47.3746 217.181 47.3596L216.718 47.3596L216.508 47.1123L216.171 47.1574L215.982 47.3819L215.477 46.9999L214.93 47.09L214.278 46.9326C213.871 46.9626 213.527 47.0527 213.247 47.2022L213.205 47.2247C213.163 47.255 213.117 47.281 213.068 47.3033C213.019 47.3256 212.987 47.3371 212.973 47.3371L212.679 47.2022L212.09 47.4943L210.996 47.809L210.743 47.7416L210.281 48.0561L210.07 48.0561L209.944 48.2584L209.502 48.573L209.544 48.7077L209.776 48.955L209.986 49.0224L210.323 49.2472L210.975 49.4945L211.29 49.5168L211.858 49.8765L212.027 49.8089C212.433 49.8988 212.707 50.0189 212.847 50.1684L212.91 50.2358L212.952 50.2358L213.373 50.5054L213.52 50.3484L214.025 50.4157L214.109 50.4157L214.404 50.4157L214.699 50.6628L214.846 50.6628C215.084 50.6628 215.295 50.6931 215.477 50.7527L215.687 50.7527C215.94 50.7527 216.22 50.8801 216.529 51.1347L216.781 51.0448L216.97 51.1347L217.328 51.1347L217.938 51.5841L218.569 51.6518L218.822 52.0111C219.298 52.3258 219.611 52.5992 219.758 52.8314C219.905 53.0639 219.979 53.3972 219.979 53.8315C219.979 53.8615 219.986 53.9066 220 53.9662L220 54.1237Z" id="Fill-32" fill="#02316B" fill-rule="evenodd" stroke="none" />
    <path d="M234 55.6136C234 55.7896 233.868 56.0025 233.605 56.2519L233.43 56.3178L233.276 56.5159L232.881 56.6259C232.808 56.7286 232.735 56.7799 232.662 56.7799C232.647 56.7799 232.632 56.7727 232.618 56.7578L232.552 56.7578C232.23 56.9193 231.843 57 231.389 57L231.214 57L230.665 56.8899L230.292 56.7139L229.459 56.0097L229.283 55.4155L228.932 55.1296C228.976 55.0712 228.998 54.9755 228.998 54.8436C228.998 54.7556 228.94 54.609 228.823 54.4033L228.889 53.8751L228.889 53.7873C228.889 53.6111 228.837 53.3838 228.735 53.1051L228.866 52.4448L228.581 53.0171L228.252 53.061L228.209 53.5233C228.091 53.5821 227.952 53.6111 227.792 53.6111L227.55 54.1393L227.265 54.4693C227.148 54.6014 227.046 54.6749 226.958 54.6896L226.892 54.7333L226.102 55.5476L226.015 55.5476L225.598 56.0468L225.203 56.251L224.984 56.5461L224.479 56.7049L223.755 57L223.316 56.7774C223.024 56.7774 222.819 56.6441 222.702 56.3768L222.505 56.2657C222.505 56.2216 222.512 56.1622 222.527 56.0877L222.527 55.9321L222.175 55.6205L222.263 55.4872L222 54.864L222.088 54.7752L222.088 54.7307L222.088 54.5971C222.044 54.553 222.022 54.5158 222.022 54.486C222.022 54.3229 222.038 54.1671 222.071 54.0184L222.088 53.4402L222.022 52.973C222.066 52.8558 222.088 52.7529 222.088 52.6651C222.088 52.5626 222.058 52.467 222 52.3788L222.241 52.203L222.241 51.9388L222.154 51.2127L222.395 49.8044C222.395 49.5698 222.329 49.2249 222.197 48.77C222.241 48.301 222.548 48.0441 223.119 48L223.294 48.066L223.601 48.1101L223.996 48.5507L223.821 49.1236L223.821 50.0711L223.887 50.798L223.755 51.0624L223.821 51.2388L223.645 51.5913L223.645 51.8116L223.645 51.8775L223.645 52.076C223.645 52.2671 223.631 52.4652 223.601 52.6708L223.645 52.8252L223.599 53.1558L223.636 53.4145L223.645 53.7222C223.762 53.8104 223.821 53.9202 223.821 54.0523C223.821 54.1695 223.762 54.2867 223.645 54.404L223.645 54.4922C223.722 54.7415 223.76 54.9028 223.76 54.9755L223.967 55.1735C224.059 55.1151 224.166 55.0414 224.289 54.9532C224.335 54.8068 224.442 54.7111 224.611 54.6669L224.611 54.4466C224.698 54.4466 224.837 54.4248 225.027 54.3807L225.071 54.1822L225.444 54.0282L225.51 53.9619C225.612 53.8594 225.781 53.7638 226.015 53.6758L226.015 53.5874L226.431 53.2791C226.534 53.0002 226.717 52.8166 226.98 52.7286C227.141 52.5671 227.25 52.4717 227.309 52.4423L227.594 52.0678L227.594 52.0019L227.682 51.9578L227.879 51.8694L227.989 51.5612L228.45 51.363L228.538 51.3409L228.691 51.1866L228.691 50.9885L228.819 50.9446C228.862 50.7096 228.976 50.5332 229.161 50.4157L229.481 49.6668L229.604 49.2741L229.649 49.1882L229.74 49.1882L229.898 49.0781L229.766 49.034C229.927 48.77 230.051 48.4917 230.139 48.1981L230.775 48.176L231.28 48.594L231.499 48.9462L231.258 49.8922L230.929 50.3324L230.665 51.1906L230.446 51.3225L230.446 51.6529L230.315 51.8949L230.38 52.291L230.205 52.4448L230.292 53.1492L230.336 54.1393L230.446 54.1393L230.446 54.7115L230.753 55.0855L231.039 55.2395L231.061 55.3495C231.163 55.3643 231.287 55.4012 231.433 55.4596L231.982 55.5037L232.311 55.4155L232.903 55.1296C233.02 55.0712 233.166 55.0414 233.342 55.0414C233.781 55.0414 234 55.2323 234 55.6136" id="Fill-34" fill="#02316B" fill-rule="evenodd" stroke="none" />
    <path d="M245 52.5307L244.552 52.8979L244.529 53.0204C244.482 53.2653 244.348 53.4628 244.128 53.6122C243.751 54.2244 243.225 54.6734 242.55 54.9592L242.196 55.2041L241.89 55.245L241.513 55.4898L241.254 55.5101L240.665 55.8368L240.288 55.7959L239.864 56L239.534 55.8777L239.369 56L238.921 55.9388L238.474 56L238.309 55.8777L237.838 55.7959L237.154 55.347L236.777 54.9389C236.542 54.6806 236.424 54.4627 236.424 54.2858L236.424 54.2244L236.188 53.9184L236.188 53.6531C236.141 53.4897 236.118 53.3402 236.118 53.2041L236.118 53.0613L236 52.7144L236.118 52.4695L236.023 52.3061L236.306 51.9184L236.235 51.5918L236.424 51.0611L236.518 50.9388L236.613 50.4491L236.565 50.3673L236.848 50.1021L236.895 49.898L237.084 49.4285L237.39 48.8572L237.814 48.5305L237.908 48.3468L238.05 48.1224L238.097 47.9185L238.474 47.5306C238.568 47.5034 238.678 47.4765 238.804 47.4488C238.866 47.1907 239.259 47.0407 239.982 47C240.594 47.1089 240.987 47.2519 241.16 47.4286C241.332 47.4558 241.466 47.517 241.56 47.6121L242.055 47.6327L242.385 47.9999C242.461 48.1359 242.514 48.2713 242.545 48.4069L242.728 48.5695L242.657 48.8756C242.674 48.9708 242.683 49.1208 242.683 49.3248L242.809 49.4069L242.809 49.7134L242.903 50.3462C242.569 50.6328 242.188 50.796 241.759 50.8367C241.536 50.4809 241.258 50.2137 240.924 50.0357L240.924 49.3581L240.759 49.132L240.777 48.9678L240.532 48.729L240.414 48.6529L240.201 48.7142L239.893 48.7142C239.688 48.7551 239.491 48.8839 239.301 49.1007C239.112 49.3179 238.923 49.5484 238.734 49.7927L238.71 49.9961L238.568 50.0978L238.568 50.4642L238.262 50.749L237.885 51.644L237.908 51.8883L237.72 52.2547L237.791 52.7021L237.649 52.7634L237.602 53.3332L237.626 53.4349L237.91 53.6788L238.028 54.1061L238.36 54.1879L238.383 54.3504L238.782 54.4197L239.088 54.4899C239.198 54.4358 239.332 54.4081 239.489 54.4081L239.654 54.4081C239.842 54.3403 240.015 54.3062 240.172 54.3062C240.282 54.2653 240.423 54.2244 240.596 54.1837C240.784 53.9661 241.051 53.8572 241.396 53.8572L241.538 53.8572C241.616 53.8572 241.671 53.8233 241.703 53.7552C241.875 53.5239 242.15 53.3743 242.527 53.3062C242.966 52.9662 243.218 52.6939 243.281 52.4898C243.5 52.3811 243.641 52.2112 243.704 51.9796L243.846 51.898L243.917 51.4287C244.639 51.524 245 51.8368 245 52.3674L245 52.5307Z" id="Fill-36" fill="#02316B" fill-rule="evenodd" stroke="none" />
    <path d="M253 52.5307L252.552 52.8979L252.529 53.0204C252.482 53.2653 252.348 53.4628 252.128 53.6122C251.751 54.2244 251.225 54.6734 250.55 54.9592L250.196 55.2041L249.89 55.245L249.513 55.4898L249.254 55.5101L248.665 55.8368L248.288 55.7959L247.864 56L247.534 55.8777L247.369 56L246.921 55.9388L246.474 56L246.309 55.8777L245.838 55.7959L245.154 55.347L244.777 54.9389C244.542 54.6806 244.424 54.4627 244.424 54.2858L244.424 54.2244L244.188 53.9184L244.188 53.6531C244.141 53.4897 244.118 53.3402 244.118 53.2041L244.118 53.0613L244 52.7144L244.118 52.4695L244.023 52.3061L244.306 51.9184L244.235 51.5918L244.424 51.0611L244.518 50.9388L244.613 50.4491L244.565 50.3673L244.848 50.1021L244.895 49.898L245.084 49.4285L245.39 48.8572L245.814 48.5305L245.908 48.3468L246.05 48.1224L246.097 47.9185L246.474 47.5306C246.568 47.5034 246.678 47.4765 246.804 47.4488C246.866 47.1907 247.259 47.0407 247.982 47C248.594 47.1089 248.987 47.2519 249.16 47.4286C249.332 47.4558 249.466 47.517 249.56 47.6121L250.055 47.6327L250.385 47.9999C250.461 48.1359 250.514 48.2713 250.545 48.4069L250.728 48.5695L250.657 48.8756C250.674 48.9708 250.683 49.1208 250.683 49.3248L250.809 49.4069L250.809 49.7134L250.903 50.3462C250.569 50.6328 250.188 50.796 249.759 50.8367C249.536 50.4809 249.258 50.2137 248.924 50.0357L248.924 49.3581L248.759 49.132L248.777 48.9678L248.532 48.729L248.414 48.6529L248.201 48.7142L247.893 48.7142C247.688 48.7551 247.491 48.8839 247.301 49.1007C247.112 49.3179 246.923 49.5484 246.734 49.7927L246.71 49.9961L246.568 50.0978L246.568 50.4642L246.262 50.749L245.885 51.644L245.908 51.8883L245.72 52.2547L245.791 52.7021L245.649 52.7634L245.602 53.3332L245.626 53.4349L245.91 53.6788L246.028 54.1061L246.36 54.1879L246.383 54.3504L246.782 54.4197L247.088 54.4899C247.198 54.4358 247.332 54.4081 247.489 54.4081L247.654 54.4081C247.842 54.3403 248.015 54.3062 248.172 54.3062C248.282 54.2653 248.423 54.2244 248.596 54.1837C248.784 53.9661 249.051 53.8572 249.396 53.8572L249.538 53.8572C249.616 53.8572 249.671 53.8233 249.703 53.7552C249.875 53.5239 250.15 53.3743 250.527 53.3062C250.966 52.9662 251.218 52.6939 251.281 52.4898C251.5 52.3811 251.641 52.2112 251.704 51.9796L251.846 51.898L251.917 51.4287C252.639 51.524 253 51.8368 253 52.3674L253 52.5307Z" id="Fill-38" fill="#02316B" fill-rule="evenodd" stroke="none" />
    <path d="M259.894 47.9324C259.894 47.8899 259.872 47.8052 259.83 47.6777L259.723 47.6564L259.681 47.6777L259.596 47.6777C259.567 47.6919 259.539 47.6987 259.511 47.6987C259.496 47.6987 259.475 47.6919 259.447 47.6777L259.383 47.6777L259.17 47.8262L258.979 47.8473L258.872 47.8899L258.511 48.3571L258.277 48.5271L257.936 49.1216L257.745 49.2491C257.702 49.4899 257.603 49.6948 257.447 49.8649L257.362 50.0137C257.518 49.9147 257.695 49.8649 257.894 49.8649L258.042 49.8011L258.106 49.6101L258.404 49.6312L258.574 49.3764L258.702 49.3764L258.936 49.4613L259.042 49.1429L259.191 49.1429L259.191 48.9092L259.468 48.8456L259.532 48.7819L259.575 48.5908L259.851 48.1872C259.879 48.1167 259.894 48.0316 259.894 47.9324M262 54.0482C262 54.2181 261.872 54.4305 261.617 54.6855C261.546 54.9119 261.439 55.0959 261.298 55.2374L261.17 55.2587L260.936 55.6622L260.553 55.7259L260.149 55.9807L259.936 56.3629L259.702 56.3629C259.546 56.424 259.418 56.4607 259.319 56.4735L259.191 56.639L259 56.639C258.815 56.639 258.638 56.759 258.468 57L258.17 56.7452L257.915 56.7452C257.73 56.7452 257.575 56.7095 257.447 56.639L257.085 56.639L256.915 56.5338C256.376 56.4496 256.035 56.2457 255.894 55.9233L255.894 55.8599L255.638 55.7336L255.511 55.3757L255.255 55.2073L255.255 54.8912L255 53.9649L255 53.2072L255.128 52.8701L255.128 52.4279L255.234 52.0911L255.213 51.9436L255.362 51.6911L255.319 51.7335C255.319 51.6062 255.354 51.4718 255.425 51.3301L255.425 51.2239L255.362 50.7142C255.362 50.4736 255.468 50.2614 255.681 50.0773C255.695 50.0489 255.702 50.0064 255.702 49.9498C255.702 49.8933 255.677 49.7764 255.628 49.5995C255.578 49.4225 255.553 49.2988 255.553 49.2276C255.553 49.058 255.596 48.881 255.681 48.697C255.794 48.8667 255.957 48.9518 256.17 48.9518L256.234 48.9518C256.262 48.8954 256.326 48.8316 256.425 48.7606C256.539 48.4069 256.695 48.1096 256.894 47.8688L256.979 47.7837C256.979 47.7273 257.021 47.5646 257.106 47.2954L257.277 47.2954L257.319 47.1892L257.489 47.1468C257.56 47.0335 257.606 46.9663 257.627 46.9448C257.649 46.9238 257.801 46.8355 258.085 46.6796C258.142 46.5807 258.227 46.4885 258.34 46.4034C258.397 46.3754 258.468 46.347 258.553 46.3186L258.638 46.1911C259.021 46.0638 259.262 46 259.362 46C259.475 46 259.581 46.0286 259.681 46.0849L259.787 46.0638L259.936 46.1486C260.106 46.2761 260.277 46.3823 260.447 46.467L260.809 46.7433L260.809 46.8282C261.135 47.083 261.298 47.444 261.298 47.9114L261.234 48.1236L261.298 48.8243L261.106 48.9518L260.894 49.5039L260.489 49.9498L260.468 50.2895C260.014 50.6153 259.596 50.8771 259.213 51.0752C259.085 51.2736 258.886 51.3725 258.617 51.3725L258.553 51.3725L258.149 51.6275L257.808 51.6275L257.298 51.8397L256.915 51.6486L256.872 51.6486C256.844 51.7627 256.815 51.9337 256.787 52.1613L256.617 52.2896L256.596 52.5457L256.468 52.9091C256.496 53.2512 256.511 53.4719 256.511 53.5714L256.44 53.6358C256.44 53.821 256.434 53.9562 256.422 54.0415C256.422 54.0559 256.416 54.0772 256.404 54.1056L256.404 54.1696C256.404 54.2837 256.461 54.3763 256.574 54.4474C256.617 54.6187 256.688 54.7255 256.787 54.7678L256.936 54.8963L257.404 55.0244L257.404 55.0884L257.575 55.1312L258.298 55.1312L258.723 55.0681L258.936 54.9213L259.064 54.8794L259.277 54.5645L259.383 54.5434L259.915 54.3753C259.972 54.2774 260.064 54.1934 260.191 54.1235L260.255 54.0187C260.539 53.9627 260.702 53.8155 260.745 53.5777C260.943 53.382 261.198 53.2837 261.511 53.2837L261.596 53.2837C261.865 53.5952 262 53.8502 262 54.0482" id="Fill-40" fill="#02316B" fill-rule="evenodd" stroke="none" />
    <path d="M271 53.8636L270.742 54.172L270.505 54.7447L270.333 54.8767L270.182 55.1851L269.751 55.2293L269.471 55.5156L269.041 55.5156L268.782 55.7357L268.546 55.6697L268.265 55.7357L268.265 55.9119L267.469 55.8459L267.125 55.8459L266.866 56L266.651 55.868C266.794 55.853 266.909 55.8459 266.995 55.8459C266.88 55.8569 266.536 55.8788 265.962 55.9119L265.897 55.8788L265.725 55.8459L265.445 56C265.359 55.9626 265.201 55.9205 264.971 55.8739C264.655 55.8551 264.447 55.8459 264.347 55.8459L264.175 55.8459C264.074 55.8017 263.967 55.7799 263.852 55.7799C263.737 55.7799 263.622 55.8017 263.507 55.8459L263.206 55.6493L263.034 55.6059C262.991 55.6059 262.911 55.5843 262.797 55.5403C262.266 55.4825 262 55.0312 262 54.1873L262 53.9909L262.409 53.6855L262.926 53.4891L263.313 53.6874L263.615 53.6874L263.615 53.7534C263.758 53.8123 263.873 53.9296 263.96 54.106L264.132 54.1278L264.132 54.4142L264.411 54.4804L264.476 54.5243L267.232 54.3482L267.899 54.238L267.964 54.238L268.007 54.1278L268.309 54.0837L268.352 54.0177C268.653 53.9737 268.933 53.8854 269.191 53.7534L269.213 53.6432C269.198 53.6289 269.17 53.5772 269.127 53.4891L269.019 53.511L268.739 53.2909L268.546 53.2909L268.438 53.1366L268.502 53.0487L268.265 53.0928L268.093 52.9164L267.878 52.9164C267.691 52.9164 267.505 52.88 267.318 52.8063L267.125 52.8063L266.974 52.7402L266.672 52.8504L266.5 52.652L266.435 52.652L266.134 52.41L265.467 52.1455L265.251 51.9691L264.433 51.8152L264.347 51.6609L263.744 51.2644L263.421 50.5376L263.163 50.1631L263.077 49.0178L263.163 48.8857C263.191 48.5479 263.306 48.2544 263.507 48.0046C263.723 47.8873 263.83 47.7183 263.83 47.4979L264.153 47.4317C264.21 47.3144 264.326 47.2044 264.498 47.1014L264.821 46.8372L266.177 46.3084L266.414 46.2424L266.845 46.1985L267.555 46L268.912 46.0883L268.955 46.1985C269.084 46.2424 269.227 46.3601 269.385 46.5508L269.385 46.661L269.73 46.8813L269.579 47.4099L269.536 47.6081C269.45 47.9752 269.249 48.1587 268.933 48.1587C268.675 48.1587 268.481 48.0343 268.352 47.7843L268.352 47.7183L268.1 47.7199L267.797 47.8045L267.516 47.586L267.364 47.7007C267.177 47.7007 267.003 47.7618 266.845 47.8836C266.628 47.8836 266.419 47.9756 266.217 48.1587L265.935 48.153L265.741 48.284L265.441 48.3504L265.398 48.3944L265.269 48.4604L265.076 48.6595L265.012 48.6815L264.819 48.9908L264.583 49.1234C264.526 49.3147 264.49 49.4768 264.476 49.6095C264.49 49.8155 264.516 49.9518 264.552 50.018C264.587 50.0845 264.684 50.1544 264.842 50.2279L264.842 50.3379L265.122 50.4928C265.352 50.5811 265.525 50.677 265.64 50.7798L266.071 50.7781L266.344 51.0297L266.84 51.0951L267.034 51.2259L267.874 51.4655L267.982 51.7048L268.068 51.5509C268.255 51.5509 268.507 51.6388 268.823 51.8152L269.211 51.8812L269.254 52.0355L269.599 52.0355L270.202 52.3877C270.274 52.5788 270.433 52.755 270.677 52.9164L270.914 53.0705L270.849 53.3348C270.95 53.482 271 53.6361 271 53.7975L271 53.8636Z" id="Fill-42" fill="#02316B" fill-rule="evenodd" stroke="none" />
    <path d="M280 53.8636L279.742 54.172L279.505 54.7447L279.333 54.8767L279.182 55.1851L278.751 55.2293L278.471 55.5156L278.041 55.5156L277.782 55.7357L277.546 55.6697L277.265 55.7357L277.265 55.9119L276.469 55.8459L276.125 55.8459L275.866 56L275.651 55.868C275.794 55.853 275.909 55.8459 275.995 55.8459C275.88 55.8569 275.536 55.8788 274.962 55.9119L274.897 55.8788L274.725 55.8459L274.445 56C274.359 55.9626 274.201 55.9205 273.971 55.8739C273.655 55.8551 273.447 55.8459 273.347 55.8459L273.175 55.8459C273.074 55.8017 272.967 55.7799 272.852 55.7799C272.737 55.7799 272.622 55.8017 272.507 55.8459L272.206 55.6493L272.034 55.6059C271.991 55.6059 271.911 55.5843 271.797 55.5403C271.266 55.4825 271 55.0312 271 54.1873L271 53.9909L271.409 53.6855L271.926 53.4891L272.313 53.6874L272.615 53.6874L272.615 53.7534C272.758 53.8123 272.873 53.9296 272.96 54.106L273.132 54.1278L273.132 54.4142L273.411 54.4804L273.476 54.5243L276.232 54.3482L276.899 54.238L276.964 54.238L277.007 54.1278L277.309 54.0837L277.352 54.0177C277.653 53.9737 277.933 53.8854 278.191 53.7534L278.213 53.6432C278.198 53.6289 278.17 53.5772 278.127 53.4891L278.019 53.511L277.739 53.2909L277.546 53.2909L277.438 53.1366L277.502 53.0487L277.265 53.0928L277.093 52.9164L276.878 52.9164C276.691 52.9164 276.505 52.88 276.318 52.8063L276.125 52.8063L275.974 52.7402L275.672 52.8504L275.5 52.652L275.435 52.652L275.134 52.41L274.467 52.1455L274.251 51.9691L273.433 51.8152L273.347 51.6609L272.744 51.2644L272.421 50.5376L272.163 50.1631L272.077 49.0178L272.163 48.8857C272.191 48.5479 272.306 48.2544 272.507 48.0046C272.723 47.8873 272.83 47.7183 272.83 47.4979L273.153 47.4317C273.21 47.3144 273.326 47.2044 273.498 47.1014L273.821 46.8372L275.177 46.3084L275.414 46.2424L275.845 46.1985L276.555 46L277.912 46.0883L277.955 46.1985C278.084 46.2424 278.227 46.3601 278.385 46.5508L278.385 46.661L278.73 46.8813L278.579 47.4099L278.536 47.6081C278.45 47.9752 278.249 48.1587 277.933 48.1587C277.675 48.1587 277.481 48.0343 277.352 47.7843L277.352 47.7183L277.1 47.7199L276.797 47.8045L276.516 47.586L276.364 47.7007C276.177 47.7007 276.003 47.7618 275.845 47.8836C275.628 47.8836 275.419 47.9756 275.217 48.1587L274.935 48.153L274.741 48.284L274.441 48.3504L274.398 48.3944L274.269 48.4604L274.076 48.6595L274.012 48.6815L273.819 48.9908L273.583 49.1234C273.526 49.3147 273.49 49.4768 273.476 49.6095C273.49 49.8155 273.516 49.9518 273.552 50.018C273.587 50.0845 273.684 50.1544 273.842 50.2279L273.842 50.3379L274.122 50.4928C274.352 50.5811 274.525 50.677 274.64 50.7798L275.071 50.7781L275.344 51.0297L275.84 51.0951L276.034 51.2259L276.874 51.4655L276.982 51.7048L277.068 51.5509C277.255 51.5509 277.507 51.6388 277.823 51.8152L278.211 51.8812L278.254 52.0355L278.599 52.0355L279.202 52.3877C279.274 52.5788 279.433 52.755 279.677 52.9164L279.914 53.0705L279.849 53.3348C279.95 53.482 280 53.6361 280 53.7975L280 53.8636Z" id="Fill-44" fill="#02316B" fill-rule="evenodd" stroke="none" />
    <path d="M99 70.1527C98.3082 71.1905 97.4336 72.0879 96.4935 72.8792C95.5464 73.6628 94.5235 74.3351 93.4642 74.9181C92.404 75.5014 91.3065 75.9976 90.1873 76.4159C89.0707 76.8425 87.9265 77.1757 86.7667 77.4092C85.6069 77.6442 84.4313 77.7697 83.2623 77.8749L79.7659 78.1534L76.2887 78.4753C75.1292 78.5798 73.9682 78.7166 72.8014 78.8086C72.2181 78.8598 71.6338 78.9002 71.0485 78.9354L70.17 78.9812L69.291 78.994C68.7045 79.0041 68.1176 79.0043 67.5319 78.9715C66.9457 78.9464 66.359 78.9231 65.7738 78.8724C64.6015 78.7942 63.4309 78.6704 62.2639 78.5068C61.6802 78.426 61.0967 78.3411 60.5177 78.2234C59.9382 78.1104 59.3583 77.9977 58.7846 77.8501C56.4864 77.2843 54.2244 76.5148 52.0577 75.4982C50.9756 74.9879 49.9134 74.426 48.8981 73.7747C48.645 73.6109 48.3898 73.4524 48.1405 73.2834C47.8928 73.11 47.6498 72.9283 47.4057 72.7516C46.9149 72.4031 46.4572 71.995 46 71.6023L46.1053 71.4184C48.2544 72.3923 50.3959 73.2312 52.5922 73.8978C54.7847 74.5662 56.9972 75.1221 59.2274 75.593C59.7825 75.7224 60.3428 75.827 60.901 75.9421C61.4575 76.0672 62.0202 76.159 62.5793 76.2755C63.1382 76.3943 63.7027 76.479 64.2656 76.576C64.8277 76.6805 65.3938 76.7557 65.9592 76.8404C66.5243 76.9311 67.0928 76.989 67.6607 77.0601C67.9449 77.0918 68.2286 77.135 68.5134 77.1642C68.7981 77.1925 69.0826 77.2273 69.3674 77.2621C70.5066 77.3999 71.6504 77.533 72.7988 77.6259C73.3728 77.6699 73.9483 77.7164 74.524 77.7311C75.0999 77.7542 75.6764 77.7635 76.2523 77.7492C77.4043 77.7285 78.5547 77.6306 79.6955 77.4606C81.9819 77.1283 84.1962 76.3658 86.3727 75.6583L89.6272 74.5915C90.7051 74.2232 91.7729 73.8272 92.8236 73.3843C93.8742 72.9408 94.9079 72.4528 95.9184 71.9017C96.9289 71.3489 97.9016 70.7179 98.8583 70L99 70.1527Z" id="Fill-46" fill="#02316B" fill-rule="evenodd" stroke="none" />
    <path d="M95.3022 79.9405C95.1396 79.0489 95.1931 78.2252 95.3 77.4185C95.4308 76.619 95.5766 75.8243 95.9852 75.1124C96.1848 74.7548 96.4162 74.4075 96.6217 74.0518C96.8247 73.6953 96.989 73.3268 97.1003 72.9415C97.2128 72.5566 97.2862 72.1594 97.3276 71.7523C97.366 71.3442 97.3735 70.9263 97.3959 70.513L97.9518 71.4236C97.6052 71.4628 97.2615 71.479 96.9207 71.4722L95.9015 71.4336C95.2218 71.4089 94.5464 71.3531 93.884 71.2013C93.2211 71.0535 92.5653 70.8515 91.9163 70.6016C91.2683 70.343 90.6247 70.0532 90 69.6237L90.0279 69.4182C90.7423 69.1882 91.4374 69.098 92.1286 69.0389C92.8184 68.9885 93.5016 68.986 94.1778 69.0375C94.8543 69.0852 95.5178 69.2291 96.1771 69.4039L97.1662 69.6644C97.4951 69.7575 97.821 69.8732 98.1435 70.0122L99 70.3811L98.6996 70.9228C98.5011 71.2807 98.2876 71.6339 98.1053 71.9968C97.9257 72.3606 97.7782 72.7345 97.6697 73.1207C97.5602 73.5064 97.5036 73.9087 97.4856 74.3233C97.4701 74.7387 97.4808 75.1624 97.4594 75.5759C97.4264 76.4058 97.1304 77.1532 96.8193 77.8961C96.4845 78.6313 96.0961 79.3496 95.4918 80L95.3022 79.9405Z" id="Fill-48" fill="#02316B" fill-rule="evenodd" stroke="none" />
    <path d="M225.98 64C226.066 66.6695 225.878 69.3587 225.405 72.0043C224.911 74.6446 224.18 77.2505 223.177 79.7527C221.191 84.7707 218.26 89.3889 214.783 93.5014C213.045 95.562 211.167 97.5011 209.185 99.3227C207.198 101.139 205.111 102.842 202.95 104.44C200.792 106.044 198.544 107.52 196.24 108.898C193.942 110.286 191.566 111.535 189.158 112.71C184.329 115.038 179.322 116.96 174.23 118.567C171.682 119.365 169.115 120.095 166.529 120.746C163.947 121.409 161.347 121.997 158.737 122.529C148.293 124.639 137.664 125.786 126.998 125.981C121.666 126.056 116.321 125.916 110.998 125.438C108.335 125.217 105.681 124.895 103.035 124.512C100.389 124.13 97.7534 123.67 95.1303 123.143C89.8871 122.076 84.6969 120.721 79.6068 119.04C77.0611 118.201 74.5466 117.264 72.0653 116.245C69.5851 115.223 67.133 114.127 64.7329 112.921C62.335 111.712 59.9813 110.412 57.6852 109.015C55.389 107.618 53.1492 106.123 50.9961 104.508C48.8405 102.898 46.7613 101.182 44.7818 99.3546C42.8063 97.5233 40.9341 95.5775 39.2034 93.5097C37.4679 91.4464 35.8806 89.257 34.4639 86.9624C33.0518 84.6648 31.8358 82.2468 30.8381 79.7444C29.8393 77.2422 29.105 74.6389 28.6098 72.0003C28.1345 69.3564 27.9405 66.6695 28.0157 64L28.2174 64C28.3176 66.6556 28.6614 69.2926 29.2612 71.8645C29.8728 74.4338 30.7205 76.9397 31.7888 79.344C32.0683 79.9398 32.3272 80.5439 32.6337 81.1263L33.0779 82.0064L33.5527 82.8703C33.8602 83.4508 34.2064 84.01 34.5371 84.5772C34.8763 85.1394 35.2356 85.6898 35.5897 86.2424C37.0449 88.4296 38.6675 90.5009 40.4044 92.4688C42.1419 94.4374 44.0206 96.2794 45.9884 98.0181C47.9525 99.7615 50.0139 101.396 52.1492 102.927C54.2874 104.455 56.4891 105.895 58.7493 107.239C61.0098 108.583 63.3279 109.832 65.6899 110.992C75.1269 115.666 85.2099 119.013 95.5211 121.274C100.684 122.383 105.905 123.236 111.16 123.825C111.816 123.905 112.474 123.972 113.132 124.037C113.79 124.102 114.447 124.174 115.106 124.225L117.083 124.397L119.062 124.54C121.703 124.713 124.349 124.823 126.998 124.875C137.589 125.061 148.231 124.124 158.603 121.888C161.193 121.321 163.765 120.671 166.314 119.947C168.86 119.21 171.386 118.409 173.876 117.511C178.856 115.715 183.718 113.613 188.411 111.204C190.762 110.008 193.057 108.71 195.316 107.356C197.569 105.992 199.763 104.534 201.896 102.995C204.025 101.451 206.08 99.8046 208.036 98.05C209.997 96.3016 211.87 94.453 213.601 92.477C215.329 90.5011 216.948 88.4274 218.398 86.2371C218.751 85.6839 219.109 85.133 219.446 84.5701C219.776 84.0028 220.12 83.4425 220.427 82.8621L220.901 81.9979L221.344 81.1181C221.65 80.5356 221.908 79.9315 222.187 79.3357C223.252 76.9314 224.102 74.4282 224.714 71.8605C225.002 70.5733 225.268 69.2762 225.43 67.9622C225.619 66.6511 225.713 65.3276 225.778 64L225.98 64Z" id="Fill-50" fill="#02316B" fill-rule="evenodd" stroke="none" />
  </g>
</svg>