<svg width="768" height="257" viewBox="0 0 768 257" fill="none" xmlns="http://www.w3.org/2000/svg">
<g id="Group 6">
<path id="Fill 24" fill-rule="evenodd" clip-rule="evenodd" d="M272.467 127.837V121.095H271.226V115.501H261.84V112H241.953V115.501H236.544V121.095H166.7V117.251H155.722V114.229H144.943V117.251H123.188V121.095H104C104 123.255 110.918 127.837 124.399 127.837H128.6V129.911H126.818V253H162.951V129.911H161.169V127.837H180.505V129.911H178.724V253H214.856V129.911H213.075V127.837H232.412V129.911H230.63V253H266.762V129.911H264.981V127.837H272.467Z" fill="#02316B"/>
<g id="Group 3" opacity="0.601245">
<mask id="mask0_0:2975" style="mask-type:alpha" maskUnits="userSpaceOnUse" x="40" y="137" width="101" height="116">
<path id="Clip 2" fill-rule="evenodd" clip-rule="evenodd" d="M40 137H141V253H40V137Z" fill="white"/>
</mask>
<g mask="url(#mask0_0:2975)">
<path id="Fill 1" fill-rule="evenodd" clip-rule="evenodd" d="M141 232.319H139.413V230.716H138.025V232.319H137.158V176.514H138.991V174.813H137.82V168.274H138.991V166.574H138.092C138.092 164.939 137.147 163.539 135.783 162.857V161.477H134.398V149.482H133.504V161.477H132.118V162.857C130.756 163.539 129.809 164.939 129.809 166.574H128.911V168.274H130.081V174.813H128.911V176.514H130.744V186.985H129.777V188.587H128.112V189.827H125.867V188.587H124.204V186.985H122.815V188.587H121.153V189.827H118.905V188.587H117.243V186.985H115.855V188.003C112.707 179.44 103.397 174.137 99.2634 169.981C95.9053 166.605 93.2641 163.623 91.8302 161.956C93.0685 161.475 93.9489 160.278 93.9489 158.864C93.9489 157.236 92.7801 155.888 91.2426 155.604V153.015C92.0557 152.758 92.6518 152.003 92.6518 151.099C92.6518 150.196 92.0557 149.441 91.2426 149.183V137H90.048V149.183C89.2328 149.44 88.6388 150.196 88.6388 151.099C88.6388 152.003 89.2328 152.759 90.048 153.015V155.604C88.5095 155.888 87.3427 157.237 87.3427 158.864C87.3427 160.278 88.2231 161.475 89.4583 161.956L65.4429 187.979V186.985H64.056V188.587H62.3924V189.827H60.1444V188.587H58.483V186.985H57.094V188.587H55.4315V189.827H53.1846V188.587H51.5221V186.985H50.5541V176.514H52.3886V174.813H51.2176V168.274H52.3886V166.574H51.489C51.489 164.939 50.5434 163.539 49.1801 162.857V161.477H47.7943V149.482H46.9011V161.477H45.5153V162.857C44.152 163.539 43.2053 164.939 43.2053 166.574H42.3057V168.274H43.4778V174.813H42.3057V176.514H44.1413V232.319H43.2737V230.716H41.8847V232.319H40.2222V233.559H40V253H141V232.319Z" fill="#02316B"/>
</g>
</g>
<path id="Shape" fill-rule="evenodd" clip-rule="evenodd" d="M685 235.365L676.681 236.946C676.681 236.946 674.291 227.745 667.813 219.671C661.349 211.558 654.064 208.447 654.064 208.447L656.971 219.342C656.971 219.342 652.216 209.079 645.871 205.336C645.871 205.336 642.301 199.26 638.076 194.593C633.837 189.927 626.83 186.183 626.83 186.183L627.89 193.506L623.885 187.347V186.152L623.853 186.209L623.727 186V186.392L623.494 186.765L623.273 186.405V186L623.128 186.209L623.109 186.152V187.341L619.098 193.487L620.164 186.164C620.164 186.164 613.156 189.908 608.924 194.574C604.705 199.241 601.129 205.317 601.129 205.317C594.784 209.054 590.016 219.323 590.016 219.323L592.923 208.428C592.923 208.428 585.664 211.539 579.174 219.652C572.697 227.739 570.325 236.939 570.325 236.939L562 235.365L564.599 248.296H562.587V253H684.407V248.296H682.401L685 235.365ZM678.599 240.22C680.783 238.219 684 237 684 237L681.829 246H673C674.377 244.52 677.024 241.7 678.599 240.22ZM675.453 234C675.453 234 672.576 234.716 669.857 236.14C667.368 237.43 664.539 239.668 664.068 240.04L664.068 240.041C664.023 240.076 664 240.094 664 240.094L664.809 242C664.809 242 667.826 239.732 670.593 238.227C673.36 236.769 676 236.087 676 236.087L675.453 234ZM649.448 232C649.448 232 652.75 235.238 655.546 239.11C657.549 241.858 659.194 244.626 660 246H631C632.286 244.739 636.164 240.961 638.653 238.89C643.811 234.529 649.448 232 649.448 232ZM637.663 230.783C637.663 230.783 635.434 222.664 632.809 216.932C630.172 211.181 624 204 624 204C624 204 628.069 211.028 631.359 218.809C634.649 226.589 637.814 237 637.814 237L640.319 235.015C640.319 235.015 640.262 228.134 640.777 221.317C641.135 216.504 643 204.447 643 204.447C643 204.447 640.84 208.283 639.49 214.43C637.832 221.872 637.663 230.783 637.663 230.783ZM607.502 214.449C609.147 221.891 609.323 230.802 609.323 230.802C609.323 230.802 611.557 222.689 614.194 216.951C616.811 211.206 623 204 623 204C623 204 618.939 211.047 615.656 218.809C612.361 226.589 609.191 237 609.191 237L606.68 235.015C606.68 235.015 606.724 228.147 606.222 221.317C605.858 216.517 604 204.466 604 204.466C604 204.466 606.153 208.309 607.502 214.449ZM597.545 232C597.545 232 594.25 235.238 591.441 239.11C589.432 241.846 587.8 244.626 587 246H616C614.72 244.739 610.849 240.961 608.347 238.89C603.183 234.523 597.545 232 597.545 232ZM572.541 234C572.541 234 575.412 234.715 578.137 236.139C580.862 237.549 584 240.095 584 240.095L583.185 242C583.185 242 580.174 239.714 577.395 238.231C574.634 236.754 572 236.079 572 236.079L572.541 234ZM569.414 240.218C567.223 238.218 564 237 564 237L566.184 246H575C573.637 244.521 570.983 241.691 569.414 240.218Z" fill="#02316B"/>
<g id="Group 3_2">
<mask id="mask1_0:2975" style="mask-type:alpha" maskUnits="userSpaceOnUse" x="423" y="118" width="88" height="135">
<path id="Clip 2_2" fill-rule="evenodd" clip-rule="evenodd" d="M423 118H511V253H423V118Z" fill="white"/>
</mask>
<g mask="url(#mask1_0:2975)">
<path id="Fill 1_2" fill-rule="evenodd" clip-rule="evenodd" d="M430.792 233.51C428.525 233.802 426.265 234.157 423 234.628C425.81 236.521 426.51 238.19 426.444 240.478C426.321 244.631 426.344 248.791 426.366 253H508.356V237.327C509.163 236.625 509.956 235.936 511 235.026C509.989 234.553 509.417 234.1 508.803 234.031C505.34 233.638 502.031 233.612 499.302 230.479C496.712 227.505 492.559 225.742 493.756 220.663C493.843 220.294 492.724 219.294 492.054 219.165C489.918 218.751 487.727 218.624 485.561 218.361C483.456 218.105 481.269 217.933 481.303 215.88C479.463 215.243 477.431 215.177 476.786 214.201C474.615 210.92 476.77 207.58 480.653 207.363C484.51 207.149 488.357 206.648 492.181 206.086C492.803 205.994 493.581 204.993 493.716 204.301C493.8 203.87 492.883 202.864 492.294 202.752C490.089 202.335 487.778 202.407 485.619 201.857C483.845 201.404 482.233 200.327 480.549 199.527L480.924 198.569C477.008 199.333 476.412 198.845 476.297 195.292C476.199 192.218 477.123 190.443 480.623 190.927C481.974 191.114 483.386 191.075 484.747 190.927C487.229 190.657 489.727 190.365 492.146 189.78C492.856 189.609 493.32 188.423 493.897 187.702C493.279 187.269 492.708 186.566 492.036 186.451C489.213 185.968 486.309 185.864 483.543 185.187C482.463 184.923 481.665 183.515 480.429 182.333C476.942 183.079 476.2 182.4 476.296 178.19C476.359 175.43 477.522 174.241 480.327 174.475C482.149 174.626 484.013 174.659 485.827 174.459C488.066 174.214 490.306 173.792 492.472 173.184C493.097 173.008 493.645 171.979 493.855 171.237C493.926 170.984 492.9 170.136 492.294 170.031C489.787 169.598 487.256 169.191 484.72 169.072C482.502 168.969 481.171 168.272 481.324 166.303C479.625 165.867 477.15 165.861 476.807 165.008C476.161 163.393 476.392 161.176 476.971 159.446C477.222 158.697 479.212 158.284 480.458 158.158C482.617 157.94 484.828 158.22 486.986 157.999C488.879 157.804 490.765 157.315 492.578 156.727C493.141 156.544 493.459 155.611 493.888 155.022C493.262 154.63 492.685 154.052 492.003 153.878C488.089 152.876 484.081 152.191 480.233 150.989C470.673 148.003 467.494 141.733 468.694 132.036C469.244 127.582 470.34 122.427 467.134 118C466.595 119.763 465.646 121.386 465.702 122.974C465.847 127.066 466.535 131.136 466.827 135.228C467.257 141.28 464.522 146.065 459.328 148.641C454.495 151.037 449.049 152.202 443.885 153.945C442.857 154.292 441.884 154.801 440.885 155.234C441.798 155.945 442.647 157.155 443.634 157.279C447.363 157.746 451.134 157.991 454.895 158.059C457.224 158.101 458.202 159.121 458.431 161.283C458.869 165.41 458.205 166.062 454.043 166.029C453.07 167.166 452.506 168.462 451.619 168.739C449.18 169.502 446.591 169.774 444.092 170.37C442.979 170.636 441.941 171.213 440.87 171.648C441.889 172.373 442.845 173.589 443.941 173.731C447.556 174.198 451.22 174.426 454.868 174.448C457.209 174.463 458.193 175.426 458.427 177.612C458.881 181.847 458.037 182.676 453.992 182.383C453.074 183.468 452.511 184.779 451.624 185.054C449.15 185.823 446.531 186.122 443.987 186.689C442.9 186.931 441.859 187.378 440.797 187.731C441.826 188.575 442.767 189.979 443.901 190.155C447.274 190.68 450.735 190.63 454.14 191.001C455.464 191.145 457.657 191.577 457.843 192.294C458.326 194.147 458.32 196.382 457.659 198.15C457.389 198.875 454.935 198.791 453.942 198.985C452.974 199.942 452.281 201.173 451.289 201.498C449.026 202.241 446.603 202.482 444.273 203.042C443.093 203.325 441.972 203.858 440.825 204.278C442.015 205.088 443.126 206.416 444.409 206.608C447.903 207.131 451.473 207.132 455.005 207.434C455.948 207.515 457.604 207.824 457.665 208.219C457.977 210.272 458.275 212.498 457.726 214.423C457.51 215.18 455.08 215.311 453.658 215.726C452.639 216.695 451.54 217.778 450.25 218.099C447.903 218.681 445.415 218.685 443.046 219.201C442.271 219.37 441.065 220.422 441.105 220.996C441.415 225.357 435.289 232.932 430.792 233.51" fill="#02316B"/>
</g>
</g>
<g id="Group 3_3">
<mask id="mask2_0:2975" style="mask-type:alpha" maskUnits="userSpaceOnUse" x="483" y="189" width="88" height="64">
<path id="Clip 2_3" fill-rule="evenodd" clip-rule="evenodd" d="M483 189H571V253H483V189Z" fill="white"/>
</mask>
<g mask="url(#mask2_0:2975)">
<path id="Fill 1_3" fill-rule="evenodd" clip-rule="evenodd" d="M495.105 220.471C491.148 221.24 487.172 221.921 483 222.678C483.368 223.362 483.756 224.947 484.325 225.014C490.333 225.733 496.371 226.208 502.032 226.718V253H512.195C512.187 249.143 512.186 245.325 512.288 241.511C512.304 240.912 513.499 240.343 514.542 240.067C513.052 242.601 513.163 244.789 515.108 246.59C515.606 247.051 517.372 247.024 517.767 246.555C519.275 244.762 520.05 242.68 517.781 240.561C518.094 240.364 518.407 240.167 518.721 239.97C519.32 240.575 520.424 241.167 520.441 241.787C520.538 245.472 520.538 249.162 520.529 253H522.359C522.013 246.66 522.811 240.574 524.301 240.134C524.139 241.861 523.534 243.712 523.964 245.278C524.335 246.627 525.885 247.652 526.914 248.821C528.033 247.631 529.65 246.612 530.133 245.203C530.627 243.764 530.008 241.942 529.834 239.767C530.48 240.268 531.445 240.664 531.452 241.076C531.523 245.051 531.527 249.027 531.523 253H533.597C533.59 249.157 533.59 245.338 533.68 241.522C533.693 240.954 534.764 240.41 534.94 240.242C535.449 242.608 535.809 244.663 536.446 246.628C536.508 246.819 538.683 246.826 539.181 246.28C540.732 244.581 541.408 242.559 538.984 240.573C539.361 240.302 539.737 240.03 540.113 239.76C540.705 240.395 541.794 241.019 541.811 241.669C541.908 245.421 541.907 249.179 541.898 253H552.08V226.573C556.96 226.256 562.072 225.776 567.193 225.655C569.705 225.595 570.694 224.514 571 222.738C566.488 221.834 562.198 221.04 557.942 220.095C555.882 219.638 554.348 218.471 554.228 216.094C554.205 215.636 554.146 215.179 554.031 213.952C553.147 216.209 551.386 216.26 550.259 214.855C550.009 215.32 549.773 215.759 549.538 216.198C549.211 216.167 548.886 216.136 548.559 216.105C548.425 213.365 548.29 210.626 548.146 207.689C552.941 207.406 557.306 207.099 561.676 206.905C566.454 206.691 567.079 206.446 568.699 203.443C558.973 203.06 551.578 199.57 549.297 189H504.769C502.625 199.77 494.85 202.965 485.214 203.603C486.756 207.166 489.801 206.615 492.393 206.852C496.822 207.258 501.274 207.429 505.988 207.716C505.824 210.718 505.68 213.36 505.537 215.966C503.132 215.449 501.502 215.098 499.605 214.69C500.235 218.384 498.15 219.879 495.105 220.471" fill="#02316B"/>
</g>
</g>
<g id="Group 4">
<path id="Path" fill-rule="evenodd" clip-rule="evenodd" d="M38.0535 233.658C34.9585 233.658 32.2675 228.679 33.6135 224.373C34.9585 220.067 38.0535 219.932 38.0535 219.932C43.0325 229.083 41.1485 233.658 38.0535 233.658V233.658Z" fill="#02316B"/>
<path id="Path_2" fill-rule="evenodd" clip-rule="evenodd" d="M26.6155 174.046C25.8725 174.046 25.2695 173.444 25.2695 172.7C25.2695 171.957 25.8725 171.355 26.6155 171.355C27.3585 171.355 27.9615 171.957 27.9615 172.7C27.9615 173.444 27.3585 174.046 26.6155 174.046V174.046Z" fill="#02316B"/>
<path id="Path_3" fill-rule="evenodd" clip-rule="evenodd" d="M64.2924 207.283C64.2924 207.283 59.5824 197.595 59.5824 193.289L63.0814 193.693C63.0814 193.693 57.8334 184.106 57.8334 180.624H60.6584C60.6584 180.624 55.4244 164.005 45.8574 162.474C35.7644 160.859 27.9604 163.55 27.9604 167.856C27.9604 167.856 23.3854 169.875 23.3854 172.566C23.3854 172.566 14.9074 175.392 16.1184 178.083C17.3294 180.774 17.2614 183.615 19.5824 183.615C19.5824 181.604 25.6144 178.974 28.6294 181.99C31.6454 185.006 24.4544 188.331 21.6704 186.862C21.6704 186.862 20.4334 190.109 23.2944 191.114C23.2944 191.114 25.6804 193.693 25.6804 198.949L26.8834 208.36C20.1554 208.36 16.5224 220.201 22.7124 221.816C28.9024 223.431 26.6294 227.468 25.5454 232.043C24.4614 236.618 25.8074 249.805 43.1654 249.805C60.5244 249.805 62.5394 233.791 62.6774 224.373C62.8334 213.742 59.9864 206.611 59.9864 206.611L64.2924 207.283Z" fill="#02316B"/>
</g>
<g id="Group 5">
<path id="Fill 14" fill-rule="evenodd" clip-rule="evenodd" d="M696 253C689.427 228.602 689.025 207 689.025 207H681.975C681.975 207 681.573 228.602 675 253H696Z" fill="#02316B"/>
<path id="Fill 15" fill-rule="evenodd" clip-rule="evenodd" d="M682.522 207C682.522 200.728 675.12 189.45 661 189.45C661 177.342 670.062 172 686 172C701.939 172 711 177.342 711 189.45C696.88 189.45 689.479 200.728 689.479 207H682.522Z" fill="#02316B"/>
<path id="Fill 16" fill-rule="evenodd" clip-rule="evenodd" d="M686 186C681.35 186 675.789 186.857 672 191.863C678.961 195.612 682.563 202.549 682.563 207H689.437C689.437 202.549 693.039 195.612 700 191.863C696.211 186.857 690.65 186 686 186" fill="#02316B"/>
<path id="Fill 17" fill-rule="evenodd" clip-rule="evenodd" d="M753 253C746.427 228.602 746.025 207 746.025 207H738.975C738.975 207 738.573 228.602 732 253H753Z" fill="#02316B"/>
<path id="Fill 18" fill-rule="evenodd" clip-rule="evenodd" d="M739.522 207C739.522 200.728 732.12 189.45 718 189.45C718 177.342 727.062 172 743 172C758.939 172 768 177.342 768 189.45C753.88 189.45 746.479 200.728 746.479 207H739.522Z" fill="#02316B"/>
<path id="Fill 19" fill-rule="evenodd" clip-rule="evenodd" d="M743 186C738.35 186 732.789 186.857 729 191.863C735.961 195.612 739.563 202.549 739.563 207H746.437C746.437 202.549 750.039 195.612 757 191.863C753.211 186.857 747.65 186 743 186" fill="#02316B"/>
<path id="Fill 20" fill-rule="evenodd" clip-rule="evenodd" d="M726 253C718.8 226.48 718.361 203 718.361 203H710.639C710.639 203 710.2 226.48 703 253H726Z" fill="#02316B"/>
<path id="Fill 21" fill-rule="evenodd" clip-rule="evenodd" d="M710.673 203C710.673 196.189 702.533 183.946 687 183.946C687 170.8 696.968 165 714.5 165C732.032 165 742 170.8 742 183.946C726.467 183.946 718.327 196.189 718.327 203H710.673Z" fill="#02316B"/>
<path id="Fill 22" fill-rule="evenodd" clip-rule="evenodd" d="M714.5 181C709.352 181 703.196 181.939 699 187.421C706.707 191.528 710.694 199.126 710.694 204H718.306C718.306 199.126 722.293 191.528 730 187.421C725.805 181.939 719.648 181 714.5 181" fill="#02316B"/>
</g>
<path id="Fill 3 Copy 9" fill-rule="evenodd" clip-rule="evenodd" d="M207 245H236V153H207V245Z" fill="#02316B" fill-opacity="0.5"/>
<path id="Fill 3 Copy 10" fill-rule="evenodd" clip-rule="evenodd" d="M158 257H187V171H158V257Z" fill="#02316B" fill-opacity="0.5"/>
<path id="Fill 3 Copy 4" fill-rule="evenodd" clip-rule="evenodd" d="M263 240H285V137H263V240Z" fill="#02316B" fill-opacity="0.5"/>
<path id="Fill 3 Copy 3" fill-rule="evenodd" clip-rule="evenodd" d="M334 253.331H367V97.3311H334V253.331Z" fill="#02316B" fill-opacity="0.5"/>
<path id="Fill 3 Copy 3_2" fill-rule="evenodd" clip-rule="evenodd" d="M296 248.331H329V123.331H296V248.331Z" fill="#02316B" fill-opacity="0.5"/>
<path id="Fill 3 Copy 8" fill-rule="evenodd" clip-rule="evenodd" d="M473 253.331H506V116.331H473V253.331Z" fill="#02316B" fill-opacity="0.5"/>
<path id="Fill 3 Copy 11" fill-rule="evenodd" clip-rule="evenodd" d="M506 249.331H539V162.331H506V249.331Z" fill="#02316B" fill-opacity="0.5"/>
<path id="Fill 3 Copy 12" fill-rule="evenodd" clip-rule="evenodd" d="M0 253H33V150H0V253Z" fill="#02316B" fill-opacity="0.5"/>
<path id="Fill 3 Copy 13" fill-rule="evenodd" clip-rule="evenodd" d="M538 251.331H571V184.331H538V251.331Z" fill="#02316B" fill-opacity="0.5"/>
<path id="Fill 3 Copy 6" fill-rule="evenodd" clip-rule="evenodd" d="M366 250H399V57H366V250Z" fill="#02316B" fill-opacity="0.5"/>
<path id="Fill 3 Copy 7" fill-rule="evenodd" clip-rule="evenodd" d="M432 240H474V142H432V240Z" fill="#02316B" fill-opacity="0.5"/>
<path id="Fill 3 Copy 5" fill-rule="evenodd" clip-rule="evenodd" d="M399 250H432V113H399V250Z" fill="#02316B" fill-opacity="0.5"/>
<g id="Group 3_4">
<path id="Fill 1_4" fill-rule="evenodd" clip-rule="evenodd" d="M319 251.393H317.71V240.138C316.108 239.924 314.896 239.761 313.62 239.591C310.521 214.261 308.661 188.985 308.142 163.63C307.796 146.712 308.121 129.781 307.813 112.862C307.226 80.494 306.412 48.1311 305.667 15.7669C305.536 10.0556 305.529 9.76541 299.864 8.86965C294.5 8.02101 290.584 6.33942 291.141 0C286.522 1.14451 285.343 2.55725 285.284 7.03228C285.16 16.6356 285.28 26.249 284.864 35.8404C284.025 55.1257 282.963 74.4027 281.867 93.676C280.646 115.139 279.123 136.585 278.032 158.054C277.013 178.078 276.331 198.12 275.623 218.159C275.404 224.38 275.59 230.615 275.59 237.21H263.099C262.992 239.21 262.905 240.841 262.798 242.831H253.262C253.155 244.746 253.068 246.294 252.981 247.841C252.815 247.736 252.649 247.63 252.482 247.526C251.691 248.536 250.892 249.556 250 250.697V253C273 253 296 252.999 319 252.999V251.393Z" fill="#02316B"/>
</g>
<path id="Fill 4" fill-rule="evenodd" clip-rule="evenodd" d="M358.515 251.518C355.122 251.515 354.118 250.437 353.787 247.015C352.439 233.114 351.02 219.207 349.028 205.387C347.887 197.472 348.937 190.043 350.938 182.886C349.695 181.84 348.07 180.463 348.257 179.401C348.969 175.359 350.265 171.419 351.167 168.092C350.09 166.729 348.293 165.445 348.455 164.487C349.117 160.555 350.374 156.72 351.434 152.77C350.495 152.572 349.516 152.367 348.014 152.052C349.147 147.281 350.244 142.664 351.208 138.607C350.201 137.707 348.338 136.695 348.458 136.042C349.182 132.09 350.361 128.222 351.13 125.304C350.015 123.711 348.408 122.449 348.561 121.454C349.189 117.378 350.355 113.382 351.335 109.308C350.505 109.096 349.452 108.827 348.128 108.489C349.23 103.943 350.28 99.6167 351.397 95.0094C348.676 95.6266 347.876 93.9867 348.372 91.6875C349.244 87.6449 350.374 83.6568 351.418 79.5577C350.516 79.3915 349.346 79.3535 348.331 78.9411C347.331 78.535 346.481 77.7591 345.577 77.1288C344.398 76.3068 342.808 75.7199 342.128 74.5951C338.142 68.0051 339.782 61.1999 341.851 54.3347C340.572 54.074 339.384 53.832 338.185 53.5871C337.408 50.7431 339.335 47.1481 335.459 45.511C335.215 45.4082 335.298 44.4372 335.304 43.8703C335.338 40.4312 335.446 36.992 335.422 33.5536C335.411 32.0343 335.147 30.5179 334.998 29C334.618 29.0407 334.238 29.0807 333.86 29.1207C333.86 33.866 333.912 38.6113 333.819 43.3545C333.799 44.3841 333.323 45.4248 332.948 46.4206C332.553 47.4688 331.806 48.4294 331.613 49.4991C331.377 50.8107 331.557 52.1962 331.557 53.6044C330.021 53.9051 328.837 54.1361 328.343 54.2333C328.823 59.0579 329.821 63.6232 329.53 68.1058C329.336 71.1098 327.962 74.6144 325.907 76.7475C324.171 78.5487 320.698 78.6991 318.302 79.4797C319.124 82.952 319.723 86.387 320.779 89.6765C321.741 92.6743 321.913 94.9501 318.489 95.3314C319.147 98.3775 319.503 101.314 320.448 104.052C321.438 106.921 322.59 109.429 318.445 109.356C319.212 112.853 319.605 116.259 320.749 119.396C321.872 122.474 321.662 124.225 318.437 124.285C319.128 127.431 319.31 130.597 320.546 133.286C322.042 136.538 321.701 138.085 318.083 138.089C318.603 139.576 319.142 140.804 319.456 142.087C319.918 143.976 319.966 145.996 320.639 147.795C322.191 151.936 322.3 151.896 318.405 152.828C319.11 156.005 319.39 159.336 320.624 162.272C321.951 165.427 321.614 167.028 318.453 167.243C319.183 170.459 319.858 173.507 320.575 176.546C320.905 177.942 321.919 179.533 321.517 180.643C321.129 181.721 319.327 182.297 318.506 182.851C319.53 187.314 321.739 191.875 321.37 196.221C319.911 213.437 317.534 230.575 315.784 247.771C315.472 250.827 314.554 251.51 311.655 251.491C311.437 251.49 311.219 251.49 311 251.488V253C326.838 253 342.677 252.999 358.515 252.999V251.518Z" fill="#02316B"/>
<path id="Fill 6" fill-rule="evenodd" clip-rule="evenodd" d="M399.789 237.765C399.791 238.942 399.843 240.013 398.103 240C392.227 239.956 386.35 239.984 380.005 239.984V233.223C380.007 226.884 379.979 220.545 380.039 214.208C380.048 213.226 380.249 212.136 380.717 211.286C383.471 206.293 386.326 201.355 389.161 196.406C389.379 196.025 389.701 195.703 390.251 195C393.469 200.601 396.877 205.764 399.412 211.312C400.483 213.656 399.76 216.808 399.775 219.594C399.804 225.651 399.777 231.708 399.789 237.765V237.765ZM380.088 196.412C380.102 195.936 381.162 195.141 381.783 195.093C383.945 194.93 386.127 195.031 389 195.031C386.057 200.351 383.389 205.175 380.721 210C380.484 209.938 380.247 209.877 380.011 209.816C380.011 205.347 379.958 200.877 380.088 196.412V196.412ZM399.992 201.958C400.022 204.237 399.997 206.518 399.379 209C396.983 204.573 394.587 200.146 392 195.368C399.886 194.531 399.894 194.53 399.992 201.958V201.958ZM424 251.603C423.738 251.573 423.49 251.544 423.281 251.525C422.586 247.709 421.506 244.195 421.391 240.649C421.14 232.965 421.68 225.254 421.365 217.576C420.598 198.901 422.413 180.21 420.29 161.516C418.939 149.609 419.074 137.532 418.513 125.533C418.48 124.834 418.247 123.57 418.002 123.543C415.45 123.264 416.189 121.38 416.125 119.928C416.051 118.241 416.615 116.271 415.928 114.921C414.649 112.416 412.194 110.482 412.666 107.23C410.328 106.502 411.187 104.551 411.159 103.039C411.078 98.7061 411.13 94.3714 411.13 90.0373C410.883 90.0322 410.634 90.0271 410.387 90.0226C410.387 93.1263 410.573 96.2441 410.339 99.3304C410.042 103.252 409.425 107.151 408.882 111.052C408.829 111.431 408.402 111.921 408.032 112.069C405.314 113.164 405.295 115.478 405.067 117.89C404.875 119.917 406.524 122.694 403.152 123.74C403.012 123.783 402.953 124.24 402.938 124.508C402.746 127.852 402.688 131.112 401.795 134.487C400.723 138.548 401.124 143.003 400.934 147.29C400.454 158.132 399.978 168.974 399.552 179.817C399.456 182.249 399.503 184.693 399.62 187.125C399.708 188.964 398.993 189.614 397.162 189.582C392.282 189.498 387.398 189.503 382.517 189.582C380.747 189.612 380.073 189.09 380.008 187.193C379.722 178.844 380.616 170.509 379.064 162.122C377.906 155.859 378.321 149.309 378.001 142.888C377.71 137.057 377.39 131.227 377.034 125.398C376.992 124.721 376.696 123.504 376.434 123.481C374.142 123.275 374.407 121.454 374.787 120.34C376.554 115.16 370.792 112.074 371.353 107.3C371.359 107.241 371.245 107.119 371.172 107.105C368.741 106.651 369.578 104.725 369.555 103.306C369.48 98.8715 369.527 94.4352 369.527 90C368.971 94.6666 369.153 99.3394 368.898 103.988C368.759 106.499 367.894 108.974 367.295 111.451C367.224 111.744 366.812 112.046 366.491 112.174C363.983 113.17 364.033 115.294 363.769 117.518C363.521 119.608 365.456 122.532 361.896 123.667C361.745 123.716 361.657 124.161 361.648 124.425C361.529 127.838 361.306 131.112 360.293 134.536C359.11 138.538 359.611 143.046 359.435 147.337C359.002 157.909 358.506 168.481 358.22 179.059C358.03 186.09 358.152 193.128 358.147 200.164C358.143 206.453 358.133 212.741 358.169 219.029C358.228 229.748 358.476 240.471 357.024 251.135C357.003 251.287 356.79 251.414 356.755 251.454H355V253C378 253 401 252.999 424 252.999V251.603Z" fill="#02316B"/>
</g>
</svg>
