<?xml version="1.0" encoding="utf-8"?>
<svg width="543px" height="215px" viewBox="0 0 543 215" version="1.1" xmlns:xlink="http://www.w3.org/1999/xlink" xmlns="http://www.w3.org/2000/svg">
  <g id="Group-5" transform="translate(0.5 0.5)">
    <g id="Group-3" transform="translate(170 47)">
      <path d="M310 167L335 167L335 81L310 81L310 167Z" id="Fill-3" fill="#02316B" fill-opacity="0.5019608" fill-rule="evenodd" stroke="none" />
      <path d="M350 167L372 167L372 108L350 108L350 167Z" id="Fill-3-Copy-3" fill="#02316B" fill-opacity="0.5019608" fill-rule="evenodd" stroke="none" />
      <path d="M16.5129 17.2609C17.9541 18.3914 18 22 18 22L17.5938 21.9639C17.9979 23.3726 18.0153 24.7486 18.0153 24.7486L18.0136 24.748C18.8457 26.524 18.8201 28.7596 18.8201 28.7596C19.3335 29.792 19.523 30.6944 19.523 30.6944L21.6442 30.6944L21.6442 31.6363L24.5133 31.6363L24.5133 48.4917L26.2839 48.4917L26.2839 133.77L30 133.77L30 167L0 167L0 133.77L3.71644 133.77L3.71644 48.4917L5.48699 48.4917L5.48699 31.6363L8.35575 31.6363L8.35575 30.6944L10.477 30.6944C10.477 30.6944 10.6667 29.792 11.1799 28.7596C11.1799 28.7596 11.1543 26.524 11.9864 24.748L11.9847 24.7486C11.9847 24.7486 12.0205 21.9348 13.1713 20.2355C13.3525 19.1513 13.7244 17.8591 14.4871 17.2609L15.2592 0L15.7408 0L16.5129 17.2609Z" id="Combined-Shape" fill="#02316B" fill-opacity="0.5" fill-rule="evenodd" stroke="none" />
      <path d="M142.021 53C142.021 53 140.975 41 153.5 41C166.025 41 164.979 53 164.979 53L167.34 53L167.34 76.9039L172 76.9039L172 167L134 167L134 76.9039L138.66 76.9039L138.66 53L142.021 53Z" id="Combined-Shape" fill="#02316B" fill-opacity="0.5019608" fill-rule="evenodd" stroke="none" />
      <path d="M204 167L204 90.3343L213.507 79L229 79L229 167L204 167Z" id="Fill-20" fill="#02316B" fill-opacity="0.5" fill-rule="evenodd" stroke="none" />
      <path d="M310 80.7454L300.98 75.9019L292.947 75.9019L292.947 69L289.832 69L281.168 69L278.053 69L278.053 75.9019L270.019 75.9019L261 80.7454L261 167L285.5 166.966L310 167L310 80.7454Z" id="Fill-23" fill="#02316B" fill-opacity="0.5019608" fill-rule="evenodd" stroke="none" />
      <path d="M171 167L203 167L203 103L171 103L171 167Z" id="Fill-25" fill="#02316B" fill-opacity="0.5" fill-rule="evenodd" stroke="none" />
      <path d="M47 167L54 167L54 166L47 166L47 167Z" id="Fill-9" fill="#02316B" fill-rule="evenodd" stroke="none" />
      <path d="M237 167L261 167L261 61L237 61L237 167Z" id="Fill-21" fill="#02316B" fill-opacity="0.5" fill-rule="evenodd" stroke="none" />
      <path d="M185 156L185 167L182 167L185 156Z" id="Path" fill="#02316B" fill-rule="evenodd" stroke="none" />
      <path d="M189 167L186 167L186 156L189 167Z" id="Path" fill="#02316B" fill-rule="evenodd" stroke="none" />
    </g>
    <g id="Group-4">
      <path d="M20 214L52 214L52 128L20 128L20 214Z" id="Fill-3-Copy" fill="#02316B" fill-opacity="0.5019608" fill-rule="evenodd" stroke="none" />
      <path d="M0 214L22 214L22 155L0 155L0 214Z" id="Fill-3-Copy-2" fill="#02316B" fill-opacity="0.5019608" fill-rule="evenodd" stroke="none" />
      <g id="Group-3" transform="translate(49 0)">
        <path d="M111 140.304L111 214L122 214L133 214L133 140.304L122 125L111 140.304Z" id="Fill-1" fill="#02316B" fill-rule="evenodd" stroke="none" />
        <path d="M55.7412 97L50.0474 109.661L46 109.661L46 214L70 214L70 97L55.7412 97Z" id="Fill-2" fill="#02316B" fill-rule="evenodd" stroke="none" />
        <path d="M255.925 123L252.075 123L250.005 123L245.021 127.639L240 127.639L240 154.702L240 214L252.075 214L255.925 214L268 214L268 154.702L268 127.639L262.978 127.639L257.995 123L255.925 123Z" id="Fill-5" fill="#02316B" fill-rule="evenodd" stroke="none" />
        <path d="M92.0439 21L91.9561 21L91.7169 21L91.2928 47.869L90.6667 47.869L87.0303 75.0978L84.3635 75.0978L84.3635 78.5761L82.3028 78.5761L82.3028 81.3351L82.9502 81.3351L82.9502 87.932L81.5757 87.932L81.5757 99.8073L81.4542 99.8073L77.0907 105.805L77.0907 185.512L74 188.571L74 214L87.5754 214L87.6362 214L88.4848 214L89.6969 214L91.5151 214L92.4846 214L94.3031 214L95.5152 214L96.3635 214L96.4243 214L110 214L110 188.571L106.909 185.512L106.909 105.805L102.546 99.8073L102.424 99.8073L102.424 87.932L101.05 87.932L101.05 81.3351L101.697 81.3351L101.697 78.5761L99.6365 78.5761L99.6365 75.0978L96.97 75.0978L93.3336 47.869L92.7069 47.869L92.2831 21L92.0439 21Z" id="Fill-6" fill="#02316B" fill-rule="evenodd" stroke="none" />
        <path d="M22 214L67 214L67 115L22 115L22 214Z" id="Fill-7" fill="#02316B" fill-rule="evenodd" stroke="none" />
        <path d="M278 214L313 214L313 149L278 149L278 214Z" id="Fill-17" fill="#02316B" fill-rule="evenodd" stroke="none" />
        <path d="M325.019 55.3717L325.019 50.0357L320.833 50.0357L317.067 33.8531L317.023 33.8632L317.023 6L315.944 6L315.944 33.8555L315.933 33.8531L312.168 50.0357L307.981 50.0357L307.981 55.3717L303 55.3717L303 57.9605L303 214L305.16 214L316.5 214L327.84 214L330 214L330 57.9605L330 55.3717L325.019 55.3717Z" id="Path" fill="#02316B" fill-rule="evenodd" stroke="none" />
        <path d="M380.302 140.848L377.686 140.848L377.686 99.0928L374.867 99.0928L374.867 71.4815L369.532 65.5632L369.525 65.5632L369.525 59.8647L362.292 48.123L362.292 34L361.667 34L361.334 34L360.708 34L360.708 48.123L353.475 59.8647L353.475 65.5632L353.468 65.5632L348.134 71.4815L348.134 99.0928L345.314 99.0928L345.314 140.848L342.698 140.848L340 147.572L341.267 147.572L341.267 214L381.733 214L381.733 147.572L383 147.572L380.302 140.848Z" id="Fill-24" fill="#02316B" fill-rule="evenodd" stroke="none" />
        <path d="M491.584 154.52C492.317 153.524 493 151.892 493 151.892L489.069 149.21C489.069 149.21 488.336 149.63 488.283 149.788C488.233 149.945 488.336 150.262 487.761 150.471C487.184 150.681 486.607 150.996 486.292 151.154C485.98 151.311 486.242 151.628 485.35 151.154C484.461 150.679 482.364 146.948 482.156 146.316C481.947 145.685 481.369 144.371 480.951 143.791C480.529 143.213 478.96 142.003 478.489 141.635C478.018 141.267 477.073 140.373 476.811 139.9C476.55 139.427 476.917 136.797 476.811 136.271C476.708 135.746 476.29 135.378 476.5 134.588C476.674 133.93 476.811 132.9 476.855 131.997L483.084 130.485L476.643 130.248C476.557 129.997 476.435 129.729 476.271 129.459L481.353 125.982L475.007 128.122C474.849 128.009 474.677 127.899 474.491 127.795L475.955 121.27L472.797 127.134C472.433 127.039 472.039 126.959 471.608 126.897L469.567 120.307L469.75 126.922C469.498 126.969 469.235 127.039 468.975 127.141L463.393 122.984L467.474 128.28C467.44 128.327 467.408 128.378 467.375 128.428L462.059 128.044C461.822 127.103 460.558 122.153 460.311 121.757C460.048 121.336 459.839 120.127 459.576 119.496C459.315 118.863 459.419 115.868 459.315 115.393C459.21 114.919 459.21 114.13 458.949 113.71C458.686 113.289 458.267 112.659 458.11 112.553C457.954 112.449 457.638 111.764 457.534 111.239C457.428 110.712 457.481 109.503 457.534 109.345C457.587 109.187 457.691 108.031 457.691 108.031C457.691 108.031 458.163 108.293 458.737 107.557C459.313 106.82 459.681 106.137 459.681 105.823C459.681 105.507 459.628 104.824 459.628 104.824C459.628 104.824 458.527 103.982 458.003 103.877C457.48 103.771 457.951 102.982 458.003 102.825C458.056 102.666 458.632 102.666 459.209 101.352C459.784 100.036 459.784 99.8799 459.784 99.4595C459.784 99.0378 460.257 98.933 459.784 99.0378C459.312 99.1439 458.946 99.1439 458.842 99.5126C458.736 99.8799 458.684 100.196 458.37 100.196C458.056 100.196 457.47 99.5643 457.47 99.5643C457.47 99.5643 456.955 99.0894 456.693 99.3534C456.432 99.616 456.065 99.3003 455.54 99.7207C455.015 100.143 454.754 100.089 454.65 100.51C454.544 100.93 454.176 101.141 454.176 101.719C454.176 102.298 454.124 102.508 454.491 102.981C454.857 103.455 454.804 103.928 454.804 103.928C454.804 103.928 454.275 104.348 454.172 104.401C454.072 104.454 453.129 104.454 452.814 104.823C452.501 105.191 452.081 105.612 452.028 106.085C451.975 106.557 451.715 107.084 452.028 107.504C452.343 107.926 452.553 108.557 452.972 108.872C453.392 109.187 453.914 108.82 454.019 109.714C454.124 110.608 453.914 111.976 453.914 112.659C453.914 113.341 453.862 114.183 454.019 114.921C454.175 115.657 454.491 116.341 454.648 116.866C454.804 117.391 454.961 118.023 455.014 118.707C455.067 119.39 455.067 120.021 455.171 120.39C455.276 120.759 456.272 129.594 458.314 133.274C458.314 133.274 456.166 139.428 456.532 141.111C456.532 141.111 456.428 143.005 458.209 142.95C458.209 142.95 458.314 144.843 459.834 144.843C459.834 144.843 460.043 146.948 460.306 147.473C460.567 147.999 460.567 148.735 460.41 149.209C460.254 149.682 459.625 150.471 460.148 151.05C460.671 151.628 461.039 151.943 461.249 152.154C461.459 152.364 461.51 153.205 461.249 154.048C460.987 154.889 460.62 155.731 460.62 155.731C460.62 155.731 459.678 156.677 459.468 157.833C459.259 158.992 458.945 159.833 459.049 160.727C459.155 161.621 459.311 162.515 459.572 163.093C459.835 163.671 460.097 164.356 460.358 164.67C460.62 164.984 460.358 165.881 460.044 167.142C459.729 168.404 459.729 168.666 459.678 169.455C459.625 170.244 459.311 171.033 459.416 172.033C459.521 173.032 459.678 173.138 459.941 173.716C460.202 174.294 460.045 174.451 460.308 175.818C460.57 177.187 460.884 177.345 460.831 177.87C460.779 178.396 460.831 180.132 460.779 181.025C460.726 181.919 460.411 182.131 460.465 183.708C460.518 185.286 460.674 185.759 460.937 186.547C461.199 187.336 461.763 190.335 461.665 191.597C461.566 192.86 461.449 193.07 461.665 194.698C461.88 196.329 462.718 198.589 462.824 199.117C462.928 199.642 462.614 200.169 462.509 200.694C462.405 201.219 462.299 201.535 462.718 202.166C463.138 202.799 463.191 202.902 462.824 203.64C462.456 204.376 462.456 204.271 462.299 204.901C462.142 205.532 462.025 205.638 461.665 206.112C461.303 206.586 461.096 206.901 460.099 207.269C459.103 207.638 458.633 207.216 458.004 207.954C457.375 208.688 454.442 209.321 454.232 209.321C454.075 209.321 453.443 209.469 453.138 210.214L451.772 210.214C449.689 210.214 448 211.909 448 214L491.012 214C491.012 211.909 489.323 210.214 487.242 210.214L485.517 210.214C485.022 209.38 484.359 208.222 484.201 207.743C483.939 206.954 483.939 206.427 483.676 205.533C483.415 204.641 483.518 204.01 483.205 202.589C482.89 201.169 482.733 200.695 482.733 199.855C482.733 199.012 482.574 198.961 483.205 198.12C483.832 197.278 483.885 196.698 483.938 196.173C483.991 195.646 484.147 193.807 483.885 193.071C483.623 192.335 483.413 192.019 483.676 191.283C483.939 190.547 484.095 190.547 484.254 189.758C484.41 188.97 484.62 189.075 484.725 188.076C484.828 187.078 484.934 186.342 484.987 185.445C485.037 184.551 485.037 182.079 485.037 182.079C485.037 182.079 483.782 174.664 483.729 174.086C483.676 173.506 483.729 172.244 483.676 171.298C483.623 170.353 483.099 168.72 483.623 169.09C484.148 169.458 485.404 170.087 486.085 169.512C486.765 168.932 487.973 168.775 488.443 167.829C488.915 166.882 489.229 166.829 489.491 165.83C489.753 164.83 490.066 164.568 490.171 163.936C490.277 163.305 490.327 161.317 490.59 161.101C490.853 160.885 491.323 160.938 491.638 159.992C491.952 159.045 492.318 159.045 492.318 157.941C492.318 156.836 492.318 156.731 491.952 155.942C491.584 155.153 490.85 155.52 491.584 154.52ZM466.943 133.362C467.173 134.061 466.632 134.643 466.687 134.759C466.742 134.875 466.643 136.349 466.179 135.923C465.717 135.495 465.452 135.264 465.286 135.071C465.122 134.875 465.153 134.837 464.822 133.866C464.491 132.897 464.459 132.238 464.161 131.888C464.109 131.828 464.055 131.75 464 131.655L466.533 131C466.616 131.67 466.78 132.871 466.943 133.362ZM462.354 130.107C462.229 129.526 462.105 128.569 462 128L467 129.856C466.997 129.887 466.993 129.915 466.991 129.945L463.799 132C463.588 131.639 463.365 131.264 463.14 131.033C462.69 130.569 462.502 130.801 462.354 130.107Z" id="Shape" fill="#02316B" stroke="none" />
        <path d="M0 214L24 214L24 157L0 157L0 214Z" id="Fill-27" fill="#02316B" fill-rule="evenodd" stroke="none" />
        <path d="M171 42.5706L171 0L173 0L173 42.0845L177.463 41L179 41.1917L179 0L181 0L181 41.4411L187.148 42.2076L187.148 77.6844L193.083 77.6844L193.083 80.5815L196.541 80.5815L196.541 126.99L204 126.99L204 214L156 214L156 128L161.859 126.99L161.859 79.6045L165.817 78.5617L165.817 43.8301L171 42.5706Z" id="Combined-Shape" fill="#02316B" fill-rule="evenodd" stroke="none" />
        <path d="M241.647 214L238.561 197.858L239.911 196.506L239.621 194.675L239.72 193.711L240.395 193.421L237.598 191.783L230.384 126.091L230.384 104.032L234.949 73.5177C234.949 73.5177 240.637 72.5518 242.662 70.7186C242.662 70.7186 241.505 69.6577 240.54 69.2706L240.927 68.113C240.927 68.113 246.93 67.4786 247 65.701C247.032 64.9286 244.013 63.9645 243.146 63.8695L243.146 62.5184C243.146 62.5184 236.202 59.4308 230.901 57.6961C230.901 57.6961 229.938 57.2123 230.901 56.1532C231.865 55.0941 232.83 54.9955 231.963 54.6103C231.095 54.225 230.473 54.1282 230.473 54.1282L230.473 53.0674L229.261 52.4885L229.261 51.5244C229.261 51.5244 227.334 50.6571 226.272 50.5603C226.055 50.5406 225.899 50.5281 225.787 50.5227L225.787 50.4636L225.564 50.5191C225.543 50.5209 225.53 50.5245 225.529 50.5281L225.5 50.5352L225.5 41L224.922 41L224.922 50.5406C224.862 50.546 224.8 50.5514 224.728 50.5585C223.668 50.6553 221.739 51.5244 221.739 51.5244L221.739 52.4885L220.528 53.0674L220.528 54.13C220.528 54.13 219.907 54.2268 219.038 54.6121C218.172 54.9991 219.135 55.0959 220.099 56.155C221.062 57.214 220.099 57.6979 220.099 57.6979C214.798 59.4343 207.856 62.5202 207.856 62.5202L207.856 63.8713C206.989 63.9681 203.97 64.9322 204 65.7028C204.072 67.4804 210.075 68.1148 210.075 68.1148L210.46 69.2724C209.495 69.6595 208.338 70.7204 208.338 70.7204C210.361 72.5518 216.051 73.5195 216.051 73.5195L220.004 103.713L219.715 126.09L211.407 192.073L209.11 193.419L209.785 193.709L209.882 194.673L209.591 196.505L210.942 197.856L207.856 213.998L212.258 213.998L214.273 199.078L230.767 199.078L232.18 213.998M223 74L223 106C223 106 220 74.7717 220 74C220.001 74 221.822 74 223 74ZM218.07 163.462L223.543 121L228 164L218 164L218.07 163.462ZM215 190L217.492 166L228.581 166L230 190L215 190ZM228.844 97C227.637 97.0253 228.038 74.1676 228.173 73C228.173 73 231.659 73.2603 233 73C232.998 73 231.184 96.953 228.844 97Z" id="Shape" fill="#02316B" stroke="none" />
      </g>
    </g>
  </g>
</svg>