<?xml version="1.0" encoding="utf-8"?>
<svg width="116px" height="92px" viewBox="0 0 116 92" version="1.1" xmlns:xlink="http://www.w3.org/1999/xlink" xmlns="http://www.w3.org/2000/svg">
  <g id="Group-28" transform="translate(1 1)">
    <g id="Group-27">
      <path d="M51.4047 19.6811C51.4047 19.6811 48.7393 43.1045 68.3756 37.3542C68.3756 37.3542 77.2122 19.9612 51.4047 19.6811" id="Fill-1" fill="#9BAEC5" fill-rule="evenodd" stroke="none" />
      <path d="M102.269 4.03317C102.269 4.03317 78.8453 1.36776 84.5957 21.0041C84.5957 21.0041 101.989 29.8406 102.269 4.03317" id="Fill-3" fill="#9BAEC5" fill-rule="evenodd" stroke="none" />
      <path d="M76.4218 11.5278L76.4218 46.8586" id="Stroke-5" fill="none" fill-rule="evenodd" stroke="#213563" stroke-width="2" stroke-linecap="round" stroke-linejoin="round" />
      <path d="M61.7433 24.6973L75.8889 38.8429" id="Stroke-7" fill="none" fill-rule="evenodd" stroke="#213563" stroke-width="2" stroke-linecap="round" stroke-linejoin="round" />
      <path d="M78.011 23.6364L90.9186 10.7288" id="Stroke-9" fill="none" fill-rule="evenodd" stroke="#213563" stroke-width="2" stroke-linecap="round" stroke-linejoin="round" />
      <path d="M52.0944 15.4984C52.0944 15.4984 49.429 38.9218 69.0653 33.1715C69.0653 33.1715 77.9018 15.7785 52.0944 15.4984Z" id="Stroke-11" fill="none" fill-rule="evenodd" stroke="#213563" stroke-width="2" stroke-linecap="round" stroke-linejoin="round" />
      <path d="M101.06 0.121511C101.06 0.121511 77.6368 -2.5439 83.3871 17.0924C83.3871 17.0924 100.78 25.929 101.06 0.121511Z" id="Stroke-13" fill="none" fill-rule="evenodd" stroke="#213563" stroke-width="2" stroke-linecap="round" stroke-linejoin="round" />
      <path d="M28.6872 51.4828L40.4117 51.4828C41.9529 51.4828 43.48 51.7654 44.9189 52.3179L60.6837 58.3676C62.0305 58.8843 63.4591 59.149 64.9005 59.149L73.8688 59.149C76.5815 59.149 78.7993 61.3144 78.862 64.0271L78.862 64.0271C78.9272 66.8294 76.6723 69.1379 73.8688 69.1379L61.9729 69.1379C59.9227 69.1379 57.9569 69.9514 56.5065 71.4017L53.8923 74.016" id="Stroke-15" fill="none" fill-rule="evenodd" stroke="#213563" stroke-width="2" stroke-linecap="round" stroke-linejoin="round" />
      <path d="M27.5258 79.823L36.2382 79.823L60.9943 88.9064C65.7867 90.6637 71.1009 90.2902 75.6004 87.8793L110.624 69.4517C112.942 68.2328 113.904 65.4165 112.814 63.035L112.814 63.035C111.795 60.8044 109.292 59.661 106.938 60.3517L78.2837 67.8593" id="Stroke-17" fill="none" fill-rule="evenodd" stroke="#213563" stroke-width="2" stroke-linecap="round" stroke-linejoin="round" />
      <path d="M0 45.2107L26.8306 45.2107L26.8306 82.4945L0 82.4945" id="Stroke-19" fill="none" fill-rule="evenodd" stroke="#213563" stroke-width="2" stroke-linecap="round" stroke-linejoin="round" />
      <path d="M56.4804 56.8238C60.8047 50.9827 68.242 47.1278 76.691 47.1278C87.6276 47.1278 96.4335 52.9562 99.4225 61.8196" id="Stroke-21" fill="none" fill-rule="evenodd" stroke="#213563" stroke-width="2" stroke-linecap="round" stroke-linejoin="round" />
      <path d="M19.8599 74.3044C19.8599 75.6832 18.7421 76.801 17.3633 76.801C15.9833 76.801 14.8654 75.6832 14.8654 74.3044C14.8654 72.9257 15.9833 71.8078 17.3633 71.8078C18.7421 71.8078 19.8599 72.9257 19.8599 74.3044Z" id="Stroke-23" fill="none" fill-rule="evenodd" stroke="#213563" stroke-width="2" stroke-linecap="round" stroke-linejoin="round" />
      <path d="M9.67031 74.3044C9.67031 75.6832 8.55247 76.801 7.17372 76.801C5.79369 76.801 4.67586 75.6832 4.67586 74.3044C4.67586 72.9257 5.79369 71.8078 7.17372 71.8078C8.55247 71.8078 9.67031 72.9257 9.67031 74.3044Z" id="Stroke-25" fill="none" fill-rule="evenodd" stroke="#213563" stroke-width="2" stroke-linecap="round" stroke-linejoin="round" />
    </g>
  </g>
</svg>