<?xml version="1.0" encoding="utf-8"?>
<svg width="89px" height="102px" viewBox="0 0 89 102" version="1.1" xmlns:xlink="http://www.w3.org/1999/xlink" xmlns="http://www.w3.org/2000/svg">
  <defs>
    <path d="M0 0L20.339 0L20.339 32.2034L0 32.2034L0 0Z" id="path_1" />
    <clipPath id="mask_1">
      <use xlink:href="#path_1" />
    </clipPath>
  </defs>
  <g id="Group-38" transform="translate(1 1)">
    <g id="Group-37">
      <g id="Group-36">
        <path d="M67.7654 45.1403L69.7388 46.012L70.9221 48.7262L71.9088 47.8532L71.9088 45.8188L69.6392 43.4922L69.9354 41.6509L70.1319 40.2951L72.3019 40.2951L72.8942 37.7753L71.5143 32.0572L67.9633 28.179L63.6718 27.0164L62.6366 22.8498L64.7083 21.3948L64.1213 20.339C77.4188 27.5932 86.4407 41.5325 86.4407 57.5074C86.4407 70.4334 80.5309 82.019 71.2352 89.8191L72.2272 88.1479L72.2272 86.8706L69.744 89.9312L68.9159 90.3058L68.9159 89.0788L69.1138 88.3436L70.0598 87.5298L68.5621 86.6787L67.1037 87.7629L66.6699 88.305L65.5653 89.0801L64.8957 88.4208L64.1855 88.3822C64.1855 88.3822 62.7271 90.047 62.5698 90.3058C62.4126 90.5659 61.743 90.3058 61.743 90.3058L60.4824 90.8595L59.3384 92.0994L57.2104 92.7188L54.1756 93.7643L53.1902 95.5077L50.373 98.5669L51.6532 98.2193L54.4914 97.6L56.7387 97.4454L57.027 97.7596C52.6818 99.2043 48.0353 100 43.2 100C32.4341 100 22.5815 96.1051 15.005 89.6852L15.005 89.4045L14.5909 87.8234L12.9372 86.1521L9.90372 82.8546L9.62723 80.7765L9.58137 79.5121L9.94827 77.8408L10.5917 76.4863L10.5917 73.9562L10.5458 71.6978L10.0859 70.7038L8.29328 71.2008L6.68416 71.2008L4.70682 68.3102L3.65067 67.5428L3.32832 66.0067L2.31672 65.0127L2.31672 63.071L1.7192 62.3912L1.58161 61.4423L0.984082 59.0937L0.984082 58.0109L2.04023 60.4495L3.18942 62.0307L3.18942 63.747L3.87867 64.741L4.982 66.9994L6.4994 69.4381L9.67179 67.4964L10.2693 66.366L12.9346 64.696L12.9818 63.6118L13.9462 61.759L13.5334 60.6298L11.8326 60.1341L10.6821 58.9585L9.9011 60.2693L8.38501 60.2693L8.1557 59.2302L7.46645 59.5006L7.23713 58.4615L5.81146 56.6551L6.13381 55.616L7.19127 55.616L8.29459 57.107L9.53551 57.7843L10.7292 57.5087L12.1091 58.7319L14.1768 58.9135L18.176 59.0937L19.3724 60.0427L20.6133 60.5847L21.9459 60.6298L20.8898 61.1719L21.9459 62.4363L23.3258 62.8882L24.015 61.3985L24.015 64.1075L27.646 70.2055L30.4961 73.4579C30.4961 73.4579 31.6453 72.1485 31.8287 71.9218C32.0135 71.6965 31.8287 70.387 31.8287 70.387L31.8287 68.0836L32.611 66.5024L35.8738 63.4303L37.2536 61.8491L40.1954 60.765L41.4363 60.5847L43.2 62.3011L44.7463 64.7397L45.3438 66.366L47.3198 65.5522L48.0562 66.863L49.1582 69.9351L48.7455 72.6442L49.2054 72.9609L49.8488 73.503L50.7215 74.7674L51.2732 76.8906L53.848 78.4267L53.4798 76.0318L53.0199 74.7223L51.1356 73.7283L50.9063 72.6673L50.0781 71.9669L49.8488 71.3798L50.6023 68.9836L51.8851 69.6621L55.0418 72.6661L55.6341 71.6965L57.9023 71.2124L59.383 69.8553L58.1984 66.5604L55.6341 64.8157L55.6341 62.6835L57.7057 61.6174L59.7761 62.6835L60.2701 61.2285L63.9195 60.5513L67.4693 57.5087L68.5542 53.185L66.286 48.7275L64.6087 47.0794L67.4693 45.9167L66.286 45.3347L63.8199 46.2064L67.7654 45.1403ZM0 55.8851C0.061587 54.2808 0.207037 52.6958 0.445523 51.1417L1.61044 51.0914L1.44664 53.8881L0.14545 55.8851L0 55.8851ZM4.51158 41.0947L4.36744 42.9913L3.16584 43.563L4.40413 44.172L4.40413 45.8175L3.49343 46.5682L2.36389 46.6042L1.49119 47.1412L1.27105 47.1206C1.70216 45.4428 2.24072 43.8076 2.86838 42.2149L4.51158 41.0947Z" id="Stroke-1" fill="none" fill-rule="evenodd" stroke="#213563" stroke-width="2" stroke-linecap="round" stroke-linejoin="round" />
        <path d="M32.4393 76.2712L32.2034 76.8621L32.3214 78.8034L33.3425 79.661L33.8983 78.5086L33.7017 77.6229L32.4393 76.2712Z" id="Stroke-3" fill="none" fill-rule="evenodd" stroke="#213563" stroke-width="2" stroke-linecap="round" stroke-linejoin="round" />
        <path d="M59.322 64.2342L59.322 63.5587L59.0795 63.2653L57.9301 62.7119L57.6271 63.507L58.081 64.4068L58.6869 64.4068L59.322 64.2342Z" id="Stroke-5" fill="none" fill-rule="evenodd" stroke="#213563" stroke-width="2" stroke-linecap="round" stroke-linejoin="round" />
        <path d="M18.431 88.2959L18.2289 87.4392L16.9492 86.4407L17.1513 87.4044L16.9492 88.8313L18.0609 90.5432C18.0609 90.5432 19.4075 92.1147 19.5755 92.2218C19.7448 92.3289 21.0915 93.2203 21.0915 93.2203L22.0339 93.2203L19.8118 90.2929L18.431 88.2959Z" id="Stroke-7" fill="none" fill-rule="evenodd" stroke="#213563" stroke-width="2" stroke-linecap="round" stroke-linejoin="round" />
        <path d="M74.2685 35.5932C74.2685 35.5932 74.5763 35.1697 74.5763 35.0107C74.5763 34.8517 73.2209 32.8385 73.2209 32.8385L72.8807 31.0376L71.1864 30.5085L71.9262 32.0448L72.7889 34.7473L74.2685 35.5932Z" id="Stroke-9" fill="none" fill-rule="evenodd" stroke="#213563" stroke-width="2" stroke-linecap="round" stroke-linejoin="round" />
        <path d="M74.7088 37.7583C74.7088 38.1505 74.8413 38.9335 74.8413 38.9335L75.9712 38.9335C75.9712 38.9335 76.1037 39.045 76.3032 38.9335C76.5027 38.822 77.9661 37.6468 77.9661 37.6468L77.6341 37.0317L77.6341 33.8983L76.5711 35.4656C76.5711 35.4656 76.4386 35.9692 76.2712 35.9692C76.1052 35.9692 74.9752 35.4656 74.9752 35.4656L74.5763 35.6335L74.8427 36.5844C74.8413 36.5832 74.7088 37.3662 74.7088 37.7583Z" id="Stroke-11" fill="none" fill-rule="evenodd" stroke="#213563" stroke-width="2" stroke-linecap="round" stroke-linejoin="round" />
        <g id="Group-15" transform="translate(52.542374 0)">
          <path d="M0 0L20.339 0L20.339 32.2034L0 32.2034L0 0Z" id="Clip-14" fill="none" fill-rule="evenodd" stroke="none" />
          <g clip-path="url(#mask_1)">
            <path d="M9.51579 0.0170106C4.49429 0.308621 0.424464 4.2249 0.0350259 9.01602C-0.225486 12.0984 0.986691 14.8482 3.02161 16.7642C5.22931 18.8476 7.76398 21.3468 8.8459 24.1388L9.46395 31.6146C9.56763 32.4011 10.7506 32.3986 10.8516 31.6133L11.4404 24.2629C12.5236 21.5131 14.8842 18.973 17.0919 16.9317C19.0843 15.1398 20.339 12.5985 20.339 9.76551C20.339 4.1827 15.4039 -0.316807 9.51579 0.0170106" id="Fill-13" fill="#9BAEC5" fill-rule="evenodd" stroke="none" />
          </g>
        </g>
        <path d="M58.6683 1.71236C53.6468 2.00397 49.577 5.9202 49.1876 10.7112C48.9271 13.7936 50.1392 16.5434 52.1741 18.4593C54.3819 20.5427 56.9165 23.0419 57.9984 25.8339L58.6165 33.3095C58.7202 34.0961 59.9031 34.0935 60.0041 33.3082L60.5929 25.9579C61.6762 23.2094 64.0367 20.6681 66.2444 18.6268C68.2368 16.835 69.4915 14.2937 69.4915 11.4607C69.4915 5.87799 64.5564 1.37855 58.6683 1.71236Z" id="Stroke-16" fill="none" fill-rule="evenodd" stroke="#213563" stroke-width="2" stroke-linecap="round" stroke-linejoin="round" />
        <path d="M62.7119 11.8644C62.7119 13.7369 61.1946 15.2542 59.322 15.2542C57.4495 15.2542 55.9322 13.7369 55.9322 11.8644C55.9322 9.99187 57.4495 8.47458 59.322 8.47458C61.1946 8.47458 62.7119 9.99187 62.7119 11.8644Z" id="Stroke-18" fill="none" fill-rule="evenodd" stroke="#213563" stroke-width="2" stroke-linecap="round" stroke-linejoin="round" />
        <path d="M40.0243 22.0513C35.0028 22.343 30.9329 26.2592 30.5435 31.0502C30.283 34.1326 31.4952 36.8824 33.5301 38.7983C35.7378 40.8817 38.2725 43.3808 39.3544 46.1729L39.9724 53.6485C40.0761 54.435 41.259 54.4325 41.3601 53.6472L41.9489 46.2969C43.0321 43.5484 45.3927 41.0071 47.6004 38.9658C49.5928 37.174 50.8475 34.6326 50.8475 31.7997C50.8475 26.217 45.9124 21.7175 40.0243 22.0513" id="Fill-20" fill="#9BAEC5" fill-rule="evenodd" stroke="none" />
        <path d="M38.3293 23.7463C33.3079 24.0379 29.238 27.9541 28.8486 32.7451C28.5881 35.8275 29.8002 38.5773 31.8352 40.4932C34.0429 42.5766 36.5775 45.0758 37.6595 47.8678L38.2775 55.3434C38.3812 56.13 39.5641 56.1274 39.6651 55.3421L40.2539 47.9918C41.3372 45.242 43.6977 42.702 45.9054 40.6607C47.8978 38.8689 49.1525 36.3276 49.1525 33.4946C49.1525 27.9119 44.2174 23.4124 38.3293 23.7463Z" id="Stroke-22" fill="none" fill-rule="evenodd" stroke="#213563" stroke-width="2" stroke-linecap="round" stroke-linejoin="round" />
        <path d="M42.3729 33.8983C42.3729 35.7708 40.8556 37.2881 38.9831 37.2881C37.1105 37.2881 35.5932 35.7708 35.5932 33.8983C35.5932 32.0258 37.1105 30.5085 38.9831 30.5085C40.8556 30.5085 42.3729 32.0258 42.3729 33.8983Z" id="Stroke-24" fill="none" fill-rule="evenodd" stroke="#213563" stroke-width="2" stroke-linecap="round" stroke-linejoin="round" />
        <path d="M17.9904 6.79711C12.9689 7.08872 8.89904 11.0049 8.5096 15.796C8.24909 18.8783 9.46127 21.6281 11.4962 23.544C13.7039 25.6275 16.2386 28.1266 17.3205 30.9186L17.9385 38.3942C18.0422 39.1808 19.2251 39.1783 19.3262 38.393L19.915 31.0427C20.9982 28.2942 23.3588 25.7528 25.5665 23.7116C27.5588 21.9197 28.8136 19.3784 28.8136 16.5455C28.8136 10.9627 23.8785 6.4633 17.9904 6.79711" id="Fill-26" fill="#9BAEC5" fill-rule="evenodd" stroke="none" />
        <path d="M16.2955 8.49203C11.274 8.78363 7.20413 12.6999 6.81469 17.4909C6.55418 20.5732 7.76635 23.323 9.80127 25.2389C12.009 27.3224 14.5436 29.8215 15.6256 32.6135L16.2436 40.0892C16.3473 40.8757 17.5302 40.8732 17.6312 40.0879L18.22 32.7376C19.3033 29.9878 21.6638 27.4477 23.8716 25.4065C25.8639 23.6147 27.1186 21.0733 27.1186 18.2404C27.1186 12.6577 22.1835 8.15821 16.2955 8.49203Z" id="Stroke-28" fill="none" fill-rule="evenodd" stroke="#213563" stroke-width="2" stroke-linecap="round" stroke-linejoin="round" />
        <path d="M20.339 16.9492C20.339 18.8217 18.8217 20.339 16.9492 20.339C15.0766 20.339 13.5593 18.8217 13.5593 16.9492C13.5593 15.0766 15.0766 13.5593 16.9492 13.5593C18.8217 13.5593 20.339 15.0766 20.339 16.9492Z" id="Stroke-30" fill="none" fill-rule="evenodd" stroke="#213563" stroke-width="2" stroke-linecap="round" stroke-linejoin="round" />
        <path d="M49.1525 14.0286C47.0199 13.7212 44.8364 13.5593 42.6139 13.5593C36.5063 13.5593 30.6968 14.7718 25.4237 16.9492" id="Stroke-32" fill="none" fill-rule="evenodd" stroke="#213563" stroke-width="2" stroke-linecap="round" stroke-linejoin="round" />
        <path d="M11.3992 27.9446C4.32398 35.5979 0 45.8066 0 57.021C0 80.7584 19.3509 100 43.2203 100C67.0897 100 86.4407 80.7584 86.4407 57.021C86.4407 41.4939 78.1583 27.8917 65.7478 20.339" id="Stroke-34" fill="none" fill-rule="evenodd" stroke="#213563" stroke-width="2" stroke-linecap="round" stroke-linejoin="round" />
      </g>
    </g>
  </g>
</svg>