<?xml version="1.0" encoding="utf-8"?>
<svg width="102px" height="100px" viewBox="0 0 102 100" version="1.1" xmlns:xlink="http://www.w3.org/1999/xlink" xmlns="http://www.w3.org/2000/svg">
  <defs>
    <rect width="101.52232" height="100" id="artboard_1" />
    <clipPath id="clip_1">
      <use xlink:href="#artboard_1" clip-rule="evenodd" />
    </clipPath>
  </defs>
  <g id="Group-34" clip-path="url(#clip_1)">
    <g id="Group-33">
      <path d="M38.3481 53.5268L38.3481 57.5222L43.5944 63.435C44.3044 64.145 44.7028 65.1085 44.7028 66.1119L44.7028 75.1072C44.7028 76.6285 43.4701 77.8613 41.9499 77.8613L41.6758 77.8613C40.1545 77.8613 38.9217 76.6285 38.9217 75.1072L38.9217 70.7182L38.9217 90.1191C38.9217 91.6405 37.6889 92.8733 36.1687 92.8733L36.1385 92.8733C34.6172 92.8733 33.3844 91.6405 33.3844 90.1191L33.3844 83.43L33.3844 95.6926C33.3844 97.214 32.1516 98.4468 30.6303 98.4468L30.2077 98.4468C28.6863 98.4468 27.4535 97.214 27.4535 95.6926L27.4535 83.5519L27.4535 91.6936C27.4535 93.215 26.2207 94.4478 24.6994 94.4478L24.3975 94.4478C22.8774 94.4478 21.6434 93.215 21.6434 91.6936L21.6434 83.0666L21.6434 89.8777C21.6434 91.399 20.4106 92.6318 18.8904 92.6318L18.8904 92.6318C17.3691 92.6318 16.1363 91.399 16.1363 89.8777L16.1363 68.7308C16.1363 67.1792 16.5601 65.6579 17.3618 64.3309L21.7653 57.038L21.7653 53.8903L38.3481 53.5268Z" id="Fill-1" fill="#9BAEC5" fill-rule="evenodd" stroke="none" />
      <path d="M56.2819 64.4402L60.2773 64.4402L66.1901 59.1939C66.9001 58.4839 67.8636 58.0855 68.867 58.0855L77.8623 58.0855C79.3837 58.0855 80.6164 59.3183 80.6164 60.8384L80.6164 61.1125C80.6164 62.6339 79.3837 63.8666 77.8623 63.8666L73.4733 63.8666L92.8742 63.8666C94.3956 63.8666 95.6284 65.0994 95.6284 66.6196L95.6284 66.6498C95.6284 68.1711 94.3956 69.4039 92.8742 69.4039L86.1851 69.4039L98.4477 69.4039C99.9691 69.4039 101.202 70.6367 101.202 72.1581L101.202 72.5807C101.202 74.102 99.9691 75.3348 98.4477 75.3348L86.307 75.3348L94.4487 75.3348C95.9701 75.3348 97.2029 76.5676 97.2029 78.0889L97.2029 78.3908C97.2029 79.9109 95.9701 81.1449 94.4487 81.1449L85.8217 81.1449L92.6328 81.1449C94.1541 81.1449 95.3869 82.3777 95.3869 83.8979L95.3869 83.8979C95.3869 85.4192 94.1541 86.652 92.6328 86.652L71.4859 86.652C69.9343 86.652 68.413 86.2282 67.086 85.4265L59.7931 81.023L56.6454 81.023L56.2819 64.4402Z" id="Fill-3" fill="#9BAEC5" fill-rule="evenodd" stroke="none" />
      <path d="M64.2277 46.8021L64.2277 42.8067L58.9814 36.8939C58.2714 36.1839 57.873 35.2204 57.873 34.217L57.873 25.2217C57.873 23.7004 59.1058 22.4676 60.6259 22.4676L60.9 22.4676C62.4213 22.4676 63.6541 23.7004 63.6541 25.2217L63.6541 29.6107L63.6541 10.2098C63.6541 8.68841 64.8869 7.45562 66.4071 7.45562L66.4373 7.45562C67.9586 7.45562 69.1914 8.68841 69.1914 10.2098L69.1914 16.8989L69.1914 4.63628C69.1914 3.11492 70.4242 1.88214 71.9455 1.88214L72.3681 1.88214C73.8895 1.88214 75.1223 3.11492 75.1223 4.63628L75.1223 16.777L75.1223 8.63528C75.1223 7.11392 76.3551 5.88114 77.8764 5.88114L78.1783 5.88114C79.6984 5.88114 80.9324 7.11392 80.9324 8.63528L80.9324 17.2624L80.9324 10.4513C80.9324 8.92989 82.1652 7.69711 83.6854 7.69711L83.6854 7.69711C85.2067 7.69711 86.4395 8.92989 86.4395 10.4513L86.4395 31.5981C86.4395 33.1497 86.0157 34.671 85.214 35.998L80.8105 43.2909L80.8105 46.4386L64.2277 46.8021Z" id="Fill-5" fill="#9BAEC5" fill-rule="evenodd" stroke="none" />
      <path d="M46.294 35.8887L42.2986 35.8887L36.3858 41.135C35.6759 41.845 34.7123 42.2434 33.709 42.2434L24.7136 42.2434C23.1923 42.2434 21.9595 41.0106 21.9595 39.4905L21.9595 39.2164C21.9595 37.695 23.1923 36.4623 24.7136 36.4623L29.1026 36.4623L9.70168 36.4623C8.18032 36.4623 6.94754 35.2295 6.94754 33.7093L6.94754 33.6791C6.94754 32.1578 8.18032 30.925 9.70168 30.925L16.3908 30.925L4.12819 30.925C2.60684 30.925 1.37405 29.6922 1.37405 28.1709L1.37405 27.7483C1.37405 26.2269 2.60684 24.9941 4.12819 24.9941L16.2689 24.9941L8.1272 24.9941C6.60584 24.9941 5.37305 23.7613 5.37305 22.24L5.37305 21.9381C5.37305 20.418 6.60584 19.184 8.1272 19.184L16.7543 19.184L9.94317 19.184C8.42181 19.184 7.18902 17.9512 7.18902 16.431C7.18902 14.9097 8.42181 13.6769 9.94317 13.6769L31.0901 13.6769C32.6416 13.6769 34.163 14.1007 35.4899 14.9024L42.7828 19.3059L45.9305 19.3059L46.294 35.8887Z" id="Fill-7" fill="#9BAEC5" fill-rule="evenodd" stroke="none" />
      <path d="M67.767 44.9199L67.767 40.9246L62.5207 35.0118C61.8108 34.3018 61.4123 33.3383 61.4123 32.3349L61.4123 23.3396C61.4123 21.8182 62.6451 20.5854 64.1652 20.5854L64.4393 20.5854C65.9607 20.5854 67.1935 21.8182 67.1935 23.3396L67.1935 27.7286L67.1935 8.32763C67.1935 6.80627 68.4263 5.57349 69.9464 5.57349L69.9766 5.57349C71.4979 5.57349 72.7307 6.80627 72.7307 8.32763L72.7307 15.0168L72.7307 2.75414C72.7307 1.23278 73.9635 0 75.4849 0L75.9075 0C77.4288 0 78.6616 1.23278 78.6616 2.75414L78.6616 14.8948L78.6616 6.75314C78.6616 5.23178 79.8944 3.999 81.4158 3.999L81.7176 3.999C83.2378 3.999 84.4718 5.23178 84.4718 6.75314L84.4718 15.3802L84.4718 8.56911C84.4718 7.04776 85.7045 5.81497 87.2247 5.81497C88.746 5.81497 89.9788 7.04776 89.9788 8.56911L89.9788 29.716C89.9788 31.2675 89.555 32.7889 88.7533 34.1159L84.3498 41.4087L84.3498 44.5565" id="Stroke-9" fill="none" fill-rule="evenodd" stroke="#213563" stroke-width="2" stroke-linecap="round" stroke-linejoin="round" />
      <path d="M87.9851 60.6428L87.9851 45.1624L65.3459 45.1624L65.3459 54.6057" id="Stroke-11" fill="none" fill-rule="evenodd" stroke="#213563" stroke-width="2" stroke-linecap="round" stroke-linejoin="round" />
      <path d="M83.001 51.6551C83.001 52.5582 82.2693 53.2899 81.3661 53.2899C80.4642 53.2899 79.7325 52.5582 79.7325 51.6551C79.7325 50.7519 80.4642 50.0202 81.3661 50.0202C82.2693 50.0202 83.001 50.7519 83.001 51.6551Z" id="Stroke-13" fill="none" fill-rule="evenodd" stroke="#213563" stroke-width="2" stroke-linecap="round" stroke-linejoin="round" />
      <path d="M44.9199 32.2703L40.9246 32.2703L35.0118 37.5166C34.3018 38.2266 33.3383 38.625 32.3349 38.625L23.3396 38.625C21.8182 38.625 20.5854 37.3922 20.5854 35.8721L20.5854 35.598C20.5854 34.0766 21.8182 32.8438 23.3396 32.8438L27.7286 32.8438L8.32763 32.8438C6.80627 32.8438 5.57349 31.6111 5.57349 30.0909L5.57349 30.0607C5.57349 28.5394 6.80627 27.3066 8.32763 27.3066L15.0168 27.3066L2.75414 27.3066C1.23278 27.3066 0 26.0738 0 24.5524L0 24.1298C0 22.6085 1.23278 21.3757 2.75414 21.3757L14.8948 21.3757L6.75314 21.3757C5.23178 21.3757 3.999 20.1429 3.999 18.6216L3.999 18.3197C3.999 16.7995 5.23178 15.5656 6.75314 15.5656L15.3802 15.5656L8.56911 15.5656C7.04776 15.5656 5.81497 14.3328 5.81497 12.8126C5.81497 11.2913 7.04776 10.0585 8.56911 10.0585L29.716 10.0585C31.2675 10.0585 32.7889 10.4823 34.1159 11.284L41.4087 15.6875L44.5565 15.6875" id="Stroke-15" fill="none" fill-rule="evenodd" stroke="#213563" stroke-width="2" stroke-linecap="round" stroke-linejoin="round" />
      <path d="M60.6428 12.0522L45.1624 12.0522L45.1624 34.6914L54.6057 34.6914" id="Stroke-17" fill="none" fill-rule="evenodd" stroke="#213563" stroke-width="2" stroke-linecap="round" stroke-linejoin="round" />
      <path d="M51.6551 17.0362C52.5582 17.0362 53.2899 17.7679 53.2899 18.6711C53.2899 19.573 52.5582 20.3047 51.6551 20.3047C50.7519 20.3047 50.0202 19.573 50.0202 18.6711C50.0202 17.7679 50.7519 17.0362 51.6551 17.0362Z" id="Stroke-19" fill="none" fill-rule="evenodd" stroke="#213563" stroke-width="2" stroke-linecap="round" stroke-linejoin="round" />
      <path d="M34.9629 55.0801L34.9629 59.0754L40.2092 64.9882C40.9191 65.6982 41.3176 66.6617 41.3176 67.6651L41.3176 76.6604C41.3176 78.1818 40.0848 79.4146 38.5646 79.4146L38.2906 79.4146C36.7692 79.4146 35.5364 78.1818 35.5364 76.6604L35.5364 72.2714L35.5364 91.6724C35.5364 93.1937 34.3036 94.4265 32.7835 94.4265L32.7533 94.4265C31.2319 94.4265 29.9991 93.1937 29.9991 91.6724L29.9991 84.9832L29.9991 97.2459C29.9991 98.7672 28.7664 100 27.245 100L26.8224 100C25.301 100 24.0683 98.7672 24.0683 97.2459L24.0683 85.1052L24.0683 93.2469C24.0683 94.7682 22.8355 96.001 21.3141 96.001L21.0123 96.001C19.4921 96.001 18.2581 94.7682 18.2581 93.2469L18.2581 84.6198L18.2581 91.4309C18.2581 92.9522 17.0253 94.185 15.5052 94.185L15.5052 94.185C13.9838 94.185 12.751 92.9522 12.751 91.4309L12.751 70.284C12.751 68.7325 13.1748 67.2111 13.9766 65.8841L18.3801 58.5913L18.3801 55.4435" id="Stroke-21" fill="none" fill-rule="evenodd" stroke="#213563" stroke-width="2" stroke-linecap="round" stroke-linejoin="round" />
      <path d="M14.7447 40.5646L14.7447 54.8376L37.384 54.8376L37.384 45.3943" id="Stroke-23" fill="none" fill-rule="evenodd" stroke="#213563" stroke-width="2" stroke-linecap="round" stroke-linejoin="round" />
      <path d="M19.7289 48.3449C19.7289 47.4418 20.4606 46.7101 21.3637 46.7101C22.2657 46.7101 22.9974 47.4418 22.9974 48.3449C22.9974 49.2481 22.2657 49.9798 21.3637 49.9798C20.4606 49.9798 19.7289 49.2481 19.7289 48.3449Z" id="Stroke-25" fill="none" fill-rule="evenodd" stroke="#213563" stroke-width="2" stroke-linecap="round" stroke-linejoin="round" />
      <path d="M56.6024 67.7297L60.5978 67.7297L66.5105 62.4834C67.2205 61.7734 68.184 61.375 69.1874 61.375L78.1827 61.375C79.7041 61.375 80.9369 62.6078 80.9369 64.1279L80.9369 64.402C80.9369 65.9234 79.7041 67.1562 78.1827 67.1562L73.7937 67.1562L93.1947 67.1562C94.7161 67.1562 95.9488 68.3889 95.9488 69.9091L95.9488 69.9393C95.9488 71.4606 94.7161 72.6934 93.1947 72.6934L86.5055 72.6934L98.7682 72.6934C100.29 72.6934 101.522 73.9262 101.522 75.4476L101.522 75.8702C101.522 77.3915 100.29 78.6243 98.7682 78.6243L86.6275 78.6243L94.7692 78.6243C96.2905 78.6243 97.5233 79.8571 97.5233 81.3784L97.5233 81.6803C97.5233 83.2005 96.2905 84.4344 94.7692 84.4344L86.1421 84.4344L92.9532 84.4344C94.4746 84.4344 95.7074 85.6672 95.7074 87.1874L95.7074 87.1874C95.7074 88.7087 94.4746 89.9415 92.9532 89.9415L71.8063 89.9415C70.2548 89.9415 68.7334 89.5177 67.4065 88.716L60.1136 84.3125L56.9658 84.3125" id="Stroke-27" fill="none" fill-rule="evenodd" stroke="#213563" stroke-width="2" stroke-linecap="round" stroke-linejoin="round" />
      <path d="M40.8795 87.9478L56.3599 87.9478L56.3599 65.3086L46.9166 65.3086" id="Stroke-29" fill="none" fill-rule="evenodd" stroke="#213563" stroke-width="2" stroke-linecap="round" stroke-linejoin="round" />
      <path d="M49.8672 82.9637C48.9641 82.9637 48.2324 82.232 48.2324 81.3288C48.2324 80.4269 48.9641 79.6952 49.8672 79.6952C50.7704 79.6952 51.5021 80.4269 51.5021 81.3288C51.5021 82.232 50.7704 82.9637 49.8672 82.9637Z" id="Stroke-31" fill="none" fill-rule="evenodd" stroke="#213563" stroke-width="2" stroke-linecap="round" stroke-linejoin="round" />
    </g>
  </g>
</svg>