<?xml version="1.0" encoding="utf-8"?>
<svg width="105px" height="112px" viewBox="0 0 105 112" version="1.1" xmlns:xlink="http://www.w3.org/1999/xlink" xmlns="http://www.w3.org/2000/svg">
  <defs>
    <path d="M0 0L12.7518 0L12.7518 12.7524L0 12.7524L0 0Z" id="path_1" />
    <clipPath id="mask_1">
      <use xlink:href="#path_1" />
    </clipPath>
  </defs>
  <g id="Group-30" transform="translate(1 1)">
    <path d="M24.0535 85.8998C24.0535 85.8998 14.8708 80.8204 19.7128 66.6433C19.7128 66.6433 51.2934 58.514 88.753 64.4806L90.1974 73.1417C97.9777 80.5602 97.2783 85.4988 93.9289 88.3888C91.3524 90.6112 87.6691 91.0249 84.5227 89.7291L80.2709 87.9763L76.099 92.9237C74.2231 95.1486 70.9307 95.5052 68.622 93.7334L67.9582 93.2245C67.9582 93.2245 65.0098 86.1499 58.0266 87.697C54.7457 88.4243 53.5958 91.6367 53.2988 94.8402C53.0487 97.5347 49.9062 98.8598 47.8335 97.1197L37.8055 88.7048C37.8055 88.7048 29.2789 85.4581 24.0535 85.8998" id="Fill-1" fill="#9BAEC5" fill-rule="evenodd" stroke="none" />
    <g id="Group-5" transform="translate(50.68115 0)">
      <path d="M0 0L12.7518 0L12.7518 12.7524L0 12.7524L0 0Z" id="Clip-4" fill="none" fill-rule="evenodd" stroke="none" />
      <g clip-path="url(#mask_1)">
        <path d="M12.7518 6.3759C12.7518 9.89797 9.89734 12.7524 6.37527 12.7524C2.85446 12.7524 0 9.89797 0 6.3759C0 2.85383 2.85446 -0.000634607 6.37527 -0.000634607C9.89734 -0.000634607 12.7518 2.85383 12.7518 6.3759" id="Fill-3" fill="#9BAEC5" fill-rule="evenodd" stroke="none" />
      </g>
    </g>
    <path d="M49.3343 15.1492L32.4435 27.5939C30.8545 28.7641 31.1908 31.2302 33.0363 31.9321L45.1268 36.5304L47.1449 31.9777L41.0044 29.8747C40.0893 29.5612 39.9446 28.3275 40.762 27.8096L48.1526 23.1313" id="Stroke-6" fill="none" fill-rule="evenodd" stroke="#213563" stroke-width="2" stroke-linecap="round" stroke-linejoin="round" />
    <path d="M54.1175 42.2368L38.0391 63.8465L29.2206 64.7108L44.6086 37.3948" id="Stroke-8" fill="none" fill-rule="evenodd" stroke="#213563" stroke-width="2" stroke-linecap="round" stroke-linejoin="round" />
    <path d="M59.7446 8.34204C59.7446 11.8641 56.8901 14.7186 53.3681 14.7186C49.8473 14.7186 46.9928 11.8641 46.9928 8.34204C46.9928 4.81997 49.8473 1.96551 53.3681 1.96551C56.8901 1.96551 59.7446 4.81997 59.7446 8.34204Z" id="Stroke-10" fill="none" fill-rule="evenodd" stroke="#213563" stroke-width="2" stroke-linecap="round" stroke-linejoin="round" />
    <path d="M48.1527 23.1311L53.9861 34.3484L59.4196 23.3938" id="Stroke-12" fill="none" fill-rule="evenodd" stroke="#213563" stroke-width="2" stroke-linecap="round" stroke-linejoin="round" />
    <path d="M57.7483 14.8034L75.0553 27.7582C76.6837 28.9767 76.3283 31.5138 74.4258 32.2373L62.4456 36.7938L60.4276 32.2398L65.2252 30.5975C66.681 30.0987 66.912 28.1377 65.6123 27.314L59.4198 23.3947" id="Stroke-14" fill="none" fill-rule="evenodd" stroke="#213563" stroke-width="2" stroke-linecap="round" stroke-linejoin="round" />
    <path d="M54.1175 42.2368L69.5334 64.1105L78.3507 64.9748L62.4449 36.7931" id="Stroke-16" fill="none" fill-rule="evenodd" stroke="#213563" stroke-width="2" stroke-linecap="round" stroke-linejoin="round" />
    <path d="M50.6165 16.1289L53.6855 20.4075L56.8839 15.092" id="Stroke-18" fill="none" fill-rule="evenodd" stroke="#213563" stroke-width="2" stroke-linecap="round" stroke-linejoin="round" />
    <path d="M50.8758 27.8423L53.6859 20.4085L57.2295 27.3663" id="Stroke-20" fill="none" fill-rule="evenodd" stroke="#213563" stroke-width="2" stroke-linecap="round" stroke-linejoin="round" />
    <path d="M0 73.3138C11.7694 67.2888 31.7012 63.3276 54.3084 63.3276C73.2934 63.3276 90.3922 66.1224 102.355 70.585" id="Stroke-22" fill="none" fill-rule="evenodd" stroke="#213563" stroke-width="2" stroke-linecap="round" stroke-linejoin="round" />
    <path d="M19.9041 87.6286C25.1294 87.1869 33.656 90.4336 33.656 90.4336L43.6841 98.8485C45.7567 100.589 48.8993 99.2635 49.1493 96.569C49.4463 93.3655 50.5962 90.1531 53.8772 89.4258C60.8604 87.8787 63.8088 94.9533 63.8088 94.9533L64.4726 95.4622C66.7813 97.234 70.0736 96.8774 71.9495 94.6525L76.1214 89.7051L80.3733 91.4579C83.5197 92.7537 87.2029 92.34 89.7794 90.1176C93.1289 87.2276 93.8282 82.289 86.0479 74.8705L84.6036 66.2094" id="Stroke-24" fill="none" fill-rule="evenodd" stroke="#213563" stroke-width="2" stroke-linecap="round" stroke-linejoin="round" />
    <path d="M54.5288 105.238C55.3753 107.264 55.0263 109.341 53.7495 109.874C52.4714 110.408 50.7491 109.198 49.9025 107.171C49.0559 105.146 49.405 103.071 50.6818 102.536C51.9599 102.002 53.6822 103.213 54.5288 105.238Z" id="Stroke-26" fill="none" fill-rule="evenodd" stroke="#213563" stroke-width="2" stroke-linecap="round" stroke-linejoin="round" />
    <path d="M19.9041 87.6286C19.9041 87.6286 10.7213 82.5492 15.5634 68.3721" id="Stroke-28" fill="none" fill-rule="evenodd" stroke="#213563" stroke-width="2" stroke-linecap="round" stroke-linejoin="round" />
  </g>
</svg>