<?xml version="1.0" encoding="utf-8"?>
<svg width="197px" height="50px" viewBox="0 0 197 50" version="1.1" xmlns:xlink="http://www.w3.org/1999/xlink" xmlns="http://www.w3.org/2000/svg">
  <defs>
    <path d="M0 49.6095L197 49.6095L197 0L0 0L0 49.6095Z" id="path_1" />
    <clipPath id="mask_1">
      <use xlink:href="#path_1" />
    </clipPath>
  </defs>
  <g id="Group-21">
    <path d="M23.1343 21.3515L22.6858 21.8068C22.6818 21.8101 22.6764 21.8134 22.6728 21.8167C19.9938 24.6432 16.8185 25.2879 14.4371 25.2879C8.73177 25.2879 3.96896 21.1726 3.96896 14.5285C3.96896 8.37962 8.23543 3.61953 14.4371 3.61953C17.062 3.61953 19.0226 4.41689 20.9464 5.84333L20.9453 5.84451L21.6725 6.38731L24.3152 3.94641L23.7389 3.48416C21.2381 1.38382 17.9318 0 14.4868 0C6.54875 0 0 6.4461 0 14.379C0 22.3132 6.54875 28.7591 14.4868 28.7591C18.7039 28.7591 22.4744 27.1719 25.0047 24.197C25.0094 24.1923 25.0007 24.2027 25.0047 24.197L25.1642 24.0056L23.1343 21.3515Z" id="Fill-1" fill="#02316A" fill-rule="evenodd" stroke="none" />
    <path d="M34.9038 18.8559L39.5437 9.15029L44.2332 18.8559L34.9038 18.8559ZM39.5439 0L25.8832 28.7591L30.2762 28.7591L33.3243 22.3216L45.7636 22.3216L48.8116 28.7591L53.2044 28.7591L39.5439 0Z" id="Fill-3" fill="#02316A" fill-rule="evenodd" stroke="none" />
    <path d="M67.6729 15.1836L59.3328 15.1836L59.3328 4.47082L67.6729 4.47082C70.1551 4.47082 72.2402 6.1001 72.2402 9.80263C72.2402 13.505 70.2049 15.1836 67.6729 15.1836M68.219 0.718978L55.3613 0.718978L55.3613 28.7591L59.3328 28.7591L59.3328 18.6883L68.219 18.6883C72.6375 18.6883 76.2117 15.1342 76.2117 9.75317C76.2117 4.42151 72.6375 0.718978 68.219 0.718978" id="Fill-5" fill="#02316A" fill-rule="evenodd" stroke="none" />
    <path d="M0 49.6095L197 49.6095L197 0L0 0L0 49.6095Z" id="Clip-8" fill="none" fill-rule="evenodd" stroke="none" />
    <g clip-path="url(#mask_1)">
      <path d="M79.0876 28.7591L83.4015 28.7591L83.4015 0.718978L79.0876 0.718978L79.0876 28.7591Z" id="Fill-7" fill="#02316A" fill-rule="evenodd" stroke="none" />
      <path d="M86.2774 0.718978L86.2774 4.17494L94.36 4.17494L94.36 28.7591L98.3764 28.7591L98.3764 4.17494L106.409 4.17494L106.409 0.718978L86.2774 0.718978Z" id="Fill-9" fill="#02316A" fill-rule="evenodd" stroke="none" />
      <path d="M136.916 25.3037L136.916 0.718978L133.011 0.718978L133.011 28.7591L136.916 28.7591L151.704 28.7591L151.704 25.3037L136.916 25.3037Z" id="Fill-10" fill="#02316A" fill-rule="evenodd" stroke="none" />
      <path d="M112.553 18.8559L117.193 9.15029L121.883 18.8559L112.553 18.8559ZM117.194 0L103.533 28.7591L107.926 28.7591L110.974 22.3216L123.413 22.3216L126.461 28.7591L130.854 28.7591L117.194 0Z" id="Fill-11" fill="#02316A" fill-rule="evenodd" stroke="none" />
      <path d="M191.098 0.530149L185.917 15.6128L179.026 0L172.134 15.6128L166.953 0.530149L161.051 0.530149L170.85 30.1971L179.026 13.8829L187.201 30.1971L197 0.530149L191.098 0.530149Z" id="Fill-12" fill="#02316A" fill-rule="evenodd" stroke="none" />
      <path d="M9.35068 43.5649C8.97274 43.3013 8.47193 43.1696 7.84823 43.1696L5.90001 43.1696L5.90001 46.333L7.80418 46.333C8.11976 46.333 8.40775 46.2955 8.66829 46.22C8.92853 46.1447 9.15249 46.0369 9.33955 45.8965C9.52661 45.7561 9.66977 45.5883 9.76886 45.3932C9.86796 45.198 9.91751 44.9808 9.91751 44.741C9.91751 44.2207 9.72862 43.8287 9.35068 43.5649M10.5432 45.7374C10.3822 46.0317 10.1645 46.2784 9.89007 46.4768C9.61565 46.6755 9.29549 46.8244 8.9296 46.9236C8.56355 47.0229 8.17586 47.0725 7.76606 47.0725L5.90001 47.0725L5.90001 49.6095L5.03285 49.6095L5.03285 42.4197L7.90876 42.4197C8.34051 42.4197 8.73385 42.4729 9.08876 42.5789C9.44368 42.6852 9.74737 42.8357 9.99983 43.0308C10.2523 43.226 10.4462 43.4658 10.5816 43.7498C10.717 44.034 10.7847 44.3542 10.7847 44.7102C10.7847 45.1005 10.704 45.443 10.5432 45.7374" id="Fill-13" fill="#000000" fill-rule="evenodd" stroke="none" />
      <path d="M33.0629 43.368L31.4472 47.0089L34.6685 47.0089L33.0629 43.368ZM36.6679 49.6095L35.8096 49.6095L34.9815 47.7228L31.1342 47.7228L30.296 49.6095L29.4781 49.6095L32.6994 42.4197L33.4466 42.4197L36.6679 49.6095Z" id="Fill-14" fill="#000000" fill-rule="evenodd" stroke="none" />
      <path d="M61.5811 43.5458C61.2302 43.295 60.7372 43.1696 60.1022 43.1696L57.6822 43.1696L57.6822 46.0968L60.091 46.0968C60.3824 46.0968 60.6511 46.0625 60.8977 45.9937C61.1442 45.9251 61.3571 45.8271 61.5364 45.7C61.7155 45.5729 61.8557 45.4165 61.9564 45.2309C62.0573 45.0455 62.1078 44.8359 62.1078 44.6021C62.1078 44.1488 61.9321 43.7966 61.5811 43.5458L61.5811 43.5458ZM62.186 49.6095L59.9173 46.8158L57.6822 46.8158L57.6822 49.6095L56.7993 49.6095L56.7993 42.4197L60.1632 42.4197C60.5952 42.4197 60.9846 42.4713 61.3311 42.5741C61.6775 42.6768 61.9737 42.8224 62.2195 43.0107C62.4654 43.1992 62.6554 43.4253 62.7895 43.6889C62.9236 43.9528 62.9907 44.2456 62.9907 44.5676C62.9907 44.8689 62.9385 45.1379 62.8342 45.3742C62.7298 45.6105 62.5828 45.8161 62.3928 45.9908C62.2028 46.1655 61.9774 46.3111 61.7166 46.4275C61.4557 46.5442 61.1727 46.6262 60.8673 46.6741L63.2701 49.6095L62.186 49.6095Z" id="Fill-15" fill="#000000" fill-rule="evenodd" stroke="none" />
      <path d="M85.9722 49.6095L85.1446 49.6095L85.1446 43.1695L82.6825 43.1695L82.6825 42.4197L88.4343 42.4197L88.4343 43.1695L85.9722 43.1695L85.9722 49.6095Z" id="Fill-16" fill="#000000" fill-rule="evenodd" stroke="none" />
      <path d="M113.476 42.4197L114.318 42.4197L114.318 49.6095L113.629 49.6095L108.688 43.7139L108.688 49.6095L107.847 49.6095L107.847 42.4197L108.656 42.4197L113.476 48.1819L113.476 42.4197Z" id="Fill-17" fill="#000000" fill-rule="evenodd" stroke="none" />
      <path d="M140.863 43.1594L136.057 43.1594L136.057 45.6141L140.357 45.6141L140.357 46.3536L136.057 46.3536L136.057 48.87L140.92 48.87L140.92 49.6095L135.168 49.6095L135.168 42.4197L140.863 42.4197L140.863 43.1594Z" id="Fill-18" fill="#000000" fill-rule="evenodd" stroke="none" />
      <path d="M165.833 43.5458C165.482 43.295 164.989 43.1696 164.354 43.1696L161.934 43.1696L161.934 46.0968L164.343 46.0968C164.634 46.0968 164.903 46.0625 165.15 45.9937C165.396 45.9251 165.609 45.8271 165.788 45.7C165.967 45.5729 166.108 45.4165 166.208 45.2309C166.309 45.0455 166.36 44.8359 166.36 44.6021C166.36 44.1488 166.184 43.7966 165.833 43.5458L165.833 43.5458ZM166.438 49.6095L164.169 46.8158L161.934 46.8158L161.934 49.6095L161.051 49.6095L161.051 42.4197L164.415 42.4197C164.847 42.4197 165.236 42.4713 165.583 42.5741C165.929 42.6768 166.226 42.8224 166.471 43.0107C166.717 43.1992 166.907 43.4253 167.041 43.6889C167.175 43.9528 167.243 44.2456 167.243 44.5676C167.243 44.8689 167.19 45.1379 167.086 45.3742C166.982 45.6105 166.835 45.8161 166.645 45.9908C166.455 46.1655 166.229 46.3111 165.968 46.4275C165.708 46.5442 165.425 46.6262 165.119 46.6741L167.522 49.6095L166.438 49.6095Z" id="Fill-19" fill="#000000" fill-rule="evenodd" stroke="none" />
      <path d="M187.467 44.2189C187.525 44.3657 187.631 44.4996 187.785 44.6206C187.939 44.7416 188.151 44.8516 188.422 44.9506C188.692 45.0496 189.04 45.1433 189.464 45.2311C190.321 45.4217 190.952 45.6856 191.358 46.0231C191.764 46.3605 191.967 46.8262 191.967 47.4201C191.967 47.7504 191.902 48.0511 191.772 48.3223C191.642 48.5939 191.463 48.8247 191.234 49.0154C191.006 49.2061 190.73 49.3529 190.408 49.4556C190.086 49.5581 189.735 49.6095 189.355 49.6095C188.74 49.6095 188.178 49.5102 187.67 49.3118C187.161 49.1134 186.676 48.8061 186.215 48.3902L186.753 47.7531C187.156 48.1194 187.562 48.3921 187.972 48.5715C188.381 48.751 188.853 48.8406 189.388 48.8406C189.907 48.8406 190.322 48.7196 190.633 48.4776C190.944 48.2357 191.1 47.9165 191.1 47.5205C191.1 47.3371 191.071 47.174 191.012 47.0311C190.953 46.888 190.851 46.758 190.704 46.6405C190.557 46.5232 190.354 46.4168 190.093 46.3213C189.833 46.226 189.501 46.1345 189.097 46.0464C188.657 45.9511 188.274 45.8411 187.948 45.7161C187.621 45.5916 187.351 45.4414 187.139 45.2652C186.926 45.0893 186.768 44.8839 186.666 44.6491C186.563 44.4143 186.512 44.1358 186.512 43.8131C186.512 43.5051 186.574 43.2228 186.698 42.9661C186.823 42.7092 186.998 42.4875 187.225 42.3004C187.452 42.1134 187.719 41.9668 188.027 41.8603C188.334 41.754 188.67 41.7007 189.036 41.7007C189.6 41.7007 190.092 41.7785 190.513 41.9337C190.933 42.0888 191.341 42.3224 191.737 42.6344L191.232 43.3045C190.873 43.0117 190.513 42.7992 190.15 42.6674C189.788 42.5355 189.41 42.4696 189.014 42.4696C188.766 42.4696 188.54 42.5027 188.339 42.5688C188.138 42.6347 187.966 42.7227 187.823 42.8329C187.681 42.9429 187.571 43.0748 187.494 43.2288C187.417 43.383 187.379 43.5479 187.379 43.7238C187.379 43.9072 187.408 44.0723 187.467 44.2189" id="Fill-20" fill="#000000" fill-rule="evenodd" stroke="none" />
    </g>
  </g>
</svg>