<?xml version="1.0" encoding="UTF-8"?>
<svg width="548px" height="214px" viewBox="0 0 548 214" version="1.1" xmlns="http://www.w3.org/2000/svg" xmlns:xlink="http://www.w3.org/1999/xlink">
    <title>Group</title>
    <g id="Page-1" stroke="none" stroke-width="1" fill="none" fill-rule="evenodd">
        <g id="home_step-02-copy" transform="translate(-449.000000, -315.000000)">
            <g id="Group" transform="translate(449.000000, 315.000000)">
                <polygon id="Fill-3" fill="#8097B6" points="486 214 511 214 511 128 486 128"></polygon>
                <polygon id="Fill-3-Copy" fill="#8097B6" points="20 214 52 214 52 128 20 128"></polygon>
                <polygon id="Fill-3-Copy-2" fill="#8097B6" points="0 214 22 214 22 155 0 155"></polygon>
                <polygon id="Fill-2" fill="#02316B" points="104.741191 97 99.0473834 109.661299 95 109.661299 95 214 119 214 119 97"></polygon>
                <polygon id="Fill-6" fill="#02316B" points="141.043921 21 140.956079 21 140.716922 21 140.292755 47.8689561 139.666734 47.8689561 136.030333 75.0978241 133.3635 75.0978241 133.3635 78.5760793 131.302833 78.5760793 131.302833 81.3351061 131.950213 81.3351061 131.950213 87.9320024 130.575733 87.9320024 130.575733 99.8073088 130.454199 99.8073088 126.090699 105.80465 126.090699 185.512185 123 188.570691 123 214 136.575432 214 136.6362 214 137.484833 214 138.696866 214 140.515066 214 141.484633 214 143.303134 214 144.515167 214 145.3635 214 145.424267 214 159 214 159 188.570691 155.909 185.512185 155.909 105.80465 151.5455 99.8073088 151.424267 99.8073088 151.424267 87.9320024 150.049787 87.9320024 150.049787 81.3351061 150.697167 81.3351061 150.697167 78.5760793 148.6365 78.5760793 148.6365 75.0978241 145.969967 75.0978241 142.333567 47.8689561 141.706944 47.8689561 141.283078 21"></polygon>
                <polygon id="Fill-7" fill="#02316B" points="71 214 116 214 116 115 71 115"></polygon>
                <polygon id="Fill-17" fill="#02316B" points="327 214 362 214 362 149 327 149"></polygon>
                <polygon id="Path" fill="#02316B" points="374.019224 55.3716721 374.019224 50.0357118 369.832644 50.0357118 366.066837 33.8530918 366.02336 33.8632475 366.02336 6 364.943586 6 364.943586 33.8554813 364.933163 33.8530918 361.167654 50.0357118 356.981074 50.0357118 356.981074 55.3716721 352 55.3716721 352 57.960497 352 214 354.160143 214 365.500149 214 376.839857 214 379 214 379 57.960497 379 55.3716721"></polygon>
                <polygon id="Fill-27" fill="#02316B" points="49 214 73 214 73 157 49 157"></polygon>
                <polygon id="Path-3" fill="#02316B" points="226.462708 41 214.81729 43.8301078 214.81729 78.5617408 210.858868 79.6045024 210.858868 126.990066 205 128.000205 205 214 253 214 253 126.990066 245.541169 126.990066 245.541169 80.5814477 242.083366 80.5814477 242.083366 77.6843787 236.147696 77.6843787 236.147696 42.207589"></polygon>
                <rect id="Rectangle" fill="#02316B" x="220" y="0" width="2" height="45"></rect>
                <rect id="Rectangle-Copy-3" fill="#02316B" x="228" y="0" width="2" height="45"></rect>
                <path d="M290.646743,214 L287.561022,197.857634 L288.911361,196.506464 L288.621235,194.675036 L288.719734,193.710938 L289.394904,193.420634 L286.597517,191.782743 L279.383771,126.091485 L279.383771,104.031925 L283.948776,73.5176921 C283.948776,73.5176921 289.636675,72.5518024 291.662183,70.718583 C291.662183,70.718583 290.505262,69.657717 289.539967,69.2706443 L289.926801,68.1130102 C289.926801,68.1130102 295.929899,67.478641 296,65.7009737 C296.03198,64.9286203 293.012522,63.9645225 292.145726,63.8695463 L292.145726,62.5183758 C292.145726,62.5183758 285.202406,59.4307541 279.901341,57.6960949 C279.901341,57.6960949 278.937837,57.212254 279.901341,56.15318 C280.864846,55.0941061 281.830141,54.9955459 280.963345,54.6102652 C280.094759,54.2249845 279.473316,54.1282163 279.473316,54.1282163 L279.473316,53.0673503 L278.260877,52.4885333 L278.260877,51.5244355 C278.260877,51.5244355 276.333868,50.6571059 275.271864,50.5603377 C275.055165,50.5406256 274.899357,50.5280816 274.78653,50.5227056 L274.78653,50.4635695 L274.564459,50.5191216 C274.542968,50.5209136 274.530432,50.5244976 274.528641,50.5280816 L274.499986,50.5352496 L274.499986,41 L273.921525,41 L273.921525,50.5406256 C273.862426,50.5460017 273.799744,50.5513777 273.728108,50.5585457 C272.667895,50.6553139 270.739096,51.5244355 270.739096,51.5244355 L270.739096,52.4885333 L269.528447,53.0673503 L269.528447,54.1300083 C269.528447,54.1300083 268.907005,54.2267765 268.038418,54.6120572 C267.171622,54.9991299 268.135127,55.0958981 269.098631,56.154972 C270.062135,57.214046 269.098631,57.6978869 269.098631,57.6978869 C263.797566,59.4343381 256.856037,62.5201678 256.856037,62.5201678 L256.856037,63.8713383 C255.989241,63.9681065 252.969783,64.9322043 253,65.7027657 C253.071865,67.480433 259.074962,68.1148022 259.074962,68.1148022 L259.460006,69.2724363 C258.494711,69.659509 257.337789,70.720375 257.337789,70.720375 C259.361506,72.5518024 265.051196,73.5194842 265.051196,73.5194842 L269.003713,103.712948 L268.715378,126.089693 L260.407392,192.073047 L258.109667,193.418842 L258.784836,193.709146 L258.881545,194.673244 L258.591419,196.504672 L259.941758,197.855842 L256.856037,213.998208 L261.25807,213.998208 L263.272832,199.077988 L279.767024,199.077988 L281.180044,213.998208" id="Path" fill="#02316B" fill-rule="nonzero"></path>
                <path d="M272,74 L272,106 C272,106 269,74.7717099 269,74 C269.001493,74 270.822388,74 272,74 Z" id="Path" fill="#02316B" fill-rule="nonzero"></path>
                <polygon id="Path" fill="#02316B" fill-rule="nonzero" points="267.070505 163.461695 272.543059 121 277 164 267 164"></polygon>
                <polygon id="Path" fill="#02316B" fill-rule="nonzero" points="264 190 266.491915 166 277.580668 166 279 190"></polygon>
                <path d="M277.843607,97 C276.636852,97.025284 277.038481,74.1676447 277.17298,73 C277.17298,73 280.658746,73.2602799 282,73 C281.998132,73 280.184263,96.952984 277.843607,97 Z" id="Path" fill="#02316B" fill-rule="nonzero"></path>
                <polygon id="Fill-3-Copy-3" fill="#8097B6" points="526 214 548 214 548 155 526 155"></polygon>
                <path d="M540.583627,154.520253 C541.316888,153.524343 542,151.891705 542,151.891705 L538.069396,149.210096 C538.069396,149.210096 537.336134,149.6305 537.283275,149.788322 C537.233126,149.944783 537.336134,150.261787 536.761453,150.471309 C536.184061,150.680831 535.606668,150.996474 535.29222,151.154296 C534.980483,151.310757 535.242071,151.627761 534.35023,151.154296 C533.461101,150.67947 531.364326,146.947531 531.155598,146.316244 C530.946869,145.684957 530.369477,144.370683 529.950664,143.791096 C529.529141,143.21287 527.95961,142.003357 527.489292,141.634652 C527.01762,141.267309 526.072919,140.373439 525.811331,139.899974 C525.549742,139.426509 525.917051,136.7966 525.811331,136.271434 C525.708322,135.746269 525.289509,135.377565 525.499593,134.588456 C525.674438,133.929958 525.811331,132.900036 525.854703,131.996642 L532.084034,130.485091 L525.643264,130.248358 C525.556519,129.99666 525.434535,129.728635 525.270534,129.45925 L530.353212,125.981729 L524.007319,128.121846 C523.848739,128.008922 523.676606,127.898719 523.490919,127.795319 L524.95473,121.270206 L521.796693,127.1341 C521.433451,127.038863 521.039035,126.958591 520.608024,126.897367 L518.56682,120.306949 L518.749797,126.921857 C518.497696,126.969476 518.234752,127.038863 517.974519,127.140903 L512.39306,122.984477 L516.474112,128.279668 C516.440228,128.327287 516.407699,128.377627 516.375169,128.427966 L511.059366,128.044296 C510.822174,127.102808 509.557604,122.153192 509.310924,121.757277 C509.04798,121.335512 508.839252,120.127359 508.576308,119.496072 C508.314719,118.863425 508.419084,115.867533 508.314719,115.392707 C508.210355,114.919242 508.210355,114.130133 507.948767,113.709729 C507.685823,113.289324 507.26701,112.659398 507.109786,112.553276 C506.953917,112.448515 506.638113,111.764168 506.533749,111.239002 C506.428029,110.712476 506.480889,109.502963 506.533749,109.345141 C506.586609,109.18732 506.690973,108.030867 506.690973,108.030867 C506.690973,108.030867 507.162646,108.29345 507.737327,107.557402 C508.313364,106.819994 508.680672,106.137007 508.680672,105.822724 C508.680672,105.50708 508.627812,104.824093 508.627812,104.824093 C508.627812,104.824093 507.527243,103.981923 507.002711,103.877163 C506.479534,103.771041 506.951206,102.981932 507.002711,102.825471 C507.055571,102.666289 507.631607,102.666289 508.209,101.352015 C508.783681,100.03638 508.783681,99.8799189 508.783681,99.4595144 C508.783681,99.0377494 509.256709,98.9329885 508.783681,99.0377494 C508.312009,99.143871 507.946056,99.143871 507.841692,99.5125752 C507.735972,99.8799189 507.684467,100.195562 507.370019,100.195562 C507.055571,100.195562 506.470046,99.5642754 506.470046,99.5642754 C506.470046,99.5642754 505.955001,99.0894497 505.693413,99.3533929 C505.431824,99.6159756 505.064516,99.3003322 504.539984,99.7207366 C504.015451,100.142502 503.753863,100.089441 503.649499,100.509845 C503.543779,100.93025 503.176471,101.141132 503.176471,101.719358 C503.176471,102.297585 503.123611,102.508467 503.490919,102.980572 C503.856872,103.455398 503.804012,103.927502 503.804012,103.927502 C503.804012,103.927502 503.275413,104.347907 503.172404,104.400967 C503.072106,104.454028 502.128761,104.454028 501.814313,104.822732 C501.50122,105.191437 501.081052,105.611841 501.028192,106.085306 C500.975332,106.557411 500.715099,107.083937 501.028192,107.504341 C501.34264,107.926106 501.552724,108.557393 501.971537,108.871676 C502.391705,109.18732 502.913527,108.819976 503.019246,109.713846 C503.123611,110.607715 502.913527,111.976411 502.913527,112.659398 C502.913527,113.341025 502.862022,114.183194 503.019246,114.920602 C503.175115,115.65665 503.490919,116.340998 503.648143,116.866164 C503.804012,117.391329 503.961236,118.022616 504.014096,118.706964 C504.066956,119.389951 504.066956,120.021238 504.17132,120.389942 C504.275684,120.758646 505.271889,129.593942 507.314448,133.274182 C507.314448,133.274182 505.16617,139.427869 505.532123,141.110847 C505.532123,141.110847 505.427758,143.004708 507.208729,142.950287 C507.208729,142.950287 507.314448,144.842787 508.83383,144.842787 C508.83383,144.842787 509.042559,146.947531 509.305503,147.472696 C509.567091,147.999222 509.567091,148.73527 509.409867,149.208735 C509.253998,149.6822 508.625102,150.471309 509.148279,151.049535 C509.671456,151.627761 510.038764,151.943405 510.248848,152.154287 C510.458932,152.363809 510.510436,153.204618 510.248848,154.048148 C509.987259,154.888957 509.619951,155.731127 509.619951,155.731127 C509.619951,155.731127 508.677962,156.676696 508.467877,157.833149 C508.259149,158.992322 507.9447,159.833131 508.049065,160.727001 C508.154784,161.620871 508.310653,162.51474 508.572242,163.092966 C508.835186,163.671193 509.096774,164.35554 509.358363,164.669823 C509.619951,164.984106 509.358363,165.880697 509.043914,167.14191 C508.729466,168.404484 508.729466,168.665706 508.677962,169.454815 C508.625102,170.243924 508.310653,171.033032 508.416373,172.033023 C508.520737,173.031654 508.677962,173.137776 508.940905,173.716002 C509.202494,174.294228 509.04527,174.450689 509.308214,175.818024 C509.569802,177.18672 509.88425,177.344541 509.831391,177.869707 C509.778531,178.396233 509.831391,180.132272 509.778531,181.024781 C509.725671,181.918651 509.411223,182.130894 509.465438,183.70775 C509.518298,185.285968 509.674166,185.759433 509.93711,186.547181 C510.198699,187.33629 510.762537,190.334903 510.66495,191.597477 C510.566007,192.860051 510.449444,193.069573 510.66495,194.69813 C510.880455,196.329408 511.718081,198.589252 511.8238,199.117138 C511.928165,199.642304 511.613716,200.16883 511.509352,200.693995 C511.404988,201.21916 511.299268,201.534804 511.718081,202.166091 C512.138249,202.798738 512.191109,202.902139 511.8238,203.639547 C511.456492,204.375595 511.456492,204.270834 511.299268,204.900761 C511.142044,205.532048 511.025481,205.638169 510.66495,206.111634 C510.303063,206.58646 510.09569,206.900743 509.099485,207.269447 C508.10328,207.638151 507.632963,207.216386 507.004066,207.953795 C506.375169,208.688482 503.442125,209.32113 503.232041,209.32113 C503.074817,209.32113 502.44321,209.469428 502.138249,210.213639 L500.772025,210.213639 C498.688805,210.213639 497,211.908862 497,214 L540.011656,214 C540.011656,211.908862 538.322852,210.213639 536.242342,210.213639 L534.516942,210.213639 C534.022228,209.379633 533.359447,208.22182 533.200867,207.742912 C532.939279,206.953804 532.939279,206.427278 532.676335,205.533408 C532.414747,204.640899 532.517755,204.009612 532.204663,202.589216 C531.890214,201.168821 531.73299,200.695356 531.73299,199.854547 C531.73299,199.012377 531.57441,198.960677 532.204663,198.119868 C532.832204,197.277699 532.885064,196.698112 532.937924,196.172946 C532.990783,195.646421 533.146652,193.806981 532.885064,193.070933 C532.623475,192.334885 532.413391,192.019242 532.676335,191.283194 C532.939279,190.547146 533.095148,190.547146 533.253727,189.758037 C533.409596,188.970289 533.61968,189.07505 533.7254,188.076419 C533.828409,187.077789 533.934128,186.341741 533.986988,185.44515 C534.037137,184.55128 534.037137,182.079193 534.037137,182.079193 C534.037137,182.079193 532.782055,174.664293 532.729195,174.086067 C532.676335,173.50648 532.729195,172.243906 532.676335,171.298336 C532.623475,170.352766 532.098943,168.720128 532.623475,169.090192 C533.148008,169.457536 534.404446,170.087462 535.084847,169.511957 C535.765248,168.932371 536.972892,168.774549 537.44321,167.828979 C537.914882,166.882049 538.22933,166.828988 538.490919,165.830357 C538.752507,164.830366 539.0656,164.567783 539.17132,163.936496 C539.27704,163.305209 539.327189,161.317472 539.590133,161.101147 C539.853077,160.884823 540.323394,160.937883 540.637842,159.992313 C540.952291,159.045383 541.318243,159.045383 541.318243,157.940631 C541.318243,156.835879 541.318243,156.731118 540.952291,155.942009 C540.583627,155.1529 539.850366,155.520244 540.583627,154.520253 Z" id="Path" fill="#02316B" fill-rule="nonzero"></path>
                <path d="M515.942743,133.3621 C516.172765,134.060644 515.631763,134.643265 515.687019,134.759187 C515.742276,134.875109 515.643328,136.348976 515.179429,135.922924 C514.716814,135.495368 514.452096,135.263524 514.286325,135.070822 C514.12184,134.875109 514.152681,134.837472 513.822426,133.866437 C513.490885,132.896907 513.458759,132.237506 513.16063,131.888234 C513.109228,131.828015 513.055257,131.74973 513,131.654884 L515.532815,131 C515.616342,131.669939 515.779542,132.871313 515.942743,133.3621 Z" id="Path" fill="#8097B6"></path>
                <path d="M511.354239,130.106996 C511.229384,129.526375 511.10453,128.568649 511,128 L516,129.855593 C515.997096,129.887018 515.992741,129.915451 515.991289,129.94538 L512.79878,132 C512.588269,131.639357 512.364692,131.263749 512.139663,131.033296 C511.689605,130.569398 511.502323,130.801347 511.354239,130.106996 Z" id="Path" fill="#8097B6"></path>
                <path d="M194,69 C194,69 193.954143,65.3914006 192.512915,64.2609153 L191.740829,47 L191.722423,47 L191.277577,47 L191.259171,47 L190.487085,64.2609153 C189.045857,65.3914006 189,69 189,69 L191.5,68.7779839 L194,69 Z" id="Fill-11" fill="#02316B"></path>
                <path d="M202.283851,180.770291 L202.283851,95.4917253 L200.513306,95.4917253 L200.513306,78.6363264 L197.644246,78.6363264 L197.644246,77.6944439 L196.669682,77.6944439 L195.522998,77.6944439 C195.522998,77.6944439 195.333549,76.7919558 194.820126,75.7596454 C194.820126,75.7596454 194.845679,73.5240175 194.01357,71.7479901 L194.015332,71.7485869 C194.015332,71.7485869 193.947777,66.420803 191,66 C188.052517,66.420803 187.984668,71.7485869 187.984668,71.7485869 L187.98643,71.7479901 C187.154321,73.5240175 187.179874,75.7596454 187.179874,75.7596454 L187.179874,75.7596454 C186.666745,76.7919558 186.477002,77.6944439 186.477002,77.6944439 L185.337661,77.6944439 L184.355754,77.6944439 L184.355754,78.6363264 L181.486988,78.6363264 L181.486988,95.4917253 L179.716442,95.4917253 L179.716442,180.770291 L176,180.770291 L176,214 L188.071022,214 L193.928978,214 L206,214 L206,180.770291 L202.283851,180.770291 Z" id="Fill-13" fill="#8097B6"></path>
                <polygon id="Fill-1" fill="#02316B" points="160 140.304466 160 214 170.999699 214 182 214 182 140.304466 170.999699 125"></polygon>
                <path d="M318.021426,100 C318.021426,100 318.002639,99.7844617 318.000249,99.4111582 L318.000438,99.2278724 C318.022443,96.5756191 318.912233,88 329.5,88 C340.087767,88 340.977557,96.5756191 340.999562,99.2278724 L340.999751,99.4111582 C340.997361,99.7844617 340.978574,100 340.978574,100 L340.978574,100 L343.33953,100 L343.33953,123.903883 L348,123.903883 L348,214 L310,214 L310,123.903883 L314.66047,123.903883 L314.66047,100 Z" id="Combined-Shape" fill="#8097B6"></path>
                <polygon id="Fill-5" fill="#02316B" points="304.92457 123 301.07543 123 299.004827 123 294.021219 127.638882 289 127.638882 289 154.701714 289 214 301.07543 214 304.92457 214 317 214 317 154.701714 317 127.638882 311.978488 127.638882 306.994879 123"></polygon>
                <polygon id="Fill-20" fill="#8097B6" points="379 214 379 137.334263 388.507118 126 404 126 404 214"></polygon>
                <polygon id="Fill-23" fill="#8097B6" points="486 127.745359 476.980435 122.901946 468.947063 122.901946 468.947063 116 465.831669 116 457.168028 116 454.053239 116 454.053239 122.901946 446.019263 122.901946 437 127.745359 437 214 461.499849 213.965741 486 214"></polygon>
                <polygon id="Fill-25" fill="#02316B" opacity="0.5" points="347 214 379 214 379 150 347 150"></polygon>
                <polygon id="Fill-9" fill="#02316B" points="223 214 230 214 230 213 223 213"></polygon>
                <polygon id="Fill-21" fill="#8097B6" points="413 214 437 214 437 108 413 108"></polygon>
                <polygon id="Fill-24" fill="#02316B" points="429.302438 140.848425 426.686132 140.848425 426.686132 99.0928305 423.866535 99.0928305 423.866535 71.481478 418.532276 65.5632395 418.524973 65.5632395 418.524973 59.8647167 411.292317 48.1229603 411.292317 34 410.666619 34 410.333685 34 409.707683 34 409.707683 48.1229603 402.475332 59.8647167 402.475332 65.5632395 402.467724 65.5632395 397.13377 71.481478 397.13377 99.0928305 394.313564 99.0928305 394.313564 140.848425 391.697866 140.848425 389 147.572089 390.266917 147.572089 390.266917 214 430.732779 214 430.732779 147.572089 432 147.572089"></polygon>
                <polygon id="Path" fill="#02316B" points="361 203 361 214 358 214"></polygon>
                <polygon id="Path" fill="#02316B" points="365 214 362 214 362 203"></polygon>
            </g>
        </g>
    </g>
</svg>